<svg width="35" height="34" viewBox="0 0 35 34" fill="none" xmlns="http://www.w3.org/2000/svg">
<g clip-path="url(#clip0_3995_31738)">
<g clip-path="url(#clip1_3995_31738)">
<path d="M21.4735 24.7907H9.01611V6.98047H21.4735V10.5404C15.0556 12.3837 14.9213 21.4292 21.2828 23.4617L21.4735 23.5227V24.7907Z" fill="#003F8F"/>
<path d="M21.0218 30.1025H9.46005C8.23475 30.1025 7.23682 29.1046 7.23682 27.8793V4.75741C7.23682 3.53212 8.23475 2.53418 9.46005 2.53418H21.0218C22.247 2.53418 23.245 3.53212 23.245 4.75741V9.74709C23.245 9.99276 23.0466 10.1911 22.8009 10.1911C22.5553 10.1911 22.3569 9.99276 22.3569 9.74709V4.75741C22.3569 4.02193 21.7588 3.42378 21.0233 3.42378H9.46005C8.72456 3.42378 8.12641 4.02193 8.12641 4.75741V27.8808C8.12641 28.6163 8.72456 29.2145 9.46005 29.2145H21.0218C21.7572 29.2145 22.3554 28.6163 22.3554 27.8808V24.3697C22.3554 24.1241 22.5538 23.9257 22.7994 23.9257C23.0451 23.9257 23.2435 24.1241 23.2435 24.3697V27.8808C23.2435 29.1061 22.2455 30.1041 21.0202 30.1041L21.0218 30.1025Z" fill="#003F8F"/>
<path d="M22.8009 6.0912H7.68232C7.43665 6.0912 7.23828 5.89283 7.23828 5.64716C7.23828 5.40149 7.43665 5.20312 7.68232 5.20312H22.8009C23.0466 5.20312 23.2449 5.40149 23.2449 5.64716C23.2449 5.89283 23.0466 6.0912 22.8009 6.0912Z" fill="#003F8F"/>
<path d="M16.5752 28.3246H13.9079C13.6622 28.3246 13.4639 28.1262 13.4639 27.8806C13.4639 27.6349 13.6622 27.4365 13.9079 27.4365H16.5752C16.8208 27.4365 17.0192 27.6349 17.0192 27.8806C17.0192 28.1262 16.8208 28.3246 16.5752 28.3246Z" fill="#003F8F"/>
<path d="M22.4499 26.5453H7.68232C7.43665 26.5453 7.23828 26.3469 7.23828 26.1013C7.23828 25.8556 7.43665 25.6572 7.68232 25.6572H22.4515C22.6971 25.6572 22.8955 25.8556 22.8955 26.1013C22.8955 26.3469 22.6971 26.5453 22.4515 26.5453H22.4499Z" fill="#003F8F"/>
<path d="M23.187 22.8057C26.3885 22.8057 28.9839 20.2103 28.9839 17.0088C28.9839 13.8073 26.3885 11.2119 23.187 11.2119C19.9855 11.2119 17.3901 13.8073 17.3901 17.0088C17.3901 20.2103 19.9855 22.8057 23.187 22.8057Z" fill="#003F8F"/>
<path d="M23.7823 19.8605H22.496C21.6094 19.8605 20.8877 19.1388 20.8877 18.2522C20.8877 18.0737 21.0311 17.9303 21.2097 17.9303C21.3882 17.9303 21.5316 18.0737 21.5316 18.2522C21.5316 18.7848 21.965 19.2166 22.496 19.2166H23.7823C24.3149 19.2166 24.7467 18.7833 24.7467 18.2522C24.7467 17.7212 24.3133 17.2879 23.7823 17.2879H22.496C21.6094 17.2879 20.8877 16.5661 20.8877 15.6796C20.8877 14.793 21.6094 14.0713 22.496 14.0713H23.7823C24.6689 14.0713 25.3906 14.793 25.3906 15.6796C25.3906 15.8581 25.2472 16.0015 25.0686 16.0015C24.8901 16.0015 24.7467 15.8581 24.7467 15.6796C24.7467 15.147 24.3133 14.7152 23.7823 14.7152H22.496C21.9635 14.7152 21.5316 15.1486 21.5316 15.6796C21.5316 16.2106 21.965 16.6439 22.496 16.6439H23.7823C24.6689 16.6439 25.3906 17.3657 25.3906 18.2522C25.3906 19.1388 24.6689 19.8605 23.7823 19.8605Z" fill="white"/>
<path d="M23.1398 14.7135C22.9613 14.7135 22.8179 14.57 22.8179 14.3915V13.1052C22.8179 12.9266 22.9613 12.7832 23.1398 12.7832C23.3184 12.7832 23.4618 12.9266 23.4618 13.1052V14.3915C23.4618 14.57 23.3184 14.7135 23.1398 14.7135Z" fill="white"/>
<path d="M23.1398 21.1471C22.9613 21.1471 22.8179 21.0036 22.8179 20.8251V19.5388C22.8179 19.3602 22.9613 19.2168 23.1398 19.2168C23.3184 19.2168 23.4618 19.3602 23.4618 19.5388V20.8251C23.4618 21.0036 23.3184 21.1471 23.1398 21.1471Z" fill="white"/>
<path d="M21.414 24.7907H8.95654V6.98047H21.414V10.5404C14.996 12.3837 14.8618 21.4292 21.2232 23.4617L21.414 23.5227V24.7907Z" fill="#003F8F"/>
<mask id="mask0_3995_31738" style="mask-type:luminance" maskUnits="userSpaceOnUse" x="8" y="6" width="14" height="19">
<path d="M21.414 24.7907H8.95654V6.98047H21.414V10.5404C14.996 12.3837 14.8618 21.4292 21.2232 23.4617L21.414 23.5227V24.7907Z" fill="white"/>
</mask>
<g mask="url(#mask0_3995_31738)">
<path d="M14.0087 12.7412C13.8424 12.7275 13.676 12.7153 13.5128 12.7046C13.5128 12.7046 13.4746 12.7015 13.4166 12.6985C13.3922 12.6985 13.3693 12.6954 13.3449 12.6939C13.3281 12.6939 13.3098 12.6939 13.2915 12.6924C13.4594 13.1593 13.7508 13.759 14.1323 14.4441C17.1337 14.3983 19.5294 14.6257 19.5416 15.201C19.5477 15.5351 18.7435 15.851 17.4664 16.0814C17.4557 16.0997 17.445 16.1165 17.4343 16.1348C18.98 15.9563 20.007 15.5443 20.0558 14.9828C20.1382 14.0413 17.4313 13.0372 14.0117 12.7412H14.0087Z" fill="white"/>
<path d="M12.7377 11.6913C12.9971 11.5204 13.6166 11.9492 14.404 12.7778C14.4345 12.7808 14.465 12.7839 14.4955 12.7869C13.5815 11.6974 12.7529 11.1283 12.2784 11.3724C11.4392 11.8058 12.0327 14.6302 13.6059 17.682C13.6639 17.7949 13.7234 17.9063 13.7814 18.0162C13.7814 18.0162 13.8379 18.1199 13.9035 18.242C13.908 18.2511 13.9126 18.2603 13.9187 18.2695C13.9325 18.2939 13.9447 18.3168 13.9584 18.3412C14.2605 17.8987 14.5962 17.3127 14.9518 16.6261C13.3282 14.1312 12.2586 12.0057 12.7362 11.6913H12.7377Z" fill="white"/>
<path d="M16.2215 14.8633C14.984 17.6404 13.748 19.7568 13.217 19.5218C12.8996 19.3815 12.9683 18.4598 13.333 17.1308C13.3253 17.114 13.3162 17.0972 13.3086 17.0804C12.776 18.6246 12.6951 19.7904 13.1987 20.0803C14.0166 20.5518 16.0704 18.5224 17.784 15.5484C17.8878 15.3684 17.987 15.1883 18.0846 15.0098C17.5673 14.938 16.9341 14.8907 16.223 14.8648L16.2215 14.8633Z" fill="white"/>
</g>
</g>
</g>
<defs>
<clipPath id="clip0_3995_31738">
<rect width="34" height="34" fill="white" transform="translate(0.5)"/>
</clipPath>
<clipPath id="clip1_3995_31738">
<rect width="34" height="34" fill="white" transform="translate(0.5)"/>
</clipPath>
</defs>
</svg>
