<svg width="31" height="32" viewBox="0 0 31 32" fill="none" xmlns="http://www.w3.org/2000/svg">
<path d="M24.6058 3.1582H6.3939C5.50406 3.1582 4.7832 3.88323 4.7832 4.77822V28.2663C4.7832 29.157 5.50406 29.8863 6.3939 29.8863H24.6058C25.4956 29.8863 26.2165 29.157 26.2165 28.2663V4.77822C26.2165 3.88323 25.4956 3.1582 24.6058 3.1582ZM9.98967 6.84776C9.98967 6.60035 10.1865 6.40241 10.4282 6.40241H20.5672C20.8131 6.40241 21.0099 6.60035 21.0099 6.84776V14.2186C21.0099 14.4617 20.8131 14.6597 20.5672 14.6597H10.4282C10.1865 14.6597 9.98967 14.4617 9.98967 14.2186V6.84776ZM16.931 26.643H14.0679L14.1609 25.4812H16.8347L16.931 26.643ZM10.6219 18.6977V17.4832H20.3781V18.6977H10.6219ZM14.4914 21.5366H16.5086L16.6048 22.6984H14.3941L14.4914 21.5366ZM11.4797 21.5366H13.6818L13.5856 22.6984H11.0369L11.4797 21.5366ZM14.3266 23.5084H16.6742L16.7705 24.6702H14.2293L14.3266 23.5084ZM17.4142 22.6984L17.318 21.5366H19.5169L19.9597 22.6984H17.4142ZM10.7308 23.5084H13.5211L13.4687 24.1076L13.4206 24.6702H10.2881L10.7308 23.5084ZM17.5758 24.6712L17.4795 23.5095H20.2698L20.7125 24.6712H17.5758ZM13.2591 26.643H9.53818L9.97669 25.4812H13.3553L13.2591 26.643ZM21.0218 25.4812L21.4603 26.643H17.7394L17.6431 25.4812H21.0218ZM7.55753 14.3357H7.13829C6.91263 14.3357 6.73614 14.1539 6.73614 13.9313C6.73614 13.7086 6.91368 13.5268 7.13829 13.5268H7.55753C7.7832 13.5268 7.95968 13.7086 7.95968 13.9313C7.96075 14.1539 7.78321 14.3357 7.55753 14.3357ZM7.55753 12.0681H7.13829C6.91263 12.0681 6.73614 11.8896 6.73614 11.6637C6.73614 11.441 6.91368 11.2592 7.13829 11.2592H7.55753C7.7832 11.2592 7.95968 11.441 7.95968 11.6637C7.96075 11.8896 7.78321 12.0681 7.55753 12.0681ZM7.55753 9.80376H7.13829C6.91263 9.80376 6.73614 9.62196 6.73614 9.39928C6.73614 9.17661 6.91368 8.9948 7.13829 8.9948H7.55753C7.7832 8.9948 7.95968 9.17659 7.95968 9.39928C7.96075 9.62195 7.78321 9.80376 7.55753 9.80376ZM7.55753 7.53616H7.13829C6.91263 7.53616 6.73614 7.35436 6.73614 7.13168C6.73614 6.90901 6.91368 6.7272 7.13829 6.7272H7.55753C7.7832 6.7272 7.95968 6.909 7.95968 7.13168C7.96075 7.35435 7.78321 7.53616 7.55753 7.53616ZM23.8602 14.3356H23.4377C23.2164 14.3356 23.0356 14.1538 23.0356 13.9311C23.0356 13.7084 23.2163 13.5266 23.4377 13.5266H23.8602C24.0859 13.5266 24.2624 13.7084 24.2624 13.9311C24.2634 14.1538 24.0859 14.3356 23.8602 14.3356ZM23.8602 12.068H23.4377C23.2164 12.068 23.0356 11.8894 23.0356 11.6635C23.0356 11.4408 23.2163 11.259 23.4377 11.259H23.8602C24.0859 11.259 24.2624 11.4408 24.2624 11.6635C24.2634 11.8894 24.0859 12.068 23.8602 12.068ZM23.8602 9.80362H23.4377C23.2164 9.80362 23.0356 9.62183 23.0356 9.39914C23.0356 9.17647 23.2163 8.99466 23.4377 8.99466H23.8602C24.0859 8.99466 24.2624 9.17646 24.2624 9.39914C24.2634 9.62181 24.0859 9.80362 23.8602 9.80362ZM23.8602 7.53602H23.4377C23.2164 7.53602 23.0356 7.35423 23.0356 7.13154C23.0356 6.90887 23.2163 6.72706 23.4377 6.72706H23.8602C24.0859 6.72706 24.2624 6.90886 24.2624 7.13154C24.2634 7.35421 24.0859 7.53602 23.8602 7.53602Z" fill="#174289"/>
</svg>
