<svg width="35" height="34" viewBox="0 0 35 34" fill="none" xmlns="http://www.w3.org/2000/svg">
<g clip-path="url(#clip0_4133_32476)">
<path d="M16.7549 29C16.3129 28.9398 15.8708 28.8929 15.4355 28.8126C12.6963 28.3306 10.4058 27.0386 8.55062 24.9767C6.92316 23.1693 5.91855 21.0405 5.61047 18.6171C5.16175 15.0959 6.07929 11.9429 8.37649 9.22499C10.2785 6.98909 12.7097 5.61675 15.6096 5.16154C18.6034 4.68624 21.4029 5.29543 24.0015 6.82173C24.0617 6.8552 24.122 6.89537 24.2359 6.9757C24.3162 6.86859 24.3899 6.75479 24.477 6.66107C24.9324 6.19916 25.3878 5.73725 25.8566 5.28873C26.1647 4.98749 26.5398 4.92054 26.9416 5.0946C27.33 5.26195 27.5377 5.56989 27.5377 5.99163C27.5377 7.47108 27.5444 8.94383 27.5377 10.4233C27.5377 10.9454 27.1626 11.3404 26.6402 11.3939C26.5799 11.4006 26.513 11.4073 26.4527 11.4073C25.0529 11.4073 23.6532 11.4073 22.2534 11.4073C22.1128 11.4073 21.9722 11.3939 21.8382 11.3538C21.1484 11.1396 20.9073 10.2827 21.4029 9.74715C21.7578 9.35218 22.1463 8.99069 22.5213 8.61581C22.5816 8.55556 22.6419 8.49531 22.7423 8.3882C22.1999 8.1472 21.6909 7.88613 21.1618 7.69199C17.9403 6.54057 14.8528 6.79495 11.9797 8.68275C9.60211 10.2492 8.13538 12.4717 7.64647 15.2833C6.8227 20.0765 9.44137 24.6219 13.9889 26.3691C17.7997 27.8352 22.3271 26.6972 24.9927 23.6044C26.6067 21.7367 27.4573 19.5744 27.4841 17.1042C27.4908 16.1871 28.3347 15.7988 28.9642 16.1201C29.2388 16.2607 29.3727 16.5151 29.5 16.7695V17.7535C29.4866 17.8138 29.4665 17.874 29.4598 17.9343C29.3192 19.7752 28.7901 21.5024 27.8324 23.0822C25.9303 26.2152 23.171 28.1364 19.5611 28.8193C19.1258 28.8996 18.6837 28.9398 18.2417 29H16.7415H16.7549Z" fill="#174289"/>
<path d="M20.5388 9.08466C20.1503 9.49301 19.9226 9.94153 19.8757 10.4771C19.7753 11.6285 20.6928 12.7063 21.8514 12.7398C22.7824 12.7665 23.7133 12.7531 24.6375 12.7464C24.7983 12.7464 24.8853 12.7933 24.9657 12.9406C27.6915 17.8609 24.8318 24.1268 19.3265 25.305C14.6652 26.3024 10.1645 23.377 9.17332 18.7178C8.1955 14.1054 11.3031 9.49301 15.9511 8.65622C17.4379 8.38845 18.8912 8.49556 20.311 8.99763C20.378 9.01771 20.4383 9.04449 20.5388 9.08466ZM16.7547 13.5297C16.6878 13.5498 16.6275 13.5698 16.5672 13.5832C15.5827 13.8577 14.9598 14.7414 15.0134 15.7924C15.0603 16.7363 15.797 17.5597 16.7681 17.7136C17.1298 17.7672 17.4981 17.7471 17.8665 17.7605C18.2951 17.7739 18.5764 18.1287 18.4827 18.537C18.4157 18.8316 18.1612 19.0056 17.7861 19.0123C17.1097 19.0123 16.4266 19.0123 15.7501 19.0123C15.2679 19.019 14.9531 19.4006 15.0134 19.8692C15.0603 20.2374 15.3751 20.4985 15.7903 20.5052C16.1051 20.5119 16.4199 20.5052 16.748 20.5052C16.748 20.7863 16.7413 21.0273 16.748 21.2683C16.7614 21.6767 17.0896 21.9913 17.4848 22.0047C17.8866 22.0114 18.2282 21.6901 18.2416 21.2683C18.2483 21.0742 18.255 20.88 18.2416 20.6859C18.2282 20.5252 18.275 20.465 18.4425 20.4181C19.4136 20.1571 20.0365 19.2667 19.9829 18.2291C19.936 17.2718 19.1993 16.4484 18.2148 16.2944C17.8531 16.2409 17.4848 16.2677 17.1164 16.2543C16.6945 16.2342 16.4266 15.8861 16.5069 15.4844C16.5672 15.1899 16.8217 15.0024 17.1901 15.0024C17.8531 15.0024 18.5161 15.0024 19.1792 15.0024C19.4069 15.0024 19.6145 14.9422 19.7686 14.7748C19.9829 14.5472 20.0365 14.2794 19.9293 13.9916C19.8087 13.6703 19.5609 13.5163 19.2261 13.5029C18.9046 13.4962 18.5764 13.5029 18.2349 13.5029C18.2349 13.2351 18.2349 13.0075 18.2349 12.7732C18.2282 12.3381 17.9 12.0034 17.4848 12.0034C17.0695 12.0034 16.748 12.3314 16.7346 12.7732C16.7346 13.0142 16.7346 13.2552 16.7346 13.5297H16.7547Z" fill="#174289"/>
</g>
<defs>
<clipPath id="clip0_4133_32476">
<rect width="24" height="24" fill="white" transform="translate(5.5 5)"/>
</clipPath>
</defs>
</svg>
