<svg width="35" height="35" viewBox="0 0 35 35" fill="none" xmlns="http://www.w3.org/2000/svg">
<g clip-path="url(#clip0_3995_31509)">
<path d="M3.80469 9.32777C3.80469 9.32777 3.81275 9.3228 3.81476 9.31883C3.96184 8.95811 4.26103 8.8955 4.61361 8.8965C5.97961 8.90246 7.3446 8.89948 8.71061 8.89948C9.15486 8.89948 9.3523 9.05549 9.46009 9.4818C9.68877 10.3911 9.91845 11.2993 10.1491 12.2076C10.1904 12.3696 10.1945 12.3715 10.3305 12.2781C10.6307 12.0704 10.952 11.9124 11.3157 11.8459C11.4215 11.827 11.5272 11.829 11.633 11.829C16.2387 11.829 20.8434 11.8329 25.4492 11.825C26.4555 11.823 27.3632 12.5345 27.607 13.5282C27.6956 13.887 27.6533 14.2348 27.5999 14.5885C27.473 15.4233 27.3541 16.26 27.2302 17.0957C27.0902 18.0388 26.9471 18.9818 26.8071 19.9248C26.7436 20.3472 26.7134 20.7765 26.6147 21.1899C26.4062 22.0564 26.0264 22.8196 25.1419 23.2121C25.016 23.2677 25.0593 23.3194 25.1097 23.3959C25.9941 24.7365 25.2769 26.545 23.6429 26.9167C22.1107 27.2655 20.644 26.0114 20.7508 24.4642C20.7759 24.0915 20.917 23.7537 21.0802 23.4228C21.1638 23.2538 21.1618 23.2518 20.9774 23.2518C19.4482 23.2518 17.919 23.2518 16.3898 23.2518C16.2035 23.2518 16.2025 23.2518 16.2881 23.4218C16.4805 23.8043 16.6245 24.1998 16.6195 24.6341C16.6064 25.8464 15.6464 26.8839 14.4244 26.9912C13.3173 27.0876 12.2767 26.3592 11.9634 25.3009C11.7579 24.6063 11.8919 23.9763 12.2707 23.379C12.314 23.3105 12.314 23.2737 12.2334 23.2409C11.6078 22.9855 11.2421 22.4956 10.9802 21.9053C10.7918 21.482 10.6961 21.0388 10.6186 20.5857C10.5078 19.9328 10.3758 19.2839 10.2539 18.633C10.0293 17.4256 9.80462 16.2173 9.58098 15.0099C9.5014 14.5816 9.41879 14.1573 9.41375 13.717C9.41073 13.4179 9.28481 13.1317 9.21228 12.8396C8.98965 11.9472 8.76299 11.0559 8.5454 10.1625C8.51115 10.0214 8.45272 9.97965 8.30363 9.98065C7.01721 9.9876 5.7318 9.98065 4.44538 9.98661C4.11294 9.9876 3.92154 9.82165 3.8067 9.53546C3.8067 9.4659 3.8067 9.39634 3.8067 9.32578L3.80469 9.32777ZM18.5214 12.8942C16.2196 12.8942 13.9167 12.8942 11.6149 12.8942C11.3993 12.8942 11.1928 12.93 11.0125 13.0582C10.5843 13.3633 10.4332 13.7697 10.5309 14.2805C10.7475 15.4094 10.956 16.5402 11.1676 17.6701C11.3519 18.6549 11.5353 19.6396 11.7176 20.6244C11.8022 21.0795 11.9423 21.5108 12.2274 21.8874C12.3623 22.0653 12.5366 22.1697 12.7673 22.1697C13.0151 22.1697 13.2619 22.1687 13.5097 22.1687C17.1595 22.1687 20.8092 22.1697 24.4589 22.1736C24.7228 22.1736 24.9324 22.0842 25.0986 21.8894C25.3484 21.5953 25.5025 21.2535 25.567 20.8788C25.6456 20.4247 25.703 19.9656 25.7715 19.5095C25.8984 18.6608 26.0274 17.8132 26.1543 16.9655C26.2762 16.1517 26.3961 15.3378 26.516 14.524C26.5472 14.3133 26.6157 14.1056 26.5895 13.891C26.5301 13.401 26.1362 12.8853 25.4028 12.8903C23.11 12.9032 20.8162 12.8952 18.5224 12.8952L18.5214 12.8942Z" fill="white"/>
<path d="M26.2107 19.0363C29.3001 19.0363 31.8046 16.5657 31.8046 13.5181C31.8046 10.4706 29.3001 8 26.2107 8C23.1212 8 20.6167 10.4706 20.6167 13.5181C20.6167 16.5657 23.1212 19.0363 26.2107 19.0363Z" fill="white"/>
<path d="M24.2793 16.8006C24.1756 16.8006 24.0748 16.7599 24.0013 16.6874L22.8217 15.5237C22.6675 15.3727 22.6675 15.1262 22.8217 14.9752C22.9748 14.8231 23.2246 14.8231 23.3777 14.9752L24.2471 15.8328L28.6916 10.3524C28.8276 10.1864 29.0744 10.1576 29.2447 10.2917C29.4139 10.4259 29.4421 10.6694 29.3061 10.8373L24.5866 16.6566C24.5171 16.743 24.4123 16.7957 24.3015 16.8016C24.2944 16.8016 24.2874 16.8016 24.2793 16.8016V16.8006Z" fill="#174289"/>
</g>
<defs>
<clipPath id="clip0_3995_31509">
<rect width="28" height="19" fill="white" transform="translate(3.80469 8)"/>
</clipPath>
</defs>
</svg>
