<svg width="22" height="18" viewBox="0 0 22 18" fill="none" xmlns="http://www.w3.org/2000/svg">
<path d="M19.1243 16.0409C20.6139 14.9831 21.463 13.4576 21.463 11.8385C21.463 9.52854 19.7576 7.55683 17.3541 6.75807C17.0375 5.05261 15.9868 3.54864 14.4973 2.46923C13.0005 1.38983 11.0504 0.742188 8.92033 0.742188C4.19254 0.742188 0.364258 3.93723 0.364258 7.87345C0.364258 10.1258 1.62356 12.1119 3.56649 13.436C3.96227 13.7022 3.63845 14.3067 3.24986 14.8176C3.05557 15.0695 3.29304 15.4221 3.60247 15.3429C4.70346 15.0551 6.29378 14.6665 6.63919 14.7457C7.36599 14.9112 8.12877 15.0047 8.92033 15.0047C9.20098 15.0047 9.47443 14.9903 9.74068 14.9687C10.3236 15.6668 11.1007 16.2496 12.0002 16.6598C12.8997 17.07 13.9288 17.2931 15.0154 17.2931C15.5911 17.2931 16.1667 17.2283 16.692 17.106C17.0375 17.106 18.4623 17.4658 19.3618 17.7176L19.8871 17.8687C20.2253 17.9623 20.4628 17.5449 20.2109 17.3003L19.8151 16.9261C19.5057 16.631 19.2035 16.2424 19.1243 16.0481V16.0409ZM4.58833 9.13276C3.84713 9.13276 3.24986 8.53549 3.24986 7.7943C3.24986 7.05311 3.84713 6.45584 4.58833 6.45584C5.32952 6.45584 5.92679 7.0603 5.92679 7.7943C5.92679 8.52829 5.32952 9.13276 4.58833 9.13276ZM13.2595 6.45584C14.0007 6.45584 14.598 7.0603 14.598 7.7943C14.598 8.52829 13.9935 9.13276 13.2595 9.13276C12.5255 9.13276 11.9211 8.53549 11.9211 7.7943C11.9211 7.05311 12.5183 6.45584 13.2595 6.45584ZM8.92033 9.13276C8.17914 9.13276 7.58187 8.53549 7.58187 7.7943C7.58187 7.05311 8.17914 6.45584 8.92033 6.45584C9.66153 6.45584 10.2588 7.0603 10.2588 7.7943C10.2588 8.53549 9.66153 9.13276 8.92033 9.13276ZM18.1672 15.897C18.1528 16.0769 18.2032 16.264 18.2896 16.4511C17.6707 16.3 17.0087 16.1561 16.6992 16.1561L16.5121 16.1777C16.03 16.2928 15.5263 16.3432 15.0226 16.3432C13.3747 16.3432 11.8923 15.7387 10.8849 14.796C12.7774 14.429 14.4253 13.5367 15.5982 12.3206C16.7784 11.0973 17.4764 9.55013 17.4764 7.86626C17.4764 7.84467 17.4764 7.81589 17.4764 7.7943C19.2826 8.53549 20.5347 10.061 20.5347 11.8313C20.5347 13.1769 19.7935 14.4506 18.4982 15.3357C18.304 15.4653 18.1888 15.6668 18.1672 15.897Z" fill="white"/>
</svg>
