<svg width="35" height="34" viewBox="0 0 35 34" fill="none" xmlns="http://www.w3.org/2000/svg">
<g clip-path="url(#clip0_3995_31734)">
<g clip-path="url(#clip1_3995_31734)">
<path d="M25.5952 11.9851H24.1547C23.3486 11.9851 22.6602 12.4993 22.4015 13.2166C22.3327 12.8733 22.1983 12.5789 21.9993 12.3359C21.6659 11.9287 21.17 11.7048 20.6036 11.7048C20.3597 11.7048 20.0993 11.7454 19.8298 11.8267C18.7608 12.1485 17.6579 12.4868 16.5524 12.8335C15.2877 13.2299 14.64 14.1065 14.6276 15.4392C14.6226 15.9567 14.6184 16.5397 14.6242 17.131C13.9003 17.1525 13.2451 17.403 12.7094 17.855V13.8494C12.7094 12.8211 11.8734 11.9851 10.8459 11.9851H9.59863C11.2705 9.33049 14.2278 7.56738 17.5965 7.56738C20.9651 7.56738 23.9225 9.33049 25.5952 11.9851Z" fill="#003F8F"/>
<path d="M25.7277 21.8267C24.0824 24.6016 21.0571 26.4617 17.5964 26.4617C14.1357 26.4617 11.1112 24.6016 9.46582 21.8267H10.8458C11.3525 21.8267 11.8119 21.6235 12.1478 21.2943C12.2357 21.3996 12.3352 21.4991 12.4455 21.5895C12.9614 22.0108 13.5518 22.2248 14.202 22.2248C14.6191 22.2248 15.0562 22.1336 15.5032 21.9536C16.3391 21.6169 16.9138 20.9792 17.1394 20.1747C17.2671 20.363 17.4272 20.5322 17.6154 20.6781C18.1528 21.0944 18.7458 21.3051 19.3777 21.3051C19.8156 21.3051 20.2584 21.2006 20.6947 20.9958C21.5057 20.6143 22.0398 20.0868 22.2903 19.4209V19.9624C22.2903 20.9908 23.1262 21.8267 24.1545 21.8267H25.7277Z" fill="#003F8F"/>
<path d="M27.8502 12.2696C27.7689 12.2696 27.6918 12.224 27.6545 12.1461C26.7497 10.2519 25.3365 8.64889 23.5668 7.51025C21.7506 6.34175 19.6433 5.72391 17.473 5.72391C15.3027 5.72391 13.222 6.33429 11.4141 7.48868C9.65348 8.6124 8.24033 10.198 7.32809 12.0723C7.27585 12.1801 7.14565 12.2249 7.03867 12.1726C6.93086 12.1204 6.88607 11.9902 6.93832 11.8832C7.88539 9.9368 9.35244 8.29145 11.1811 7.12379C13.0594 5.92461 15.2347 5.29102 17.4739 5.29102C19.713 5.29102 21.9156 5.9329 23.8015 7.14618C25.6384 8.32794 27.1063 9.99237 28.0451 11.9595C28.0965 12.0673 28.0509 12.1967 27.9431 12.2481C27.9132 12.2622 27.8809 12.2696 27.8502 12.2696Z" fill="#003F8F"/>
<path d="M17.4737 28.7088C12.813 28.7088 8.59763 25.948 6.735 21.6746C6.6869 21.5651 6.73749 21.4374 6.84696 21.3893C6.95643 21.3412 7.08414 21.3918 7.13224 21.5013C8.92604 25.6163 12.9855 28.2751 17.4737 28.2751C21.9619 28.2751 25.9775 25.6428 27.7853 21.5684C27.8343 21.459 27.962 21.41 28.0715 21.4581C28.1809 21.5071 28.2299 21.6348 28.1818 21.7442C26.3042 25.9745 22.1013 28.708 17.4737 28.708V28.7088Z" fill="#003F8F"/>
<path d="M23.2832 20.0904C23.3653 20.0182 23.4507 19.9477 23.5303 19.8714C24.3306 19.1052 25.5257 17.8181 26.3143 17.041C26.5664 16.7922 26.7696 16.7416 27.0449 17.0004C27.2664 17.2077 27.5342 17.3636 27.7698 17.5577C27.9829 17.7343 28.1554 17.7376 28.3445 17.5187C28.6803 17.1297 29.0436 16.7649 29.372 16.3701C29.6075 16.0865 29.7717 16.0856 30.0081 16.3792C30.4501 16.9291 32.0332 18.7577 32.5225 19.3224L32.1435 20.4627L29.7253 20.6004L23.9408 20.5241L23.2832 20.092V20.0904ZM31.9445 20.3699L31.9594 19.6965L31.3557 19.043C30.8656 18.4699 30.3705 17.901 29.8812 17.328C29.7302 17.1505 29.6141 17.153 29.4599 17.3379C29.1514 17.7069 28.8089 18.0478 28.5078 18.4218C28.2939 18.6872 28.1048 18.7419 27.8311 18.5081C27.5508 18.2692 27.2423 18.0636 26.9512 17.8363C26.8061 17.7235 26.6726 17.6771 26.5333 17.8355C25.8118 18.6515 25.0903 19.4684 24.3688 20.2844L31.9437 20.3699H31.9445Z" fill="#003F8F"/>
<path d="M21.5458 18.4438C21.5516 19.3221 21.0349 19.8271 20.3076 20.1696C19.5604 20.5212 18.8265 20.4607 18.1755 19.9557C17.4871 19.4224 17.527 18.4355 18.2418 17.7638C18.8514 17.1916 19.5911 17.029 20.3872 17.2065C20.7422 17.2853 20.8458 17.2223 20.8318 16.8615C20.8102 16.3166 20.8177 15.7701 20.8301 15.2244C20.8376 14.8836 20.7455 14.7559 20.3781 14.8753C19.1872 15.2618 17.9905 15.6292 16.793 15.9916C16.4538 16.0944 16.2946 16.2702 16.3062 16.6451C16.3336 17.5432 16.3162 18.443 16.3336 19.342C16.3485 20.1215 15.9463 20.7916 15.1634 21.1076C14.427 21.4045 13.6798 21.4186 13.0255 20.8828C12.5071 20.4582 12.4143 19.7243 12.7916 19.1371C13.319 18.3161 14.0978 17.9512 15.0506 18.0615C15.4752 18.1104 15.5515 17.9778 15.5449 17.6153C15.5308 16.893 15.535 16.1707 15.5416 15.4484C15.5499 14.517 15.9421 13.983 16.827 13.7052C17.9142 13.3643 19.0031 13.0293 20.0945 12.7017C20.9984 12.4297 21.5383 12.8311 21.545 13.774L21.5466 18.4463L21.5458 18.4438ZM20.4834 13.3602C20.4486 13.3676 20.3997 13.3734 20.3541 13.3875C19.2046 13.7383 17.9134 14.158 16.7656 14.5146C16.5641 14.5776 16.4339 14.6149 16.3178 14.7982C16.2382 14.9242 16.2647 15.0801 16.3593 15.2087C16.4356 15.3132 16.6006 15.29 16.7217 15.2535C17.3503 15.0611 17.9781 14.8678 18.6051 14.6721C19.2478 14.4714 19.8888 14.2658 20.5324 14.0676C20.7803 13.9913 20.8517 13.8221 20.8085 13.5857C20.777 13.4141 20.6626 13.3486 20.4834 13.3602ZM19.3067 19.653C19.8183 19.604 20.2628 19.4854 20.5854 19.104C21.0291 18.579 20.8376 18.0151 20.1691 17.8923C19.674 17.8019 19.2138 17.8957 18.8174 18.2282C18.5246 18.4737 18.3529 18.7731 18.4856 19.157C18.6233 19.5559 18.9907 19.6015 19.3067 19.6538V19.653ZM14.1566 20.5436C14.4519 20.5503 14.6542 20.5113 14.8483 20.4325C15.4048 20.2078 15.7166 19.7143 15.5673 19.2964C15.3923 18.8062 14.9097 18.6362 14.2835 18.8568C14.0895 18.9248 13.8954 18.9961 13.7362 19.1404C13.4459 19.4025 13.2328 19.7102 13.3663 20.1066C13.5015 20.5096 13.8888 20.5179 14.1566 20.5436Z" fill="#003F8F"/>
<path d="M5.40622 16.9609C5.40622 16.3845 5.40207 15.8073 5.40788 15.231C5.4112 14.9324 5.46593 14.643 5.7819 14.512C6.07962 14.3892 6.30353 14.5625 6.51666 14.7408C7.20416 15.3156 7.8958 15.887 8.57915 16.4675C8.96727 16.7967 8.96893 17.0953 8.5833 17.4203C7.88502 18.0083 7.18011 18.5872 6.4752 19.1669C6.25792 19.3452 6.02488 19.4911 5.73214 19.3402C5.44769 19.1934 5.40622 18.9255 5.40539 18.6427C5.40539 18.0821 5.40539 17.5215 5.40622 16.9609ZM6.15426 18.486C6.76131 17.9868 7.30119 17.5447 7.83775 17.0994C7.96298 16.9949 7.95883 16.8771 7.83609 16.7751C7.30119 16.329 6.7638 15.8861 6.15426 15.3811V18.486Z" fill="#003F8F"/>
<path d="M25.4268 16.619C25.4201 16.619 25.4135 16.619 25.4069 16.619C24.7807 16.6082 24.2326 16.0576 24.2334 15.4406C24.2334 15.1321 24.3669 14.8261 24.5983 14.6013C24.8305 14.3757 25.1415 14.2513 25.4525 14.2613C26.0911 14.2795 26.6019 14.8186 26.5911 15.4621C26.5861 15.7748 26.4601 16.0675 26.237 16.2865C26.0181 16.5013 25.7311 16.619 25.4268 16.619ZM25.4193 14.8468C25.2709 14.8468 25.1208 14.9098 25.0055 15.0218C24.8869 15.1362 24.8189 15.2888 24.8189 15.4406C24.8189 15.7391 25.1092 16.0269 25.416 16.0319C25.5669 16.0327 25.7145 15.9763 25.8257 15.8668C25.9385 15.7565 26.0015 15.6089 26.004 15.4514C26.0098 15.1213 25.7593 14.8559 25.4342 14.8468C25.4293 14.8468 25.4243 14.8468 25.4193 14.8468Z" fill="#003F8F"/>
<path d="M10.8458 20.9144H3.3124C2.78745 20.9144 2.36035 20.4873 2.36035 19.9632V13.8495C2.36035 13.3246 2.78745 12.8975 3.3124 12.8975H10.8458C11.3708 12.8975 11.7979 13.3246 11.7979 13.8495V19.9632C11.7979 20.4881 11.3708 20.9144 10.8458 20.9144ZM3.3124 13.7035C3.23195 13.7035 3.16727 13.7691 3.16727 13.8487V19.9623C3.16727 20.0428 3.23278 20.1075 3.3124 20.1075H10.8458C10.9263 20.1075 10.991 20.042 10.991 19.9623V13.8487C10.991 13.7682 10.9255 13.7035 10.8458 13.7035H3.3124Z" fill="#003F8F"/>
<path d="M31.6878 20.9144H24.1543C23.6294 20.9144 23.2031 20.4873 23.2031 19.9632V13.8495C23.2031 13.3246 23.6302 12.8975 24.1543 12.8975H31.6878C32.2127 12.8975 32.639 13.3246 32.639 13.8495V19.9632C32.639 20.4881 32.2119 20.9144 31.6878 20.9144ZM24.1543 13.7035C24.0739 13.7035 24.0092 13.7691 24.0092 13.8487V19.9623C24.0092 20.0428 24.0747 20.1075 24.1543 20.1075H31.6878C31.7682 20.1075 31.8329 20.042 31.8329 19.9623V13.8487C31.8329 13.7682 31.7674 13.7035 31.6878 13.7035H24.1543Z" fill="#003F8F"/>
</g>
</g>
<defs>
<clipPath id="clip0_3995_31734">
<rect width="34" height="34" fill="white" transform="translate(0.5)"/>
</clipPath>
<clipPath id="clip1_3995_31734">
<rect width="34" height="34" fill="white" transform="translate(0.5)"/>
</clipPath>
</defs>
</svg>
