<svg width="42" height="40" viewBox="0 0 42 40" fill="none" xmlns="http://www.w3.org/2000/svg">
<path d="M13.8508 10.7032V5.93426H15.185V7.28725L14.9963 6.89877C15.1446 6.56387 15.3736 6.30934 15.6836 6.1352C15.9936 5.96105 16.3844 5.86728 16.8291 5.86728V7.13989C16.8291 7.13989 16.7213 7.13989 16.6674 7.13989C16.6135 7.13989 16.573 7.13989 16.5191 7.13989C16.1418 7.13989 15.8318 7.24706 15.5893 7.47479C15.3602 7.68913 15.2389 8.02402 15.2389 8.47949V10.73H13.8508V10.7032ZM18.4328 12.4849C18.1902 12.4849 17.9341 12.4447 17.6916 12.3643C17.449 12.2839 17.2469 12.1768 17.0986 12.0428L17.6107 11.0649C17.7185 11.1587 17.8398 11.2391 17.9746 11.2926C18.1228 11.3462 18.2576 11.373 18.3923 11.373C18.5945 11.373 18.7427 11.3194 18.8505 11.2257C18.9718 11.1319 19.0796 10.9845 19.174 10.7702L19.43 10.1808L19.5378 10.0334L21.2628 5.92086H22.5969L20.4273 10.9845C20.279 11.373 20.0903 11.6677 19.8882 11.8821C19.6861 12.0964 19.4704 12.2571 19.2279 12.3375C18.9853 12.4313 18.7292 12.4715 18.4328 12.4715V12.4849ZM19.2548 10.8908L17.1121 5.93426H18.5541L20.2116 9.92625L19.2548 10.8908ZM25.9795 10.7702C25.5752 10.7702 25.2248 10.6764 24.9149 10.5023C24.6184 10.3281 24.3758 10.0602 24.2006 9.69852C24.0389 9.33683 23.9446 8.86797 23.9446 8.31874C23.9446 7.7695 24.0254 7.30064 24.1871 6.93895C24.3489 6.57726 24.5779 6.30934 24.8879 6.1352C25.1844 5.96105 25.5482 5.86728 25.9795 5.86728C26.4242 5.86728 26.8285 5.97444 27.1923 6.17538C27.5562 6.37632 27.8392 6.65764 28.0414 7.03272C28.257 7.39442 28.3648 7.83648 28.3648 8.33213C28.3648 8.82778 28.257 9.26985 28.0414 9.63154C27.8392 9.99323 27.5427 10.2745 27.1923 10.4755C26.842 10.6764 26.4377 10.7702 25.9795 10.7702ZM23.1495 12.4179V5.93426H24.4836V6.91216L24.4567 8.33213L24.551 9.73871V12.4179H23.1629H23.1495ZM25.7369 9.63154C25.966 9.63154 26.1681 9.57796 26.3568 9.47079C26.5455 9.36362 26.6802 9.21626 26.7881 9.01533C26.8959 8.81439 26.9633 8.57326 26.9633 8.30534C26.9633 8.03742 26.9093 7.79629 26.7881 7.59535C26.6802 7.39442 26.532 7.24706 26.3568 7.13989C26.1816 7.03272 25.9795 6.97914 25.7369 6.97914C25.4943 6.97914 25.2922 7.03272 25.117 7.13989C24.9283 7.24706 24.7936 7.39442 24.6858 7.59535C24.5779 7.79629 24.524 8.02402 24.524 8.30534C24.524 8.58665 24.5779 8.81439 24.6858 9.01533C24.7936 9.21626 24.9418 9.36362 25.117 9.47079C25.3057 9.57796 25.5078 9.63154 25.7369 9.63154ZM31.2622 10.7702C30.6962 10.7702 30.2515 10.6228 29.9415 10.3415C29.6316 10.0468 29.4698 9.61814 29.4698 9.05551V4.87598H30.8579V9.04212C30.8579 9.24306 30.9118 9.40381 31.0196 9.51098C31.1274 9.61814 31.2757 9.67173 31.4509 9.67173C31.6665 9.67173 31.8551 9.61814 32.0169 9.49758L32.3942 10.4755C32.246 10.5693 32.0842 10.6496 31.8821 10.7032C31.6799 10.7568 31.4778 10.7702 31.2622 10.7702ZM28.7286 7.0997V6.04142H32.0573V7.0997H28.7286ZM35.3051 10.7702C34.793 10.7702 34.3348 10.663 33.944 10.4487C33.5532 10.2344 33.2432 9.95304 33.0141 9.57796C32.785 9.20287 32.6772 8.78759 32.6772 8.30534C32.6772 7.82309 32.785 7.40781 33.0141 7.03272C33.2432 6.65764 33.5532 6.37632 33.944 6.16199C34.3483 5.94765 34.793 5.84049 35.3051 5.84049C35.8172 5.84049 36.2619 5.94765 36.6527 6.16199C37.057 6.36293 37.3669 6.65764 37.5826 7.01933C37.8117 7.38102 37.9195 7.80969 37.9195 8.29194C37.9195 8.7742 37.8117 9.18947 37.5826 9.56456C37.3535 9.92625 37.0435 10.221 36.6527 10.4353C36.2484 10.6496 35.8037 10.7568 35.3051 10.7568V10.7702ZM35.3051 9.63154C35.5342 9.63154 35.7498 9.57796 35.925 9.47079C36.1136 9.36362 36.2484 9.21626 36.3562 9.01533C36.464 8.81439 36.5179 8.57326 36.5179 8.30534C36.5179 8.03742 36.464 7.79629 36.3562 7.59535C36.2484 7.39442 36.1002 7.24706 35.925 7.13989C35.7363 7.03272 35.5342 6.97914 35.3051 6.97914C35.076 6.97914 34.8604 7.03272 34.6852 7.13989C34.4965 7.24706 34.3483 7.39442 34.2404 7.59535C34.1326 7.79629 34.0787 8.02402 34.0787 8.30534C34.0787 8.58665 34.1326 8.81439 34.2404 9.01533C34.3483 9.21626 34.4965 9.36362 34.6852 9.47079C34.8738 9.57796 35.076 9.63154 35.3051 9.63154Z" fill="#EAA700"/>
<path d="M9.0531 13.8242C8.20409 13.8242 7.42247 13.6902 6.69475 13.4089C5.98051 13.1276 5.34712 12.7257 4.80807 12.2301C4.2825 11.721 3.86473 11.1182 3.56825 10.4216C3.27177 9.72502 3.12354 8.97485 3.12354 8.1577C3.12354 7.34055 3.27177 6.57698 3.56825 5.89378C3.86473 5.19719 4.2825 4.60777 4.82155 4.09872C5.3606 3.58968 5.99398 3.1878 6.70823 2.91988C7.42247 2.63857 8.21757 2.49121 9.06657 2.49121C9.96949 2.49121 10.805 2.65196 11.5597 2.96007C12.3144 3.26818 12.9477 3.72364 13.4598 4.32646L12.1257 5.57228C11.7214 5.14361 11.2767 4.82211 10.7781 4.60777C10.2794 4.39344 9.74039 4.27287 9.16091 4.27287C8.58143 4.27287 8.04238 4.36664 7.55723 4.55419C7.08556 4.74173 6.6678 5.00965 6.30394 5.35794C5.95355 5.70624 5.68403 6.10812 5.48188 6.59037C5.29322 7.05923 5.19888 7.58167 5.19888 8.1443C5.19888 8.70693 5.29322 9.22937 5.48188 9.69823C5.68403 10.1671 5.95355 10.5824 6.30394 10.9307C6.6678 11.279 7.08556 11.5469 7.55723 11.7344C8.04238 11.922 8.58143 12.0157 9.16091 12.0157C9.74039 12.0157 10.2794 11.9086 10.7781 11.6942C11.2767 11.4799 11.7214 11.145 12.1257 10.7029L13.4598 11.9621C12.9477 12.565 12.3144 13.0204 11.5597 13.3285C10.805 13.65 9.96949 13.7974 9.0531 13.7974V13.8242Z" fill="#EAA700"/>
<path d="M8.33899 0.589422C8.33899 0.263893 8.07351 0 7.74603 0C7.41855 0 7.15308 0.263893 7.15308 0.589422V2.50504C7.15308 2.83057 7.41855 3.09446 7.74603 3.09446C8.07351 3.09446 8.33899 2.83057 8.33899 2.50504V0.589422Z" fill="#EAA700"/>
<path d="M10.5218 0.589422C10.5218 0.263893 10.2564 0 9.92889 0C9.60141 0 9.33594 0.263893 9.33594 0.589422V2.50504C9.33594 2.83057 9.60141 3.09446 9.92889 3.09446C10.2564 3.09446 10.5218 2.83057 10.5218 2.50504V0.589422Z" fill="#EAA700"/>
<path d="M8.33899 13.2759C8.33899 12.9504 8.07351 12.6865 7.74603 12.6865C7.41855 12.6865 7.15308 12.9504 7.15308 13.2759V15.1916C7.15308 15.5171 7.41855 15.781 7.74603 15.781C8.07351 15.781 8.33899 15.5171 8.33899 15.1916V13.2759Z" fill="#EAA700"/>
<path d="M10.5218 13.2759C10.5218 12.9504 10.2564 12.6865 9.92889 12.6865C9.60141 12.6865 9.33594 12.9504 9.33594 13.2759V15.1916C9.33594 15.5171 9.60141 15.781 9.92889 15.781C10.2564 15.781 10.5218 15.5171 10.5218 15.1916V13.2759Z" fill="#EAA700"/>
<path d="M20.5296 38.164C26.8262 38.164 31.9305 33.09 31.9305 26.831C31.9305 20.572 26.8262 15.498 20.5296 15.498C14.233 15.498 9.12866 20.572 9.12866 26.831C9.12866 33.09 14.233 38.164 20.5296 38.164Z" fill="url(#paint0_linear_4028_32371)"/>
<path d="M31.2048 30.2517C33.1083 24.3865 29.8682 18.098 23.9678 16.2058C18.0675 14.3137 11.7412 17.5345 9.83769 23.3997C7.9342 29.2649 11.1743 35.5534 17.0747 37.4456C22.975 39.3377 29.3013 36.1169 31.2048 30.2517Z" fill="url(#paint1_linear_4028_32371)"/>
<path d="M20.5293 37.6819C26.5579 37.6819 31.4451 32.8239 31.4451 26.8312C31.4451 20.8385 26.5579 15.9805 20.5293 15.9805C14.5007 15.9805 9.61353 20.8385 9.61353 26.8312C9.61353 32.8239 14.5007 37.6819 20.5293 37.6819Z" fill="url(#paint2_linear_4028_32371)"/>
<path d="M20.5296 37.5741C26.4838 37.5741 31.3106 32.7761 31.3106 26.8574C31.3106 20.9387 26.4838 16.1406 20.5296 16.1406C14.5754 16.1406 9.74854 20.9387 9.74854 26.8574C9.74854 32.7761 14.5754 37.5741 20.5296 37.5741Z" fill="#010101"/>
<path d="M28.4402 30.2591C27.0522 33.3 23.8987 35.43 20.5027 35.43C15.7321 35.43 11.8509 31.5719 11.8509 26.8298H11.9587C11.9587 31.5184 15.786 35.3228 20.5027 35.3228C23.9122 35.3228 27.0387 33.2598 28.3728 30.152M28.9793 29.8841C27.6855 33.4072 24.2895 35.7783 20.5027 35.7783C15.5299 35.7783 11.4871 31.7595 11.4871 26.8164C11.4871 21.8733 15.5299 17.8545 20.5027 17.8545C24.3434 17.8545 27.7529 20.2792 29.0197 23.8827L29.0467 23.9496H28.5615V23.9095C27.3217 20.5605 24.1009 18.31 20.5162 18.31C16.0555 18.31 12.3765 21.7259 11.9992 26.0662H11.8913C12.2687 21.6723 15.9881 18.2162 20.5162 18.2162C24.1278 18.2162 27.3891 20.4801 28.6424 23.8425H28.9119C27.6451 20.3193 24.2895 17.9617 20.5162 17.9617C15.6108 17.9617 11.6083 21.9269 11.6083 26.8164C11.6083 31.7059 15.5973 35.6711 20.5162 35.6711C24.2221 35.6711 27.5643 33.3536 28.858 29.9108M30.1652 28.7052H29.8552V28.598H30.1652V28.7052ZM20.5027 34.72C16.1229 34.72 12.5652 31.1835 12.5652 26.8298C12.5652 22.4761 16.1229 18.9396 20.5027 18.9396C24.047 18.9396 27.1869 21.2973 28.1437 24.6864L28.4941 24.9543H30.1517V25.0615H28.4537L28.0359 24.7534C27.0926 21.391 23.993 19.0467 20.4892 19.0467C16.1768 19.0467 12.6595 22.5431 12.6595 26.8298C12.6595 31.1165 16.1768 34.6128 20.4892 34.6128C23.993 34.6128 27.0926 32.2685 28.0359 28.9195L28.1842 28.7856L28.2516 28.866L28.1168 28.9731C27.16 32.3623 24.02 34.72 20.4757 34.72H20.5027ZM28.3055 29.308L28.7097 28.9999H30.0709V29.1071H28.7502L28.3998 29.3616M28.2246 29.8573C26.9848 33.0053 23.9526 35.0817 20.5027 35.0817C15.9342 35.0817 12.2148 31.3844 12.2148 26.8432C12.2148 22.3019 15.9342 18.6047 20.5027 18.6047C24.1143 18.6047 27.2947 20.8954 28.3998 24.3247L28.7502 24.5793H30.0709V24.6864H28.7097L28.3055 24.3917C27.2139 20.9891 24.0874 18.7118 20.5027 18.7118C15.9881 18.7118 12.3091 22.3689 12.3091 26.8566C12.3091 31.3442 15.9881 35.0013 20.5027 35.0013C23.8987 35.0013 26.9039 32.9517 28.1303 29.8305M14.1823 26.6824H13.3872L12.956 26.2136V26.1868C13.239 22.8646 15.7321 20.0916 19.0203 19.4352H19.0877V22.0206H18.9799V19.5424C15.7725 20.1988 13.3468 22.9182 13.0638 26.16L13.4276 26.5619H14.1688V26.669L14.1823 26.6824ZM29.4375 26.2805H27.6182L27.2004 25.9189C26.7826 22.9583 24.4378 20.6275 21.4865 20.1988V22.0474H21.3786V20.0782H21.4326C24.4512 20.4935 26.8635 22.8646 27.2947 25.8653L27.6586 26.1868H29.4375V26.2939V26.2805ZM21.1765 19.9711V22.034H21.0687V19.9711H21.1765ZM29.0332 25.8787H27.9146L27.4969 25.5304C26.9309 22.5029 24.4512 20.1988 21.4326 19.8103L21.1226 19.6763C21.2304 19.6763 21.3382 19.7031 21.4595 19.7165C24.5186 20.1184 27.0117 22.4493 27.5912 25.4768L27.9551 25.7715H29.0332M20.8666 19.8773V22.034H20.7587V19.8907L20.8666 19.8773ZM21.473 19.3682C24.5725 19.7567 27.1465 22.034 27.8742 25.0883L28.2381 25.3696H29.4509V25.4768H28.2111L27.7934 25.1553C27.0791 22.1144 24.5321 19.8639 21.473 19.4754V19.3682ZM30.3134 27.4862H29.8552V27.379H30.3134V27.4862ZM30.2326 28.3033H29.8552V28.1962H30.2326V28.3033ZM20.8666 34.2511C24.1817 34.0904 27.0117 31.7461 27.7799 28.5311L28.1707 28.1962L28.2381 28.2765L27.8742 28.5713C27.0926 31.8399 24.1952 34.2109 20.8126 34.3449L20.8666 34.2377V34.2511ZM30.2865 27.8881H29.8552V27.7809H30.2865V27.8881ZM21.446 33.8359C24.4647 33.434 26.9174 31.1433 27.4969 28.156L27.9146 27.7943H28.2111V27.9015H27.9551L27.5912 28.1962C27.0117 31.2237 24.5186 33.5412 21.473 33.943M21.0687 33.5813V31.5853H21.1765V33.5813M19.0877 34.2243H19.0203C15.7321 33.5679 13.239 30.7816 12.956 27.4594V27.4326L13.3872 26.9637H14.1823V27.0709H13.4411L13.0773 27.4728C13.3603 30.7146 15.786 33.434 18.9933 34.0904V31.5853H19.1012V34.2243H19.0877Z" fill="url(#paint3_linear_4028_32371)"/>
<path d="M20.0175 20.0518H19.438V20.1455H20.0175V20.0518Z" fill="url(#paint4_linear_4028_32371)"/>
<path d="M20.0175 20.374H19.438V20.4678H20.0175V20.374Z" fill="url(#paint5_linear_4028_32371)"/>
<path d="M20.0175 20.5742H19.438V20.668H20.0175V20.5742Z" fill="url(#paint6_linear_4028_32371)"/>
<path d="M20.0175 33.4883H19.438V33.5821H20.0175V33.4883Z" fill="url(#paint7_linear_4028_32371)"/>
<path d="M20.0175 33.1797H19.438V33.2735H20.0175V33.1797Z" fill="url(#paint8_linear_4028_32371)"/>
<path d="M20.0175 32.9658H19.438V33.0596H20.0175V32.9658Z" fill="url(#paint9_linear_4028_32371)"/>
<path d="M20.2735 20.334H19.7345C19.6824 20.334 19.6401 20.376 19.6401 20.4278V20.6153C19.6401 20.6671 19.6824 20.7091 19.7345 20.7091H20.2735C20.3256 20.7091 20.3679 20.6671 20.3679 20.6153V20.4278C20.3679 20.376 20.3256 20.334 20.2735 20.334Z" fill="url(#paint10_linear_4028_32371)"/>
<path d="M20.2735 32.9385H19.7345C19.6824 32.9385 19.6401 32.9805 19.6401 33.0322V33.2198C19.6401 33.2716 19.6824 33.3136 19.7345 33.3136H20.2735C20.3256 33.3136 20.3679 33.2716 20.3679 33.2198V33.0322C20.3679 32.9805 20.3256 32.9385 20.2735 32.9385Z" fill="url(#paint11_linear_4028_32371)"/>
<path d="M29.9088 28.8814H28.1704V27.2471H29.9088V28.8814ZM28.2647 28.7742H29.801V27.3408H28.2647V28.7742Z" fill="url(#paint12_linear_4028_32371)"/>
<path d="M28.6079 27.2617L28.1685 27.6963L28.2445 27.7723L28.684 27.3377L28.6079 27.2617Z" fill="url(#paint13_linear_4028_32371)"/>
<path d="M29.8197 28.3585L29.3801 28.793L29.4561 28.869L29.8957 28.4344L29.8197 28.3585Z" fill="url(#paint14_linear_4028_32371)"/>
<path d="M29.8181 27.8911L28.9128 28.791L28.9891 28.8668L29.8943 27.9669L29.8181 27.8911Z" fill="url(#paint15_linear_4028_32371)"/>
<path d="M29.8075 27.4267L28.4448 28.7812L28.5211 28.857L29.8837 27.5025L29.8075 27.4267Z" fill="url(#paint16_linear_4028_32371)"/>
<path d="M29.5375 27.2607L28.1748 28.6152L28.251 28.691L29.6137 27.3365L29.5375 27.2607Z" fill="url(#paint17_linear_4028_32371)"/>
<path d="M28.2515 28.2253L28.1707 28.1583L29.0736 27.2607L29.1544 27.3277L28.2515 28.2253Z" fill="url(#paint18_linear_4028_32371)"/>
<path d="M20.543 36.6633C15.0851 36.6633 10.6514 32.256 10.6514 26.8307C10.6514 21.4053 15.0851 16.998 20.543 16.998C26.0008 16.998 30.4345 21.4053 30.4345 26.8307C30.4345 32.256 26.0008 36.6633 20.543 36.6633ZM20.543 17.1052C15.1524 17.1052 10.7592 21.4723 10.7592 26.8307C10.7592 32.1891 15.1524 36.5561 20.543 36.5561C25.9335 36.5561 30.3267 32.1891 30.3267 26.8307C30.3267 21.4723 25.9335 17.1052 20.543 17.1052Z" fill="url(#paint19_linear_4028_32371)"/>
<path d="M19.9771 36.8373C19.802 36.8373 19.6268 36.8106 19.4381 36.7972C19.2899 36.7838 19.1955 36.6498 19.209 36.5158C19.2225 36.3685 19.3572 36.2747 19.492 36.2881C19.8289 36.3283 20.1793 36.3417 20.5297 36.3417C20.6779 36.3417 20.7857 36.4623 20.7857 36.5962C20.7857 36.7436 20.6644 36.8507 20.5297 36.8507C20.341 36.8507 20.1658 36.8507 19.9771 36.8373ZM18.4139 36.623C18.4139 36.623 18.3869 36.623 18.3735 36.623C18.0231 36.5426 17.6727 36.4489 17.3223 36.3283C17.1876 36.2881 17.1067 36.1408 17.1606 35.9934C17.201 35.8594 17.3493 35.7791 17.4975 35.8326C17.8209 35.9398 18.1578 36.0336 18.4948 36.1006C18.6295 36.1274 18.7239 36.2747 18.6969 36.4087C18.6699 36.5292 18.5487 36.623 18.4274 36.6096L18.4139 36.623ZM21.5808 36.7972C21.4595 36.7972 21.3517 36.69 21.3382 36.5694C21.3248 36.4221 21.4326 36.3015 21.5673 36.2881C21.9043 36.2479 22.2546 36.1943 22.5915 36.1274C22.7398 36.1006 22.8745 36.1809 22.9015 36.3283C22.9284 36.4623 22.8476 36.6096 22.6994 36.6364C22.349 36.7168 21.9851 36.7704 21.6212 36.8106C21.6078 36.8106 21.5943 36.8106 21.5808 36.8106V36.7972ZM16.4059 35.9532C16.4059 35.9532 16.3385 35.9532 16.3116 35.9264C15.9882 35.7791 15.6647 35.6049 15.3548 35.4174C15.2335 35.337 15.1931 35.1896 15.2604 35.0557C15.3413 34.9351 15.4895 34.8949 15.6243 34.9619C15.9208 35.1361 16.2307 35.2968 16.5407 35.4442C16.6755 35.5111 16.7294 35.6585 16.662 35.7925C16.6216 35.8862 16.5137 35.9532 16.4059 35.9398V35.9532ZM23.6562 36.3417C23.5484 36.3417 23.454 36.2747 23.4271 36.1675C23.3866 36.0336 23.454 35.8862 23.5888 35.8326C23.9122 35.7255 24.2356 35.5915 24.5456 35.4576C24.6804 35.3906 24.8286 35.4576 24.896 35.5781C24.9499 35.7121 24.896 35.8594 24.7747 35.9264C24.4513 36.0738 24.1009 36.2077 23.764 36.3283C23.737 36.3283 23.6966 36.3417 23.6696 36.3283L23.6562 36.3417ZM14.5866 34.8547C14.5866 34.8547 14.4923 34.8413 14.4384 34.8012C14.1554 34.5868 13.8724 34.3457 13.6029 34.1046C13.4951 34.0108 13.4951 33.8367 13.6029 33.7429C13.6972 33.6357 13.8724 33.6357 13.9667 33.7429C14.2228 33.984 14.4788 34.1983 14.7483 34.4127C14.8696 34.4931 14.8831 34.6672 14.8023 34.7744C14.7483 34.8413 14.6675 34.8815 14.5732 34.8815L14.5866 34.8547ZM25.5698 35.4576C25.4889 35.4576 25.4081 35.404 25.3542 35.337C25.2733 35.2164 25.3138 35.0557 25.4485 34.9753C25.745 34.8012 26.028 34.6002 26.2975 34.3993C26.4188 34.3189 26.5805 34.3323 26.6614 34.4529C26.7422 34.5734 26.7288 34.7342 26.6075 34.8146C26.3245 35.0289 26.0145 35.2298 25.7046 35.4174C25.6641 35.4442 25.6102 35.4576 25.5563 35.4576H25.5698ZM13.0503 33.408C12.983 33.408 12.9156 33.3678 12.8617 33.3142C12.6326 33.0463 12.4035 32.7516 12.2013 32.4569C12.1205 32.3363 12.1474 32.1756 12.2687 32.0952C12.39 32.0148 12.5517 32.0416 12.6326 32.1622C12.8212 32.4435 13.0369 32.7248 13.2525 32.9793C13.3468 33.0865 13.3333 33.2472 13.2255 33.341C13.1716 33.3812 13.1042 33.408 13.0369 33.408H13.0503ZM27.2678 34.1849C27.2678 34.1849 27.1465 34.1582 27.0926 34.1046C26.9983 33.9974 26.9983 33.8367 27.0926 33.7429C27.3487 33.5018 27.5778 33.2606 27.8069 32.9927C27.9012 32.8855 28.0629 32.8721 28.1707 32.9659C28.2785 33.0597 28.292 33.2204 28.1977 33.3276C27.9686 33.5955 27.7125 33.8634 27.443 34.118C27.3891 34.1716 27.3217 34.1983 27.2543 34.1849H27.2678ZM11.8644 31.6665C11.7701 31.6665 11.6892 31.6129 11.6488 31.5325C11.4736 31.211 11.3254 30.8895 11.1906 30.5546C11.1367 30.4207 11.1906 30.2733 11.3388 30.2197C11.4736 30.1662 11.6219 30.2197 11.6758 30.3671C11.797 30.6886 11.9453 30.9967 12.107 31.3048C12.1744 31.4254 12.1205 31.5861 11.9992 31.6531C11.9588 31.6799 11.9049 31.6799 11.8644 31.6799V31.6665ZM28.6424 32.5774C28.6424 32.5774 28.5481 32.564 28.5076 32.5372C28.3863 32.4569 28.3594 32.2961 28.4402 32.1756C28.6289 31.8942 28.8176 31.5995 28.9793 31.2914C29.0467 31.1709 29.2084 31.1173 29.3297 31.1843C29.451 31.2512 29.5049 31.412 29.4375 31.5325C29.2623 31.8541 29.0736 32.1622 28.8715 32.4569C28.8176 32.5372 28.7232 32.5774 28.6424 32.564V32.5774ZM11.0693 29.7107C10.9615 29.7107 10.8672 29.6303 10.8268 29.5232C10.7324 29.1749 10.6516 28.8266 10.5977 28.4649C10.5707 28.3175 10.665 28.1836 10.8133 28.1702C10.9615 28.1434 11.0963 28.2371 11.1098 28.3845C11.1637 28.7194 11.2445 29.0543 11.3254 29.3892C11.3658 29.5232 11.2849 29.6705 11.1502 29.7107C11.1232 29.7107 11.0963 29.7107 11.0693 29.7107ZM29.6396 30.7154C29.6396 30.7154 29.5857 30.7154 29.5588 30.702C29.424 30.6484 29.3566 30.5011 29.4105 30.3671C29.5318 30.0456 29.6531 29.7241 29.7474 29.3892C29.7879 29.2552 29.9361 29.1749 30.0709 29.215C30.2056 29.2552 30.2865 29.4026 30.2461 29.5366C30.1517 29.8848 30.0304 30.2331 29.8957 30.568C29.8553 30.6752 29.7474 30.7422 29.6396 30.7288V30.7154ZM10.7324 27.6343C10.5977 27.6343 10.4898 27.5272 10.4898 27.3932C10.4764 27.0315 10.4764 26.6698 10.4898 26.3081C10.4898 26.1608 10.6246 26.0536 10.7594 26.067C10.9076 26.0804 11.0154 26.201 11.0019 26.3349C10.9885 26.6698 10.9885 27.0181 11.0019 27.3664C11.0019 27.5138 10.8941 27.6343 10.7594 27.6343C10.7594 27.6343 10.7459 27.6343 10.7324 27.6343ZM10.8402 25.5312C10.8402 25.5312 10.8268 25.5312 10.8133 25.5312C10.665 25.5044 10.5707 25.3704 10.5977 25.2365C10.6516 24.8748 10.7324 24.5265 10.8268 24.1782C10.8672 24.0442 11.0154 23.9638 11.1502 23.9906C11.2849 24.0308 11.3658 24.1782 11.3388 24.3121C11.2445 24.647 11.1771 24.9819 11.1232 25.3168C11.0963 25.4508 10.9885 25.5446 10.8537 25.5312H10.8402ZM11.4062 23.495C11.4062 23.495 11.3523 23.495 11.3254 23.4816C11.1906 23.428 11.1232 23.2806 11.1771 23.1467C11.3119 22.8118 11.4601 22.4769 11.6353 22.1688C11.7027 22.0482 11.8644 21.9946 11.9857 22.0616C12.107 22.1286 12.1609 22.2893 12.0935 22.4099C11.9318 22.718 11.7836 23.0261 11.6623 23.3476C11.6219 23.4548 11.514 23.5218 11.4062 23.5084V23.495ZM29.9765 24.4595C29.8687 24.4595 29.7744 24.3791 29.734 24.2719C29.6396 23.937 29.5318 23.6155 29.3971 23.294C29.3432 23.1601 29.3971 23.0127 29.5453 22.9591C29.6801 22.9056 29.8283 22.9591 29.8822 23.1065C30.017 23.4414 30.1383 23.7897 30.2326 24.138C30.273 24.2719 30.1922 24.4193 30.0574 24.4595C30.0304 24.4595 30.0035 24.4595 29.9765 24.4595ZM12.4035 21.6329C12.4035 21.6329 12.3091 21.6195 12.2687 21.5928C12.1474 21.5124 12.1205 21.3516 12.2013 21.2311C12.4035 20.9364 12.6326 20.6416 12.8617 20.3737C12.956 20.2666 13.1177 20.2532 13.2255 20.3469C13.3333 20.4407 13.3468 20.6015 13.2525 20.7086C13.0234 20.9631 12.8212 21.2445 12.6326 21.5258C12.5787 21.6061 12.4843 21.6463 12.4035 21.6329ZM29.1814 22.5171C29.0871 22.5171 29.0062 22.4635 28.9658 22.3831C28.8041 22.0884 28.6289 21.7803 28.4268 21.499C28.3459 21.3784 28.3729 21.2177 28.4942 21.1373C28.6154 21.0569 28.7772 21.0837 28.858 21.2043C29.0602 21.499 29.2488 21.8071 29.424 22.1286C29.4914 22.2492 29.4375 22.4099 29.3162 22.4769C29.2758 22.5037 29.2219 22.5037 29.1814 22.5037V22.5171ZM13.7781 20.0254C13.7781 20.0254 13.6568 19.9986 13.6029 19.9451C13.5085 19.8379 13.5085 19.6771 13.6029 19.5834C13.8589 19.3422 14.1419 19.1011 14.4384 18.8868C14.5597 18.8064 14.7214 18.8198 14.8023 18.9404C14.8966 19.0609 14.8696 19.2217 14.7483 19.302C14.4788 19.503 14.2093 19.7307 13.9667 19.9718C13.9128 20.0254 13.8454 20.0522 13.7781 20.0388V20.0254ZM27.9821 20.7756C27.9147 20.7756 27.8473 20.7354 27.7934 20.6818C27.5643 20.4273 27.3352 20.1728 27.0791 19.9317C26.9713 19.8379 26.9713 19.6637 27.0791 19.57C27.1735 19.4628 27.3487 19.4628 27.443 19.57C27.7125 19.8111 27.9551 20.079 28.1977 20.3603C28.292 20.4675 28.2785 20.6282 28.1707 20.722C28.1168 20.7622 28.0494 20.789 27.9821 20.789V20.7756ZM15.4626 18.7528C15.3817 18.7528 15.3009 18.6992 15.247 18.6322C15.1661 18.5117 15.2065 18.3509 15.3413 18.2706C15.6513 18.083 15.9747 17.9089 16.2981 17.7615C16.4329 17.6945 16.5811 17.7615 16.6485 17.8821C16.7159 18.016 16.6485 18.1634 16.5272 18.2304C16.2173 18.3777 15.9073 18.5385 15.6108 18.7126C15.5704 18.7394 15.5165 18.7528 15.4626 18.7528ZM26.4458 19.3288C26.4458 19.3288 26.3514 19.3154 26.2975 19.2753C26.028 19.0743 25.7315 18.8734 25.435 18.6992C25.3137 18.6189 25.2733 18.4715 25.3407 18.3375C25.4216 18.217 25.5698 18.1768 25.7046 18.2438C26.0145 18.4313 26.3245 18.6322 26.6075 18.8466C26.7288 18.927 26.7422 19.1011 26.6614 19.2083C26.6075 19.2753 26.5266 19.3154 26.4323 19.3154L26.4458 19.3288ZM17.3762 17.8687C17.2684 17.8687 17.1741 17.8017 17.1471 17.6945C17.1067 17.5606 17.1741 17.4132 17.3088 17.3596C17.6457 17.2391 18.0096 17.1453 18.36 17.0649C18.4948 17.0381 18.643 17.1185 18.6699 17.2659C18.6969 17.3998 18.616 17.5472 18.4678 17.574C18.1309 17.6543 17.794 17.7347 17.4706 17.8553C17.4436 17.8553 17.4032 17.8687 17.3762 17.8687ZM24.6265 18.2438C24.6265 18.2438 24.5591 18.2438 24.5321 18.217C24.2222 18.0696 23.8987 17.9491 23.5753 17.8419C23.4405 17.8017 23.3597 17.6543 23.4136 17.507C23.454 17.373 23.6023 17.2927 23.7505 17.3462C24.0874 17.4668 24.4378 17.6008 24.7612 17.7481C24.896 17.8017 24.9499 17.9625 24.896 18.0964C24.8556 18.1902 24.7477 18.2572 24.6399 18.2438H24.6265ZM19.4516 17.4132C19.3303 17.4132 19.2225 17.306 19.209 17.1855C19.1955 17.0381 19.3033 16.9176 19.4381 16.9042C19.802 16.864 20.1658 16.8506 20.5297 16.8506C20.6779 16.8506 20.7857 16.9712 20.7857 17.1051C20.7857 17.2525 20.6644 17.3596 20.5297 17.3596C20.1928 17.3596 19.8424 17.373 19.492 17.4132C19.4785 17.4132 19.465 17.4132 19.4516 17.4132ZM22.6185 17.574C22.6185 17.574 22.5915 17.574 22.5781 17.574C22.2412 17.507 21.9043 17.4534 21.5539 17.4132C21.4056 17.3998 21.3113 17.2659 21.3248 17.1319C21.3382 16.9845 21.4595 16.8908 21.6078 16.9042C21.9716 16.9444 22.3355 16.9979 22.6859 17.0783C22.8206 17.1051 22.915 17.2525 22.888 17.3864C22.8611 17.507 22.7398 17.6008 22.6185 17.5874V17.574Z" fill="url(#paint20_linear_4028_32371)"/>
<path d="M21.5788 37.3656C27.43 36.7902 31.704 31.6087 31.1252 25.7923C30.5463 19.976 25.3337 15.7274 19.4825 16.3028C13.6313 16.8783 9.35721 22.0598 9.93608 27.8761C10.5149 33.6924 15.7276 37.941 21.5788 37.3656Z" stroke="#F2C760" stroke-width="0.15" stroke-miterlimit="10" stroke-linecap="round" stroke-dasharray="0.07 0.44"/>
<path d="M29.5452 25.5442C29.5452 25.5442 29.4778 25.6112 29.4239 25.6246C29.397 25.6246 29.37 25.638 29.3296 25.638C29.2487 25.638 29.1948 25.6112 29.1544 25.5576C29.1544 25.5576 29.1544 25.5442 29.1544 25.5308C29.1275 25.4371 29.1948 25.3299 29.3161 25.2897C29.4374 25.2495 29.5587 25.2897 29.5857 25.3835C29.5991 25.4371 29.5857 25.4906 29.5587 25.5442H29.5452ZM29.9495 25.6246C29.8417 25.5442 29.6935 25.5442 29.5991 25.6112C29.5991 25.6112 29.5452 25.6514 29.5317 25.6782C29.4913 25.7318 29.4778 25.7854 29.4778 25.8523C29.4778 25.9327 29.5048 26.0131 29.5587 26.0667C29.5587 26.0801 29.5857 26.0935 29.5991 26.1069C29.7339 26.214 29.9226 26.1872 30.0304 26.0533C30.1247 25.9193 30.0978 25.7318 29.9495 25.6246ZM29.1005 25.6246C29.1005 25.6246 29.0736 25.6246 29.0601 25.6246C28.9927 25.6246 28.9253 25.705 28.9253 25.7988C28.9253 25.8925 28.9792 25.9729 29.0601 25.9729C29.0601 25.9729 29.0736 25.9729 29.087 25.9729C29.1409 25.9595 29.1814 25.8925 29.1948 25.8121C29.1948 25.7318 29.1544 25.6648 29.114 25.6514L29.1005 25.6246ZM29.4913 26.1069C29.4913 26.1069 29.4509 26.0667 29.4374 26.0533C29.3835 26.0131 29.3296 25.9997 29.2757 25.9997C29.2218 25.9997 29.1814 26.0131 29.1544 26.0533C29.114 26.1337 29.1544 26.2408 29.2487 26.3078C29.3431 26.3882 29.4778 26.3882 29.5317 26.3078C29.5722 26.2542 29.5587 26.1738 29.5048 26.1069H29.4913ZM12.08 26.0801C12.053 25.9863 11.9317 25.9461 11.8104 25.9863C11.6892 26.0265 11.6218 26.1337 11.6487 26.2274C11.6487 26.2274 11.6487 26.2408 11.6487 26.2542C11.6757 26.3078 11.7431 26.3346 11.8239 26.3346C11.8509 26.3346 11.8778 26.3346 11.9183 26.3212C11.9722 26.3078 12.0126 26.2676 12.0395 26.2408C12.08 26.1872 12.0934 26.1337 12.0665 26.0801H12.08ZM12.4573 26.3212C12.3495 26.2408 12.2013 26.2408 12.1069 26.3078C12.1069 26.3078 12.053 26.348 12.0395 26.3748C11.9991 26.4284 11.9856 26.4819 11.9856 26.5489C11.9856 26.6293 12.0126 26.7097 12.0665 26.7633C12.0665 26.7767 12.0934 26.7901 12.1069 26.8034C12.2417 26.9106 12.4304 26.8838 12.5382 26.7499C12.6325 26.6159 12.6055 26.4284 12.4573 26.3212ZM11.6083 26.3346C11.6083 26.3346 11.5813 26.3346 11.5679 26.3346C11.5005 26.3346 11.4331 26.415 11.4331 26.5087C11.4331 26.6025 11.487 26.6829 11.5679 26.6829C11.5679 26.6829 11.5813 26.6829 11.5948 26.6829C11.6487 26.6695 11.6892 26.6025 11.7026 26.5221C11.7026 26.4418 11.6622 26.3748 11.6218 26.3614L11.6083 26.3346ZM11.9991 26.8034C11.9991 26.8034 11.9587 26.7633 11.9452 26.7499C11.8913 26.7097 11.8374 26.6963 11.7835 26.6963C11.7296 26.6963 11.6892 26.7097 11.6622 26.7499C11.6218 26.8302 11.6622 26.9374 11.7565 27.0044C11.8509 27.0848 11.9856 27.0848 12.0395 27.0044C12.08 26.9508 12.0665 26.8704 12.0126 26.8034H11.9991ZM28.6423 29.3621C28.6154 29.2683 28.4941 29.2281 28.3728 29.2683C28.2515 29.3085 28.1841 29.4157 28.2111 29.5094C28.2111 29.5094 28.2111 29.5228 28.2111 29.5362C28.238 29.5898 28.3054 29.6166 28.3863 29.6166C28.4132 29.6166 28.4402 29.6166 28.4806 29.6032C28.5345 29.5898 28.5749 29.5496 28.6019 29.5228C28.6423 29.4692 28.6558 29.4157 28.6288 29.3621H28.6423ZM29.0197 29.5898C28.9118 29.5094 28.7636 29.5094 28.6693 29.5764C28.6693 29.5764 28.6154 29.6166 28.6019 29.6434C28.5615 29.697 28.548 29.7506 28.548 29.8175C28.548 29.8979 28.5749 29.9783 28.6288 30.0319C28.6288 30.0453 28.6558 30.0587 28.6693 30.0721C28.804 30.1792 28.9927 30.1524 29.1005 30.0185C29.1948 29.8845 29.1679 29.697 29.0197 29.5898ZM28.1572 29.6032C28.1572 29.6032 28.1302 29.6032 28.1167 29.6032C28.0494 29.6032 27.982 29.6836 27.982 29.7773C27.982 29.8711 28.0359 29.9515 28.1167 29.9515C28.1167 29.9515 28.1302 29.9515 28.1437 29.9515C28.1976 29.9381 28.238 29.8711 28.2515 29.7907C28.2515 29.7104 28.2111 29.6434 28.1706 29.63L28.1572 29.6032ZM28.5615 30.0721C28.5615 30.0721 28.521 30.0319 28.5076 30.0185C28.4536 29.9783 28.3997 29.9649 28.3458 29.9649C28.2919 29.9649 28.2515 29.9783 28.2246 30.0185C28.1841 30.0989 28.2245 30.206 28.3189 30.273C28.4132 30.3534 28.548 30.3534 28.6019 30.273C28.6423 30.2194 28.6288 30.139 28.5749 30.0721H28.5615ZM21.2169 19.1142C21.1899 19.0204 21.0686 18.9802 20.9474 19.0204C20.8261 19.0606 20.7587 19.1678 20.7856 19.2615C20.7856 19.2615 20.7856 19.2749 20.7856 19.2883C20.8126 19.3419 20.88 19.3687 20.9608 19.3687C20.9878 19.3687 21.0147 19.3687 21.0552 19.3553C21.1091 19.3419 21.1495 19.3017 21.1765 19.2749C21.2169 19.2213 21.2304 19.1678 21.2034 19.1142H21.2169ZM21.5942 19.3553C21.4864 19.2749 21.3382 19.2749 21.2438 19.3419C21.2438 19.3419 21.1899 19.3821 21.1765 19.4089C21.136 19.4625 21.1226 19.5161 21.1226 19.583C21.1226 19.6634 21.1495 19.7438 21.2034 19.7974C21.2034 19.8108 21.2304 19.8242 21.2438 19.8376C21.3786 19.9447 21.5673 19.9179 21.6751 19.784C21.7694 19.65 21.7425 19.4625 21.5942 19.3553ZM20.7317 19.3687C20.7317 19.3687 20.7048 19.3687 20.6913 19.3687C20.6239 19.3687 20.5565 19.4491 20.5565 19.5428C20.5565 19.6366 20.6105 19.717 20.6913 19.717C20.6913 19.717 20.7048 19.717 20.7183 19.717C20.7722 19.7036 20.8126 19.6366 20.8261 19.5562C20.8261 19.4759 20.7856 19.4089 20.7452 19.3955L20.7317 19.3687ZM21.136 19.8376C21.136 19.8376 21.0956 19.7974 21.0821 19.784C21.0282 19.7438 20.9743 19.7304 20.9204 19.7304C20.8665 19.7304 20.8261 19.7438 20.7991 19.784C20.7587 19.8643 20.7991 19.9715 20.8935 20.0385C20.9878 20.1189 21.1226 20.1189 21.1765 20.0385C21.2169 19.9849 21.2034 19.9045 21.1495 19.8376H21.136ZM21.2169 33.555C21.1899 33.4612 21.0686 33.421 20.9474 33.4612C20.8261 33.5014 20.7587 33.6086 20.7856 33.7024C20.7856 33.7024 20.7856 33.7158 20.7856 33.7292C20.8126 33.7827 20.88 33.8095 20.9608 33.8095C20.9878 33.8095 21.0147 33.8095 21.0552 33.7961C21.1091 33.7827 21.1495 33.7426 21.1765 33.7158C21.2169 33.6622 21.2304 33.6086 21.2034 33.555H21.2169ZM21.5942 33.7827C21.4864 33.7024 21.3382 33.7024 21.2438 33.7693C21.2438 33.7693 21.1899 33.8095 21.1765 33.8363C21.136 33.8899 21.1226 33.9435 21.1226 34.0105C21.1226 34.0908 21.1495 34.1712 21.2034 34.2248C21.2034 34.2382 21.2304 34.2516 21.2438 34.265C21.3786 34.3722 21.5673 34.3454 21.6751 34.2114C21.7694 34.0774 21.7425 33.8899 21.5942 33.7827ZM20.7317 33.7961C20.7317 33.7961 20.7048 33.7961 20.6913 33.7961C20.6239 33.7961 20.5565 33.8765 20.5565 33.9703C20.5565 34.0641 20.6105 34.1444 20.6913 34.1444C20.6913 34.1444 20.7048 34.1444 20.7183 34.1444C20.7722 34.131 20.8126 34.0641 20.8261 33.9837C20.8261 33.9033 20.7856 33.8363 20.7452 33.8229L20.7317 33.7961ZM21.136 34.265C21.136 34.265 21.0956 34.2248 21.0821 34.2114C21.0282 34.1712 20.9743 34.1578 20.9204 34.1578C20.8665 34.1578 20.8261 34.1712 20.7991 34.2114C20.7587 34.2918 20.7991 34.399 20.8935 34.4659C20.9878 34.5463 21.1226 34.5463 21.1765 34.4659C21.2169 34.4123 21.2034 34.332 21.1495 34.265H21.136Z" fill="url(#paint21_linear_4028_32371)"/>
<path d="M13.8454 24.2054L13.7376 24.1652C14.5327 22.196 16.1633 20.6688 18.1848 19.999L18.2252 20.1062C16.2307 20.776 14.627 22.2629 13.8454 24.2054ZM18.643 33.4218H18.5351V33.6763C15.7321 32.8859 13.6567 30.4211 13.3603 27.5409L13.6163 27.206L13.522 27.1391L13.2524 27.5142V27.5409C13.5489 30.5014 15.6916 33.0333 18.5756 33.8102H18.643V33.4218ZM19.8154 20.1598V20.0526C17.4166 20.2937 15.2874 21.7941 14.2632 23.9642L14.3575 24.0044C15.3682 21.8745 17.457 20.4009 19.8154 20.1598ZM27.416 27.0319H27.3082C27.2408 30.1398 25.0577 32.7922 21.9985 33.462L22.0255 33.5691C25.125 32.8859 27.3486 30.1933 27.416 27.0319ZM18.8586 33.4352C15.7995 32.685 13.6433 29.8584 13.7106 26.7238H13.6028C13.5354 29.8986 15.7321 32.7788 18.8316 33.5423L18.8586 33.4352ZM19.7345 20.5215V20.4143C17.5648 20.6688 15.6916 21.9682 14.6809 23.8838L14.7753 23.9374C15.759 22.0486 17.6188 20.776 19.7345 20.5215ZM22.1064 33.2074C22.1737 33.194 22.2411 33.1672 22.3085 33.1538C25.0846 32.3635 26.9982 29.912 27.0656 27.0319C27.133 24.0446 25.152 21.3922 22.2546 20.6018L22.2276 20.709C25.0846 21.486 27.0252 24.0982 26.9578 27.0319C26.8904 29.8584 25.0172 32.2831 22.2815 33.0467C22.2411 33.0467 22.2007 33.0735 22.1468 33.0869V32.4841H22.0255V33.2342L22.1064 33.2208V33.2074ZM20.3544 33.2878C18.6295 33.2476 17.0258 32.551 15.8399 31.3052C14.654 30.0728 14.0206 28.4385 14.061 26.7372H13.9532C13.9128 28.4787 14.5596 30.1264 15.7725 31.3856C16.9854 32.6448 18.616 33.3548 20.3679 33.395V33.2878H20.3544ZM20.3679 32.6582C18.8181 32.618 17.3762 31.9884 16.2981 30.8765C15.22 29.7647 14.654 28.2911 14.6944 26.7506C14.7618 23.8838 16.8776 21.5396 19.7345 21.1645V21.0573C16.8102 21.4458 14.654 23.8303 14.5866 26.7506C14.5462 28.3179 15.1256 29.8183 16.2172 30.9435C17.3088 32.0822 18.7777 32.7252 20.3679 32.7654V32.6582ZM26.4188 27.0185C26.4727 24.6474 25.0981 22.4907 22.9284 21.5128L22.888 21.6065C25.0172 22.5576 26.3649 24.6876 26.311 27.0051C26.257 29.2556 24.8825 31.2918 22.7936 32.1759L22.8341 32.2697C24.9633 31.3588 26.3649 29.2958 26.4188 26.9917V27.0185ZM24.3569 30.8765C25.435 29.8584 26.0414 28.4787 26.0819 27.0051C26.1223 25.5316 25.5698 24.125 24.5456 23.0533C23.5214 21.9816 22.1333 21.3788 20.6509 21.3386V21.4458C22.1064 21.4726 23.4675 22.0754 24.4647 23.1203C25.4754 24.1652 26.001 25.5449 25.974 26.9917C25.9471 28.4385 25.3407 29.7915 24.2895 30.7962C23.2384 31.8009 21.8503 32.3367 20.3949 32.2965V32.4037C20.3949 32.4037 20.4757 32.4037 20.5296 32.4037C21.9716 32.4037 23.3327 31.8678 24.3704 30.8765H24.3569ZM25.7584 27.0051C25.8258 24.125 23.5214 21.7405 20.6374 21.6735V21.7807C23.4675 21.8477 25.718 24.192 25.6506 27.0051C25.5832 29.7781 23.2923 31.9884 20.5162 31.9884C20.4757 31.9884 20.4353 31.9884 20.3949 31.9884V32.0956C20.3949 32.0956 20.4757 32.0956 20.5162 32.0956C23.3596 32.0956 25.691 29.8317 25.7584 27.0051ZM25.3676 26.9917C25.3946 25.7057 24.9229 24.4733 24.02 23.5356C23.1171 22.5978 21.9177 22.0754 20.6105 22.0352V22.1424C23.2249 22.196 25.3137 24.3661 25.2598 26.9783C25.2059 29.5503 23.0766 31.5999 20.5027 31.5999C20.4623 31.5999 20.4353 31.5999 20.3949 31.5999V31.7071C20.3949 31.7071 20.4623 31.7071 20.5027 31.7071C23.1306 31.7071 25.3002 29.6039 25.3676 26.9783V26.9917ZM24.9903 26.9783C25.0172 25.7861 24.5725 24.6608 23.7505 23.8035C22.9284 22.9461 21.8099 22.4505 20.6105 22.4237V22.5309C21.7694 22.5577 22.861 23.0399 23.6696 23.8705C24.4782 24.7144 24.9094 25.8129 24.8825 26.9649C24.8555 28.1304 24.3704 29.202 23.5348 30.0058C22.6858 30.8096 21.5808 31.2382 20.4218 31.2114V31.3186C20.4218 31.3186 20.4892 31.3186 20.5296 31.3186C22.9554 31.3186 24.9499 29.3896 25.0038 26.9649L24.9903 26.9783ZM23.3327 29.8183C24.1278 29.0681 24.5725 28.0634 24.5995 26.9783C24.6534 24.9421 23.1575 23.1739 21.1361 22.8792V22.9863C23.0901 23.281 24.5321 24.9957 24.4917 26.9783C24.4647 28.0366 24.0335 29.0145 23.2653 29.7379C22.4972 30.4613 21.4864 30.8497 20.4353 30.8363V30.9435C20.4353 30.9435 20.5027 30.9435 20.5296 30.9435C21.5808 30.9435 22.578 30.5416 23.3462 29.8183H23.3327ZM20.3679 32.9931C18.7238 32.9529 17.1875 32.2831 16.0555 31.1043C14.9235 29.9254 14.3171 28.3715 14.3575 26.7372C14.4249 23.7231 16.7428 21.1779 19.748 20.8028V20.6956C16.6754 21.0707 14.3305 23.6695 14.2497 26.7372C14.2093 28.3983 14.8292 29.979 15.9881 31.1846C17.1471 32.3903 18.6969 33.0735 20.3814 33.1137V33.0065L20.3679 32.9931ZM26.7691 27.0185C26.8365 24.3661 25.1924 21.9548 22.6858 21.0305L22.6454 21.1377C25.0981 22.0486 26.7152 24.4063 26.6613 27.0185C26.6074 29.5905 24.9094 31.8678 22.4567 32.685L22.4972 32.7922C25.0038 31.9616 26.7152 29.6441 26.7826 27.0185H26.7691Z" fill="url(#paint22_linear_4028_32371)"/>
<path d="M23.2604 31.881L22.8162 32.1061C22.7764 32.1262 22.7606 32.1746 22.7809 32.2142L22.8298 32.3097C22.8501 32.3492 22.8988 32.3649 22.9386 32.3448L23.3828 32.1197C23.4226 32.0995 23.4384 32.0511 23.4181 32.0116L23.3692 31.9161C23.3489 31.8765 23.3002 31.8608 23.2604 31.881Z" fill="url(#paint23_linear_4028_32371)"/>
<path d="M22.8794 32.4412L22.4145 32.6204C22.3729 32.6364 22.3522 32.683 22.3683 32.7244L22.4073 32.8243C22.4234 32.8657 22.4703 32.8862 22.5119 32.8702L22.9768 32.691C23.0185 32.675 23.0391 32.6284 23.023 32.587L22.984 32.4871C22.9679 32.4457 22.921 32.4252 22.8794 32.4412Z" fill="url(#paint24_linear_4028_32371)"/>
<path d="M13.771 23.8991L13.571 24.3531C13.5531 24.3938 13.5717 24.4412 13.6126 24.459L13.7114 24.502C13.7523 24.5198 13.8 24.5013 13.8179 24.4606L14.0179 24.0066C14.0358 23.9659 14.0172 23.9185 13.9763 23.9007L13.8775 23.8577C13.8366 23.8399 13.7889 23.8584 13.771 23.8991Z" fill="url(#paint25_linear_4028_32371)"/>
<path d="M14.3594 23.5696L14.135 24.0122C14.1149 24.0518 14.131 24.1002 14.1708 24.1201L14.2671 24.1684C14.307 24.1883 14.3556 24.1724 14.3757 24.1328L14.6001 23.6901C14.6202 23.6505 14.6041 23.6021 14.5642 23.5822L14.468 23.5339C14.4281 23.514 14.3795 23.5299 14.3594 23.5696Z" fill="url(#paint26_linear_4028_32371)"/>
<path d="M14.8164 23.4494L14.592 23.8921C14.572 23.9317 14.588 23.9801 14.6279 24L14.7242 24.0483C14.764 24.0682 14.8127 24.0523 14.8327 24.0126L15.0571 23.57C15.0772 23.5303 15.0612 23.482 15.0213 23.462L14.925 23.4138C14.8851 23.3939 14.8365 23.4098 14.8164 23.4494Z" fill="url(#paint27_linear_4028_32371)"/>
<path d="M22.5143 20.5849L22.0394 20.4337C21.9969 20.4202 21.9514 20.4434 21.9377 20.4857L21.9049 20.5878C21.8912 20.6301 21.9147 20.6753 21.9572 20.6888L22.4321 20.84C22.4746 20.8536 22.5201 20.8303 22.5337 20.788L22.5666 20.6859C22.5802 20.6437 22.5568 20.5984 22.5143 20.5849Z" fill="url(#paint28_linear_4028_32371)"/>
<path d="M23.147 21.1399L22.6848 20.954C22.6434 20.9373 22.5963 20.9572 22.5795 20.9983L22.5391 21.0977C22.5223 21.1388 22.5423 21.1857 22.5837 21.2023L23.0459 21.3882C23.0873 21.4049 23.1345 21.385 23.1512 21.3439L23.1917 21.2445C23.2084 21.2034 23.1884 21.1565 23.147 21.1399Z" fill="url(#paint29_linear_4028_32371)"/>
<path d="M23.3962 21.6366L22.9481 21.4191C22.908 21.3996 22.8596 21.4161 22.84 21.456L22.7927 21.5523C22.7731 21.5922 22.7897 21.6403 22.8299 21.6598L23.2779 21.8773C23.318 21.8968 23.3665 21.8803 23.386 21.8404L23.4334 21.7441C23.453 21.7042 23.4363 21.6561 23.3962 21.6366Z" fill="url(#paint30_linear_4028_32371)"/>
<path d="M22.2144 32.8329V32.3372C22.2144 32.2928 22.1782 32.2568 22.1335 32.2568H22.0257C21.981 32.2568 21.9448 32.2928 21.9448 32.3372V32.8329C21.9448 32.8773 21.981 32.9132 22.0257 32.9132H22.1335C22.1782 32.9132 22.2144 32.8773 22.2144 32.8329Z" fill="url(#paint31_linear_4028_32371)"/>
<path d="M22.2309 33.3502L21.7406 33.4404C21.6967 33.4485 21.6677 33.4905 21.6759 33.5341L21.6955 33.6395C21.7036 33.6831 21.7458 33.712 21.7897 33.7039L22.28 33.6136C22.3239 33.6056 22.3529 33.5636 22.3448 33.52L22.3252 33.4146C22.317 33.371 22.2748 33.3421 22.2309 33.3502Z" fill="url(#paint32_linear_4028_32371)"/>
<path d="M26.4455 24.1913C25.0979 23.2134 23.3729 23.1598 22.0927 23.9368C22.6587 24.687 22.9686 25.6247 22.9686 26.5758C22.9686 27.8216 22.4431 28.9871 21.5402 29.8176C21.6884 29.965 21.8501 30.0989 22.0253 30.2329C23.7772 31.5189 26.1895 31.2108 27.4158 29.5363C28.6422 27.8752 28.2109 25.4773 26.459 24.1913M18.8853 22.3293C19.7343 22.3293 20.5833 22.6106 21.2841 23.133C21.7019 22.5436 21.8501 21.847 21.6345 21.204C21.2167 19.9984 19.6804 19.4492 18.1711 19.9582C16.6752 20.4673 15.7858 21.8604 16.2036 23.0661C16.2305 23.1464 16.2709 23.2134 16.2979 23.2938C17.0256 22.6776 17.942 22.3293 18.8853 22.3293ZM14.802 26.5892C14.802 25.7854 15.0311 24.9683 15.4489 24.2717C15.3141 24.2181 15.1659 24.1913 15.0176 24.1913C14.1013 24.1913 13.3735 25.1692 13.3735 26.3749C13.3735 27.5805 14.1147 28.5584 15.0176 28.5584C15.0985 28.5584 15.1794 28.5584 15.2467 28.5316C14.9503 27.9288 14.7885 27.2322 14.7885 26.5758M20.7046 30.3937C20.1386 30.6884 19.5052 30.8357 18.8853 30.8357C17.9016 30.8357 16.9447 30.4606 16.1901 29.764C15.7319 30.7018 16.2305 32.0414 17.4029 32.8987C18.6832 33.8364 20.2599 33.8364 20.9472 32.8987C21.4458 32.2155 21.3245 31.2242 20.7046 30.3803V30.3937Z" fill="url(#paint33_linear_4028_32371)"/>
<path d="M26.4455 24.1913C25.0979 23.2134 23.3729 23.1598 22.0927 23.9368C22.6587 24.687 22.9686 25.6247 22.9686 26.5758C22.9686 27.8216 22.4431 28.9871 21.5402 29.8176C21.6884 29.965 21.8501 30.0989 22.0253 30.2329C23.7772 31.5189 26.1895 31.2108 27.4158 29.5363C28.6422 27.8752 28.2109 25.4773 26.459 24.1913M14.802 26.5892C14.802 25.7854 15.0311 24.9683 15.4489 24.2717C15.3141 24.2181 15.1659 24.1913 15.0176 24.1913C14.1013 24.1913 13.3735 25.1692 13.3735 26.3749C13.3735 27.5805 14.1147 28.5584 15.0176 28.5584C15.0985 28.5584 15.1794 28.5584 15.2467 28.5316C14.9503 27.9288 14.7885 27.2322 14.7885 26.5758M18.8853 22.3293C19.7343 22.3293 20.5833 22.6106 21.2841 23.133C21.7019 22.5436 21.8501 21.847 21.6345 21.204C21.2167 19.9984 19.6804 19.4492 18.1711 19.9582C16.6752 20.4673 15.7858 21.8604 16.2036 23.0661C16.2305 23.1464 16.2709 23.2134 16.2979 23.2938C17.0256 22.6776 17.942 22.3293 18.8853 22.3293ZM20.7046 30.3937C20.1386 30.6884 19.5052 30.8357 18.8853 30.8357C17.9016 30.8357 16.9447 30.4606 16.1901 29.764C15.7319 30.7018 16.2305 32.0414 17.4029 32.8987C18.6832 33.8364 20.2599 33.8364 20.9472 32.8987C21.4458 32.2155 21.3245 31.2242 20.7046 30.3803V30.3937Z" stroke="url(#paint34_linear_4028_32371)" stroke-width="0.13" stroke-linecap="round" stroke-linejoin="round"/>
<path d="M21.0416 27.9558C20.9473 28.2639 20.7855 28.5453 20.5834 28.773C20.3813 29.0007 20.1252 29.1883 19.8153 29.3088C19.7748 29.3222 19.7344 29.3356 19.694 29.349V30.0456H18.8584V29.4964C18.8584 29.4964 18.7911 29.4964 18.7506 29.4964C18.6967 29.4964 18.6563 29.4964 18.6024 29.4964V30.0456H17.7803V29.349C17.6456 29.3088 17.5108 29.2419 17.3895 29.1749C16.9852 28.9605 16.6888 28.6524 16.4597 28.2506C16.2306 27.8487 16.1362 27.3664 16.1362 26.8038C16.1362 26.2412 16.244 25.7589 16.4597 25.357C16.6753 24.9551 16.9852 24.647 17.376 24.4327C17.4973 24.3657 17.6321 24.2987 17.7803 24.2586V23.4414H18.6024V24.1112C18.6024 24.1112 18.6832 24.1112 18.7237 24.1112C18.7776 24.1112 18.818 24.1112 18.8584 24.1112V23.4414H19.694V24.2586C19.694 24.2586 19.7613 24.2854 19.8018 24.2987C20.0983 24.4193 20.3408 24.5935 20.543 24.8078C20.7451 25.0355 20.8934 25.2767 21.0012 25.5714L19.95 25.9866C19.8961 25.7723 19.8018 25.5982 19.694 25.4508C19.6401 25.3838 19.5862 25.3168 19.5188 25.2499C19.3436 25.1025 19.128 25.0221 18.8719 24.9953C18.8315 24.9953 18.7911 24.9953 18.7372 24.9953C18.6832 24.9953 18.6563 24.9953 18.6024 24.9953C18.3463 25.0087 18.1172 25.0757 17.9286 25.2097C17.8747 25.2365 17.8208 25.2767 17.7803 25.3168C17.6321 25.4508 17.5108 25.6115 17.43 25.8259C17.3087 26.0938 17.2548 26.4287 17.2548 26.8306C17.2548 27.2325 17.3087 27.554 17.43 27.8219C17.5243 28.0228 17.6321 28.1836 17.7803 28.3175C17.8342 28.3577 17.8881 28.3979 17.9421 28.4381C18.1307 28.5587 18.3598 28.6256 18.6024 28.639C18.6428 28.639 18.6832 28.639 18.7372 28.639C18.7911 28.639 18.8315 28.639 18.8719 28.639C19.0606 28.639 19.2223 28.5855 19.3571 28.5185C19.4918 28.4649 19.5996 28.3845 19.694 28.2773C19.7209 28.2506 19.7613 28.2104 19.7883 28.1702C19.9096 28.0228 19.977 27.8353 20.0174 27.6209L21.0281 27.9692L21.0416 27.9558Z" fill="#010101" stroke="url(#paint35_linear_4028_32371)" stroke-width="0.2" stroke-linejoin="round"/>
<defs>
<linearGradient id="paint0_linear_4028_32371" x1="13.4141" y1="19.758" x2="30.0918" y2="36.5356" gradientUnits="userSpaceOnUse">
<stop stop-color="#DB9225"/>
<stop offset="0.03" stop-color="#E5AF40"/>
<stop offset="0.07" stop-color="#EECB5A"/>
<stop offset="0.12" stop-color="#F5DF6D"/>
<stop offset="0.16" stop-color="#F9EB78"/>
<stop offset="0.2" stop-color="#FBEF7C"/>
<stop offset="0.28" stop-color="#E6BA47"/>
<stop offset="0.34" stop-color="#D99A27"/>
<stop offset="0.36" stop-color="#CA8E24"/>
<stop offset="0.4" stop-color="#B67E20"/>
<stop offset="0.43" stop-color="#AA751D"/>
<stop offset="0.47" stop-color="#A7721D"/>
<stop offset="0.51" stop-color="#AB7721"/>
<stop offset="0.56" stop-color="#B8862D"/>
<stop offset="0.61" stop-color="#CD9F42"/>
<stop offset="0.66" stop-color="#EBC15E"/>
<stop offset="0.68" stop-color="#F7CF6A"/>
<stop offset="0.72" stop-color="#F3C963"/>
<stop offset="0.78" stop-color="#EBBA50"/>
<stop offset="0.85" stop-color="#DDA231"/>
<stop offset="0.87" stop-color="#D99A27"/>
<stop offset="1" stop-color="#F7CF6A"/>
</linearGradient>
<linearGradient id="paint1_linear_4028_32371" x1="28.7239" y1="18.8793" x2="12.777" y2="34.5212" gradientUnits="userSpaceOnUse">
<stop stop-color="#DB9225"/>
<stop offset="0.03" stop-color="#E5AF40"/>
<stop offset="0.07" stop-color="#EECB5A"/>
<stop offset="0.12" stop-color="#F5DF6D"/>
<stop offset="0.16" stop-color="#F9EB78"/>
<stop offset="0.2" stop-color="#FBEF7C"/>
<stop offset="0.28" stop-color="#E6BA47"/>
<stop offset="0.34" stop-color="#D99A27"/>
<stop offset="0.36" stop-color="#CA8E24"/>
<stop offset="0.4" stop-color="#B67E20"/>
<stop offset="0.43" stop-color="#AA751D"/>
<stop offset="0.47" stop-color="#A7721D"/>
<stop offset="0.51" stop-color="#AB7721"/>
<stop offset="0.56" stop-color="#B8862D"/>
<stop offset="0.61" stop-color="#CD9F42"/>
<stop offset="0.66" stop-color="#EBC15E"/>
<stop offset="0.68" stop-color="#F7CF6A"/>
<stop offset="0.72" stop-color="#F3C963"/>
<stop offset="0.78" stop-color="#EBBA50"/>
<stop offset="0.85" stop-color="#DDA231"/>
<stop offset="0.87" stop-color="#D99A27"/>
<stop offset="1" stop-color="#F7CF6A"/>
</linearGradient>
<linearGradient id="paint2_linear_4028_32371" x1="12.0258" y1="18.3783" x2="29.3464" y2="35.8029" gradientUnits="userSpaceOnUse">
<stop stop-color="#DB9225"/>
<stop offset="0.03" stop-color="#E5AF40"/>
<stop offset="0.07" stop-color="#EECB5A"/>
<stop offset="0.12" stop-color="#F5DF6D"/>
<stop offset="0.16" stop-color="#F9EB78"/>
<stop offset="0.2" stop-color="#FBEF7C"/>
<stop offset="0.28" stop-color="#E6BA47"/>
<stop offset="0.34" stop-color="#D99A27"/>
<stop offset="0.36" stop-color="#CA8E24"/>
<stop offset="0.4" stop-color="#B67E20"/>
<stop offset="0.43" stop-color="#AA751D"/>
<stop offset="0.47" stop-color="#A7721D"/>
<stop offset="0.51" stop-color="#AB7721"/>
<stop offset="0.56" stop-color="#B8862D"/>
<stop offset="0.61" stop-color="#CD9F42"/>
<stop offset="0.66" stop-color="#EBC15E"/>
<stop offset="0.68" stop-color="#F7CF6A"/>
<stop offset="0.72" stop-color="#F3C963"/>
<stop offset="0.78" stop-color="#EBBA50"/>
<stop offset="0.85" stop-color="#DDA231"/>
<stop offset="0.87" stop-color="#D99A27"/>
<stop offset="1" stop-color="#F7CF6A"/>
</linearGradient>
<linearGradient id="paint3_linear_4028_32371" x1="11.5005" y1="26.8298" x2="30.3134" y2="26.8298" gradientUnits="userSpaceOnUse">
<stop stop-color="#DB9225"/>
<stop offset="0.03" stop-color="#E5AF40"/>
<stop offset="0.07" stop-color="#EECB5A"/>
<stop offset="0.12" stop-color="#F5DF6D"/>
<stop offset="0.16" stop-color="#F9EB78"/>
<stop offset="0.2" stop-color="#FBEF7C"/>
<stop offset="0.28" stop-color="#E6BA47"/>
<stop offset="0.34" stop-color="#D99A27"/>
<stop offset="0.36" stop-color="#CA8E24"/>
<stop offset="0.4" stop-color="#B67E20"/>
<stop offset="0.43" stop-color="#AA751D"/>
<stop offset="0.47" stop-color="#A7721D"/>
<stop offset="0.51" stop-color="#AB7721"/>
<stop offset="0.56" stop-color="#B8862D"/>
<stop offset="0.61" stop-color="#CD9F42"/>
<stop offset="0.66" stop-color="#EBC15E"/>
<stop offset="0.68" stop-color="#F7CF6A"/>
<stop offset="0.72" stop-color="#F3C963"/>
<stop offset="0.78" stop-color="#EBBA50"/>
<stop offset="0.85" stop-color="#DDA231"/>
<stop offset="0.87" stop-color="#D99A27"/>
<stop offset="1" stop-color="#F7CF6A"/>
</linearGradient>
<linearGradient id="paint4_linear_4028_32371" x1="17.5783" y1="20.1321" x2="24.6398" y2="20.0372" gradientUnits="userSpaceOnUse">
<stop stop-color="#DB9225"/>
<stop offset="0.03" stop-color="#E5AF40"/>
<stop offset="0.07" stop-color="#EECB5A"/>
<stop offset="0.12" stop-color="#F5DF6D"/>
<stop offset="0.16" stop-color="#F9EB78"/>
<stop offset="0.2" stop-color="#FBEF7C"/>
<stop offset="0.28" stop-color="#E6BA47"/>
<stop offset="0.34" stop-color="#D99A27"/>
<stop offset="0.36" stop-color="#CA8E24"/>
<stop offset="0.4" stop-color="#B67E20"/>
<stop offset="0.43" stop-color="#AA751D"/>
<stop offset="0.47" stop-color="#A7721D"/>
<stop offset="0.51" stop-color="#AB7721"/>
<stop offset="0.56" stop-color="#B8862D"/>
<stop offset="0.61" stop-color="#CD9F42"/>
<stop offset="0.66" stop-color="#EBC15E"/>
<stop offset="0.68" stop-color="#F7CF6A"/>
<stop offset="0.72" stop-color="#F3C963"/>
<stop offset="0.78" stop-color="#EBBA50"/>
<stop offset="0.85" stop-color="#DDA231"/>
<stop offset="0.87" stop-color="#D99A27"/>
<stop offset="1" stop-color="#F7CF6A"/>
</linearGradient>
<linearGradient id="paint5_linear_4028_32371" x1="17.5917" y1="20.441" x2="24.6398" y2="20.3597" gradientUnits="userSpaceOnUse">
<stop stop-color="#DB9225"/>
<stop offset="0.03" stop-color="#E5AF40"/>
<stop offset="0.07" stop-color="#EECB5A"/>
<stop offset="0.12" stop-color="#F5DF6D"/>
<stop offset="0.16" stop-color="#F9EB78"/>
<stop offset="0.2" stop-color="#FBEF7C"/>
<stop offset="0.28" stop-color="#E6BA47"/>
<stop offset="0.34" stop-color="#D99A27"/>
<stop offset="0.36" stop-color="#CA8E24"/>
<stop offset="0.4" stop-color="#B67E20"/>
<stop offset="0.43" stop-color="#AA751D"/>
<stop offset="0.47" stop-color="#A7721D"/>
<stop offset="0.51" stop-color="#AB7721"/>
<stop offset="0.56" stop-color="#B8862D"/>
<stop offset="0.61" stop-color="#CD9F42"/>
<stop offset="0.66" stop-color="#EBC15E"/>
<stop offset="0.68" stop-color="#F7CF6A"/>
<stop offset="0.72" stop-color="#F3C963"/>
<stop offset="0.78" stop-color="#EBBA50"/>
<stop offset="0.85" stop-color="#DDA231"/>
<stop offset="0.87" stop-color="#D99A27"/>
<stop offset="1" stop-color="#F7CF6A"/>
</linearGradient>
<linearGradient id="paint6_linear_4028_32371" x1="17.5917" y1="20.6546" x2="24.6398" y2="20.5597" gradientUnits="userSpaceOnUse">
<stop stop-color="#DB9225"/>
<stop offset="0.03" stop-color="#E5AF40"/>
<stop offset="0.07" stop-color="#EECB5A"/>
<stop offset="0.12" stop-color="#F5DF6D"/>
<stop offset="0.16" stop-color="#F9EB78"/>
<stop offset="0.2" stop-color="#FBEF7C"/>
<stop offset="0.28" stop-color="#E6BA47"/>
<stop offset="0.34" stop-color="#D99A27"/>
<stop offset="0.36" stop-color="#CA8E24"/>
<stop offset="0.4" stop-color="#B67E20"/>
<stop offset="0.43" stop-color="#AA751D"/>
<stop offset="0.47" stop-color="#A7721D"/>
<stop offset="0.51" stop-color="#AB7721"/>
<stop offset="0.56" stop-color="#B8862D"/>
<stop offset="0.61" stop-color="#CD9F42"/>
<stop offset="0.66" stop-color="#EBC15E"/>
<stop offset="0.68" stop-color="#F7CF6A"/>
<stop offset="0.72" stop-color="#F3C963"/>
<stop offset="0.78" stop-color="#EBBA50"/>
<stop offset="0.85" stop-color="#DDA231"/>
<stop offset="0.87" stop-color="#D99A27"/>
<stop offset="1" stop-color="#F7CF6A"/>
</linearGradient>
<linearGradient id="paint7_linear_4028_32371" x1="17.1201" y1="33.4615" x2="25.7448" y2="33.692" gradientUnits="userSpaceOnUse">
<stop stop-color="#DB9225"/>
<stop offset="0.03" stop-color="#E5AF40"/>
<stop offset="0.07" stop-color="#EECB5A"/>
<stop offset="0.12" stop-color="#F5DF6D"/>
<stop offset="0.16" stop-color="#F9EB78"/>
<stop offset="0.2" stop-color="#FBEF7C"/>
<stop offset="0.28" stop-color="#E6BA47"/>
<stop offset="0.34" stop-color="#D99A27"/>
<stop offset="0.36" stop-color="#CA8E24"/>
<stop offset="0.4" stop-color="#B67E20"/>
<stop offset="0.43" stop-color="#AA751D"/>
<stop offset="0.47" stop-color="#A7721D"/>
<stop offset="0.51" stop-color="#AB7721"/>
<stop offset="0.56" stop-color="#B8862D"/>
<stop offset="0.61" stop-color="#CD9F42"/>
<stop offset="0.66" stop-color="#EBC15E"/>
<stop offset="0.68" stop-color="#F7CF6A"/>
<stop offset="0.72" stop-color="#F3C963"/>
<stop offset="0.78" stop-color="#EBBA50"/>
<stop offset="0.85" stop-color="#DDA231"/>
<stop offset="0.87" stop-color="#D99A27"/>
<stop offset="1" stop-color="#F7CF6A"/>
</linearGradient>
<linearGradient id="paint8_linear_4028_32371" x1="17.1335" y1="33.1663" x2="25.7448" y2="33.3968" gradientUnits="userSpaceOnUse">
<stop stop-color="#DB9225"/>
<stop offset="0.03" stop-color="#E5AF40"/>
<stop offset="0.07" stop-color="#EECB5A"/>
<stop offset="0.12" stop-color="#F5DF6D"/>
<stop offset="0.16" stop-color="#F9EB78"/>
<stop offset="0.2" stop-color="#FBEF7C"/>
<stop offset="0.28" stop-color="#E6BA47"/>
<stop offset="0.34" stop-color="#D99A27"/>
<stop offset="0.36" stop-color="#CA8E24"/>
<stop offset="0.4" stop-color="#B67E20"/>
<stop offset="0.43" stop-color="#AA751D"/>
<stop offset="0.47" stop-color="#A7721D"/>
<stop offset="0.51" stop-color="#AB7721"/>
<stop offset="0.56" stop-color="#B8862D"/>
<stop offset="0.61" stop-color="#CD9F42"/>
<stop offset="0.66" stop-color="#EBC15E"/>
<stop offset="0.68" stop-color="#F7CF6A"/>
<stop offset="0.72" stop-color="#F3C963"/>
<stop offset="0.78" stop-color="#EBBA50"/>
<stop offset="0.85" stop-color="#DDA231"/>
<stop offset="0.87" stop-color="#D99A27"/>
<stop offset="1" stop-color="#F7CF6A"/>
</linearGradient>
<linearGradient id="paint9_linear_4028_32371" x1="17.1335" y1="32.939" x2="25.7583" y2="33.1831" gradientUnits="userSpaceOnUse">
<stop stop-color="#DB9225"/>
<stop offset="0.03" stop-color="#E5AF40"/>
<stop offset="0.07" stop-color="#EECB5A"/>
<stop offset="0.12" stop-color="#F5DF6D"/>
<stop offset="0.16" stop-color="#F9EB78"/>
<stop offset="0.2" stop-color="#FBEF7C"/>
<stop offset="0.28" stop-color="#E6BA47"/>
<stop offset="0.34" stop-color="#D99A27"/>
<stop offset="0.36" stop-color="#CA8E24"/>
<stop offset="0.4" stop-color="#B67E20"/>
<stop offset="0.43" stop-color="#AA751D"/>
<stop offset="0.47" stop-color="#A7721D"/>
<stop offset="0.51" stop-color="#AB7721"/>
<stop offset="0.56" stop-color="#B8862D"/>
<stop offset="0.61" stop-color="#CD9F42"/>
<stop offset="0.66" stop-color="#EBC15E"/>
<stop offset="0.68" stop-color="#F7CF6A"/>
<stop offset="0.72" stop-color="#F3C963"/>
<stop offset="0.78" stop-color="#EBBA50"/>
<stop offset="0.85" stop-color="#DDA231"/>
<stop offset="0.87" stop-color="#D99A27"/>
<stop offset="1" stop-color="#F7CF6A"/>
</linearGradient>
<linearGradient id="paint10_linear_4028_32371" x1="17.0662" y1="21.7138" x2="21.1559" y2="20.0356" gradientUnits="userSpaceOnUse">
<stop stop-color="#DB9225"/>
<stop offset="0.03" stop-color="#E5AF40"/>
<stop offset="0.07" stop-color="#EECB5A"/>
<stop offset="0.12" stop-color="#F5DF6D"/>
<stop offset="0.16" stop-color="#F9EB78"/>
<stop offset="0.2" stop-color="#FBEF7C"/>
<stop offset="0.28" stop-color="#E6BA47"/>
<stop offset="0.34" stop-color="#D99A27"/>
<stop offset="0.36" stop-color="#CA8E24"/>
<stop offset="0.4" stop-color="#B67E20"/>
<stop offset="0.43" stop-color="#AA751D"/>
<stop offset="0.47" stop-color="#A7721D"/>
<stop offset="0.51" stop-color="#AB7721"/>
<stop offset="0.56" stop-color="#B8862D"/>
<stop offset="0.61" stop-color="#CD9F42"/>
<stop offset="0.66" stop-color="#EBC15E"/>
<stop offset="0.68" stop-color="#F7CF6A"/>
<stop offset="0.72" stop-color="#F3C963"/>
<stop offset="0.78" stop-color="#EBBA50"/>
<stop offset="0.85" stop-color="#DDA231"/>
<stop offset="0.87" stop-color="#D99A27"/>
<stop offset="1" stop-color="#F7CF6A"/>
</linearGradient>
<linearGradient id="paint11_linear_4028_32371" x1="16.4328" y1="32.8715" x2="28.9649" y2="33.7798" gradientUnits="userSpaceOnUse">
<stop stop-color="#DB9225"/>
<stop offset="0.03" stop-color="#E5AF40"/>
<stop offset="0.07" stop-color="#EECB5A"/>
<stop offset="0.12" stop-color="#F5DF6D"/>
<stop offset="0.16" stop-color="#F9EB78"/>
<stop offset="0.2" stop-color="#FBEF7C"/>
<stop offset="0.28" stop-color="#E6BA47"/>
<stop offset="0.34" stop-color="#D99A27"/>
<stop offset="0.36" stop-color="#CA8E24"/>
<stop offset="0.4" stop-color="#B67E20"/>
<stop offset="0.43" stop-color="#AA751D"/>
<stop offset="0.47" stop-color="#A7721D"/>
<stop offset="0.51" stop-color="#AB7721"/>
<stop offset="0.56" stop-color="#B8862D"/>
<stop offset="0.61" stop-color="#CD9F42"/>
<stop offset="0.66" stop-color="#EBC15E"/>
<stop offset="0.68" stop-color="#F7CF6A"/>
<stop offset="0.72" stop-color="#F3C963"/>
<stop offset="0.78" stop-color="#EBBA50"/>
<stop offset="0.85" stop-color="#DDA231"/>
<stop offset="0.87" stop-color="#D99A27"/>
<stop offset="1" stop-color="#F7CF6A"/>
</linearGradient>
<linearGradient id="paint12_linear_4028_32371" x1="26.715" y1="27.5418" x2="34.7288" y2="29.3438" gradientUnits="userSpaceOnUse">
<stop stop-color="#DB9225"/>
<stop offset="0.03" stop-color="#E5AF40"/>
<stop offset="0.07" stop-color="#EECB5A"/>
<stop offset="0.12" stop-color="#F5DF6D"/>
<stop offset="0.16" stop-color="#F9EB78"/>
<stop offset="0.2" stop-color="#FBEF7C"/>
<stop offset="0.28" stop-color="#E6BA47"/>
<stop offset="0.34" stop-color="#D99A27"/>
<stop offset="0.36" stop-color="#CA8E24"/>
<stop offset="0.4" stop-color="#B67E20"/>
<stop offset="0.43" stop-color="#AA751D"/>
<stop offset="0.47" stop-color="#A7721D"/>
<stop offset="0.51" stop-color="#AB7721"/>
<stop offset="0.56" stop-color="#B8862D"/>
<stop offset="0.61" stop-color="#CD9F42"/>
<stop offset="0.66" stop-color="#EBC15E"/>
<stop offset="0.68" stop-color="#F7CF6A"/>
<stop offset="0.72" stop-color="#F3C963"/>
<stop offset="0.78" stop-color="#EBBA50"/>
<stop offset="0.85" stop-color="#DDA231"/>
<stop offset="0.87" stop-color="#D99A27"/>
<stop offset="1" stop-color="#F7CF6A"/>
</linearGradient>
<linearGradient id="paint13_linear_4028_32371" x1="26.787" y1="27.155" x2="34.8143" y2="28.9571" gradientUnits="userSpaceOnUse">
<stop stop-color="#DB9225"/>
<stop offset="0.03" stop-color="#E5AF40"/>
<stop offset="0.07" stop-color="#EECB5A"/>
<stop offset="0.12" stop-color="#F5DF6D"/>
<stop offset="0.16" stop-color="#F9EB78"/>
<stop offset="0.2" stop-color="#FBEF7C"/>
<stop offset="0.28" stop-color="#E6BA47"/>
<stop offset="0.34" stop-color="#D99A27"/>
<stop offset="0.36" stop-color="#CA8E24"/>
<stop offset="0.4" stop-color="#B67E20"/>
<stop offset="0.43" stop-color="#AA751D"/>
<stop offset="0.47" stop-color="#A7721D"/>
<stop offset="0.51" stop-color="#AB7721"/>
<stop offset="0.56" stop-color="#B8862D"/>
<stop offset="0.61" stop-color="#CD9F42"/>
<stop offset="0.66" stop-color="#EBC15E"/>
<stop offset="0.68" stop-color="#F7CF6A"/>
<stop offset="0.72" stop-color="#F3C963"/>
<stop offset="0.78" stop-color="#EBBA50"/>
<stop offset="0.85" stop-color="#DDA231"/>
<stop offset="0.87" stop-color="#D99A27"/>
<stop offset="1" stop-color="#F7CF6A"/>
</linearGradient>
<linearGradient id="paint14_linear_4028_32371" x1="26.6308" y1="27.9355" x2="34.658" y2="29.7376" gradientUnits="userSpaceOnUse">
<stop stop-color="#DB9225"/>
<stop offset="0.03" stop-color="#E5AF40"/>
<stop offset="0.07" stop-color="#EECB5A"/>
<stop offset="0.12" stop-color="#F5DF6D"/>
<stop offset="0.16" stop-color="#F9EB78"/>
<stop offset="0.2" stop-color="#FBEF7C"/>
<stop offset="0.28" stop-color="#E6BA47"/>
<stop offset="0.34" stop-color="#D99A27"/>
<stop offset="0.36" stop-color="#CA8E24"/>
<stop offset="0.4" stop-color="#B67E20"/>
<stop offset="0.43" stop-color="#AA751D"/>
<stop offset="0.47" stop-color="#A7721D"/>
<stop offset="0.51" stop-color="#AB7721"/>
<stop offset="0.56" stop-color="#B8862D"/>
<stop offset="0.61" stop-color="#CD9F42"/>
<stop offset="0.66" stop-color="#EBC15E"/>
<stop offset="0.68" stop-color="#F7CF6A"/>
<stop offset="0.72" stop-color="#F3C963"/>
<stop offset="0.78" stop-color="#EBBA50"/>
<stop offset="0.85" stop-color="#DDA231"/>
<stop offset="0.87" stop-color="#D99A27"/>
<stop offset="1" stop-color="#F7CF6A"/>
</linearGradient>
<linearGradient id="paint15_linear_4028_32371" x1="26.6566" y1="27.7577" x2="34.6704" y2="29.5597" gradientUnits="userSpaceOnUse">
<stop stop-color="#DB9225"/>
<stop offset="0.03" stop-color="#E5AF40"/>
<stop offset="0.07" stop-color="#EECB5A"/>
<stop offset="0.12" stop-color="#F5DF6D"/>
<stop offset="0.16" stop-color="#F9EB78"/>
<stop offset="0.2" stop-color="#FBEF7C"/>
<stop offset="0.28" stop-color="#E6BA47"/>
<stop offset="0.34" stop-color="#D99A27"/>
<stop offset="0.36" stop-color="#CA8E24"/>
<stop offset="0.4" stop-color="#B67E20"/>
<stop offset="0.43" stop-color="#AA751D"/>
<stop offset="0.47" stop-color="#A7721D"/>
<stop offset="0.51" stop-color="#AB7721"/>
<stop offset="0.56" stop-color="#B8862D"/>
<stop offset="0.61" stop-color="#CD9F42"/>
<stop offset="0.66" stop-color="#EBC15E"/>
<stop offset="0.68" stop-color="#F7CF6A"/>
<stop offset="0.72" stop-color="#F3C963"/>
<stop offset="0.78" stop-color="#EBBA50"/>
<stop offset="0.85" stop-color="#DDA231"/>
<stop offset="0.87" stop-color="#D99A27"/>
<stop offset="1" stop-color="#F7CF6A"/>
</linearGradient>
<linearGradient id="paint16_linear_4028_32371" x1="26.696" y1="27.6022" x2="34.7097" y2="29.4178" gradientUnits="userSpaceOnUse">
<stop stop-color="#DB9225"/>
<stop offset="0.03" stop-color="#E5AF40"/>
<stop offset="0.07" stop-color="#EECB5A"/>
<stop offset="0.12" stop-color="#F5DF6D"/>
<stop offset="0.16" stop-color="#F9EB78"/>
<stop offset="0.2" stop-color="#FBEF7C"/>
<stop offset="0.28" stop-color="#E6BA47"/>
<stop offset="0.34" stop-color="#D99A27"/>
<stop offset="0.36" stop-color="#CA8E24"/>
<stop offset="0.4" stop-color="#B67E20"/>
<stop offset="0.43" stop-color="#AA751D"/>
<stop offset="0.47" stop-color="#A7721D"/>
<stop offset="0.51" stop-color="#AB7721"/>
<stop offset="0.56" stop-color="#B8862D"/>
<stop offset="0.61" stop-color="#CD9F42"/>
<stop offset="0.66" stop-color="#EBC15E"/>
<stop offset="0.68" stop-color="#F7CF6A"/>
<stop offset="0.72" stop-color="#F3C963"/>
<stop offset="0.78" stop-color="#EBBA50"/>
<stop offset="0.85" stop-color="#DDA231"/>
<stop offset="0.87" stop-color="#D99A27"/>
<stop offset="1" stop-color="#F7CF6A"/>
</linearGradient>
<linearGradient id="paint17_linear_4028_32371" x1="26.7292" y1="27.49" x2="34.743" y2="29.2921" gradientUnits="userSpaceOnUse">
<stop stop-color="#DB9225"/>
<stop offset="0.03" stop-color="#E5AF40"/>
<stop offset="0.07" stop-color="#EECB5A"/>
<stop offset="0.12" stop-color="#F5DF6D"/>
<stop offset="0.16" stop-color="#F9EB78"/>
<stop offset="0.2" stop-color="#FBEF7C"/>
<stop offset="0.28" stop-color="#E6BA47"/>
<stop offset="0.34" stop-color="#D99A27"/>
<stop offset="0.36" stop-color="#CA8E24"/>
<stop offset="0.4" stop-color="#B67E20"/>
<stop offset="0.43" stop-color="#AA751D"/>
<stop offset="0.47" stop-color="#A7721D"/>
<stop offset="0.51" stop-color="#AB7721"/>
<stop offset="0.56" stop-color="#B8862D"/>
<stop offset="0.61" stop-color="#CD9F42"/>
<stop offset="0.66" stop-color="#EBC15E"/>
<stop offset="0.68" stop-color="#F7CF6A"/>
<stop offset="0.72" stop-color="#F3C963"/>
<stop offset="0.78" stop-color="#EBBA50"/>
<stop offset="0.85" stop-color="#DDA231"/>
<stop offset="0.87" stop-color="#D99A27"/>
<stop offset="1" stop-color="#F7CF6A"/>
</linearGradient>
<linearGradient id="paint18_linear_4028_32371" x1="26.7556" y1="27.3143" x2="34.7829" y2="29.1164" gradientUnits="userSpaceOnUse">
<stop stop-color="#DB9225"/>
<stop offset="0.03" stop-color="#E5AF40"/>
<stop offset="0.07" stop-color="#EECB5A"/>
<stop offset="0.12" stop-color="#F5DF6D"/>
<stop offset="0.16" stop-color="#F9EB78"/>
<stop offset="0.2" stop-color="#FBEF7C"/>
<stop offset="0.28" stop-color="#E6BA47"/>
<stop offset="0.34" stop-color="#D99A27"/>
<stop offset="0.36" stop-color="#CA8E24"/>
<stop offset="0.4" stop-color="#B67E20"/>
<stop offset="0.43" stop-color="#AA751D"/>
<stop offset="0.47" stop-color="#A7721D"/>
<stop offset="0.51" stop-color="#AB7721"/>
<stop offset="0.56" stop-color="#B8862D"/>
<stop offset="0.61" stop-color="#CD9F42"/>
<stop offset="0.66" stop-color="#EBC15E"/>
<stop offset="0.68" stop-color="#F7CF6A"/>
<stop offset="0.72" stop-color="#F3C963"/>
<stop offset="0.78" stop-color="#EBBA50"/>
<stop offset="0.85" stop-color="#DDA231"/>
<stop offset="0.87" stop-color="#D99A27"/>
<stop offset="1" stop-color="#F7CF6A"/>
</linearGradient>
<linearGradient id="paint19_linear_4028_32371" x1="10.6514" y1="26.8307" x2="30.4345" y2="26.8307" gradientUnits="userSpaceOnUse">
<stop stop-color="#DB9225"/>
<stop offset="0.03" stop-color="#E5AF40"/>
<stop offset="0.07" stop-color="#EECB5A"/>
<stop offset="0.12" stop-color="#F5DF6D"/>
<stop offset="0.16" stop-color="#F9EB78"/>
<stop offset="0.2" stop-color="#FBEF7C"/>
<stop offset="0.28" stop-color="#E6BA47"/>
<stop offset="0.34" stop-color="#D99A27"/>
<stop offset="0.36" stop-color="#CA8E24"/>
<stop offset="0.4" stop-color="#B67E20"/>
<stop offset="0.43" stop-color="#AA751D"/>
<stop offset="0.47" stop-color="#A7721D"/>
<stop offset="0.51" stop-color="#AB7721"/>
<stop offset="0.56" stop-color="#B8862D"/>
<stop offset="0.61" stop-color="#CD9F42"/>
<stop offset="0.66" stop-color="#EBC15E"/>
<stop offset="0.68" stop-color="#F7CF6A"/>
<stop offset="0.72" stop-color="#F3C963"/>
<stop offset="0.78" stop-color="#EBBA50"/>
<stop offset="0.85" stop-color="#DDA231"/>
<stop offset="0.87" stop-color="#D99A27"/>
<stop offset="1" stop-color="#F7CF6A"/>
</linearGradient>
<linearGradient id="paint20_linear_4028_32371" x1="10.4764" y1="26.844" x2="30.2461" y2="26.844" gradientUnits="userSpaceOnUse">
<stop stop-color="#DB9225"/>
<stop offset="0.03" stop-color="#E5AF40"/>
<stop offset="0.07" stop-color="#EECB5A"/>
<stop offset="0.12" stop-color="#F5DF6D"/>
<stop offset="0.16" stop-color="#F9EB78"/>
<stop offset="0.2" stop-color="#FBEF7C"/>
<stop offset="0.28" stop-color="#E6BA47"/>
<stop offset="0.34" stop-color="#D99A27"/>
<stop offset="0.36" stop-color="#CA8E24"/>
<stop offset="0.4" stop-color="#B67E20"/>
<stop offset="0.43" stop-color="#AA751D"/>
<stop offset="0.47" stop-color="#A7721D"/>
<stop offset="0.51" stop-color="#AB7721"/>
<stop offset="0.56" stop-color="#B8862D"/>
<stop offset="0.61" stop-color="#CD9F42"/>
<stop offset="0.66" stop-color="#EBC15E"/>
<stop offset="0.68" stop-color="#F7CF6A"/>
<stop offset="0.72" stop-color="#F3C963"/>
<stop offset="0.78" stop-color="#EBBA50"/>
<stop offset="0.85" stop-color="#DDA231"/>
<stop offset="0.87" stop-color="#D99A27"/>
<stop offset="1" stop-color="#F7CF6A"/>
</linearGradient>
<linearGradient id="paint21_linear_4028_32371" x1="11.4331" y1="26.7633" x2="30.0843" y2="26.7633" gradientUnits="userSpaceOnUse">
<stop stop-color="#DB9225"/>
<stop offset="0.03" stop-color="#E5AF40"/>
<stop offset="0.07" stop-color="#EECB5A"/>
<stop offset="0.12" stop-color="#F5DF6D"/>
<stop offset="0.16" stop-color="#F9EB78"/>
<stop offset="0.2" stop-color="#FBEF7C"/>
<stop offset="0.28" stop-color="#E6BA47"/>
<stop offset="0.34" stop-color="#D99A27"/>
<stop offset="0.36" stop-color="#CA8E24"/>
<stop offset="0.4" stop-color="#B67E20"/>
<stop offset="0.43" stop-color="#AA751D"/>
<stop offset="0.47" stop-color="#A7721D"/>
<stop offset="0.51" stop-color="#AB7721"/>
<stop offset="0.56" stop-color="#B8862D"/>
<stop offset="0.61" stop-color="#CD9F42"/>
<stop offset="0.66" stop-color="#EBC15E"/>
<stop offset="0.68" stop-color="#F7CF6A"/>
<stop offset="0.72" stop-color="#F3C963"/>
<stop offset="0.78" stop-color="#EBBA50"/>
<stop offset="0.85" stop-color="#DDA231"/>
<stop offset="0.87" stop-color="#D99A27"/>
<stop offset="1" stop-color="#F7CF6A"/>
</linearGradient>
<linearGradient id="paint22_linear_4028_32371" x1="13.2524" y1="26.9113" x2="27.416" y2="26.9113" gradientUnits="userSpaceOnUse">
<stop stop-color="#DB9225"/>
<stop offset="0.03" stop-color="#E5AF40"/>
<stop offset="0.07" stop-color="#EECB5A"/>
<stop offset="0.12" stop-color="#F5DF6D"/>
<stop offset="0.16" stop-color="#F9EB78"/>
<stop offset="0.2" stop-color="#FBEF7C"/>
<stop offset="0.28" stop-color="#E6BA47"/>
<stop offset="0.34" stop-color="#D99A27"/>
<stop offset="0.36" stop-color="#CA8E24"/>
<stop offset="0.4" stop-color="#B67E20"/>
<stop offset="0.43" stop-color="#AA751D"/>
<stop offset="0.47" stop-color="#A7721D"/>
<stop offset="0.51" stop-color="#AB7721"/>
<stop offset="0.56" stop-color="#B8862D"/>
<stop offset="0.61" stop-color="#CD9F42"/>
<stop offset="0.66" stop-color="#EBC15E"/>
<stop offset="0.68" stop-color="#F7CF6A"/>
<stop offset="0.72" stop-color="#F3C963"/>
<stop offset="0.78" stop-color="#EBBA50"/>
<stop offset="0.85" stop-color="#DDA231"/>
<stop offset="0.87" stop-color="#D99A27"/>
<stop offset="1" stop-color="#F7CF6A"/>
</linearGradient>
<linearGradient id="paint23_linear_4028_32371" x1="21.9069" y1="33.7546" x2="26.0836" y2="27.9291" gradientUnits="userSpaceOnUse">
<stop stop-color="#DB9225"/>
<stop offset="0.03" stop-color="#E5AF40"/>
<stop offset="0.07" stop-color="#EECB5A"/>
<stop offset="0.12" stop-color="#F5DF6D"/>
<stop offset="0.16" stop-color="#F9EB78"/>
<stop offset="0.2" stop-color="#FBEF7C"/>
<stop offset="0.28" stop-color="#E6BA47"/>
<stop offset="0.34" stop-color="#D99A27"/>
<stop offset="0.36" stop-color="#CA8E24"/>
<stop offset="0.4" stop-color="#B67E20"/>
<stop offset="0.43" stop-color="#AA751D"/>
<stop offset="0.47" stop-color="#A7721D"/>
<stop offset="0.51" stop-color="#AB7721"/>
<stop offset="0.56" stop-color="#B8862D"/>
<stop offset="0.61" stop-color="#CD9F42"/>
<stop offset="0.66" stop-color="#EBC15E"/>
<stop offset="0.68" stop-color="#F7CF6A"/>
<stop offset="0.72" stop-color="#F3C963"/>
<stop offset="0.78" stop-color="#EBBA50"/>
<stop offset="0.85" stop-color="#DDA231"/>
<stop offset="0.87" stop-color="#D99A27"/>
<stop offset="1" stop-color="#F7CF6A"/>
</linearGradient>
<linearGradient id="paint24_linear_4028_32371" x1="21.3292" y1="34.1736" x2="26.0772" y2="28.7978" gradientUnits="userSpaceOnUse">
<stop stop-color="#DB9225"/>
<stop offset="0.03" stop-color="#E5AF40"/>
<stop offset="0.07" stop-color="#EECB5A"/>
<stop offset="0.12" stop-color="#F5DF6D"/>
<stop offset="0.16" stop-color="#F9EB78"/>
<stop offset="0.2" stop-color="#FBEF7C"/>
<stop offset="0.28" stop-color="#E6BA47"/>
<stop offset="0.34" stop-color="#D99A27"/>
<stop offset="0.36" stop-color="#CA8E24"/>
<stop offset="0.4" stop-color="#B67E20"/>
<stop offset="0.43" stop-color="#AA751D"/>
<stop offset="0.47" stop-color="#A7721D"/>
<stop offset="0.51" stop-color="#AB7721"/>
<stop offset="0.56" stop-color="#B8862D"/>
<stop offset="0.61" stop-color="#CD9F42"/>
<stop offset="0.66" stop-color="#EBC15E"/>
<stop offset="0.68" stop-color="#F7CF6A"/>
<stop offset="0.72" stop-color="#F3C963"/>
<stop offset="0.78" stop-color="#EBBA50"/>
<stop offset="0.85" stop-color="#DDA231"/>
<stop offset="0.87" stop-color="#D99A27"/>
<stop offset="1" stop-color="#F7CF6A"/>
</linearGradient>
<linearGradient id="paint25_linear_4028_32371" x1="13.9207" y1="26.231" x2="13.4817" y2="19.0908" gradientUnits="userSpaceOnUse">
<stop stop-color="#DB9225"/>
<stop offset="0.03" stop-color="#E5AF40"/>
<stop offset="0.07" stop-color="#EECB5A"/>
<stop offset="0.12" stop-color="#F5DF6D"/>
<stop offset="0.16" stop-color="#F9EB78"/>
<stop offset="0.2" stop-color="#FBEF7C"/>
<stop offset="0.28" stop-color="#E6BA47"/>
<stop offset="0.34" stop-color="#D99A27"/>
<stop offset="0.36" stop-color="#CA8E24"/>
<stop offset="0.4" stop-color="#B67E20"/>
<stop offset="0.43" stop-color="#AA751D"/>
<stop offset="0.47" stop-color="#A7721D"/>
<stop offset="0.51" stop-color="#AB7721"/>
<stop offset="0.56" stop-color="#B8862D"/>
<stop offset="0.61" stop-color="#CD9F42"/>
<stop offset="0.66" stop-color="#EBC15E"/>
<stop offset="0.68" stop-color="#F7CF6A"/>
<stop offset="0.72" stop-color="#F3C963"/>
<stop offset="0.78" stop-color="#EBBA50"/>
<stop offset="0.85" stop-color="#DDA231"/>
<stop offset="0.87" stop-color="#D99A27"/>
<stop offset="1" stop-color="#F7CF6A"/>
</linearGradient>
<linearGradient id="paint26_linear_4028_32371" x1="14.3823" y1="25.9061" x2="14.3266" y2="18.7528" gradientUnits="userSpaceOnUse">
<stop stop-color="#DB9225"/>
<stop offset="0.03" stop-color="#E5AF40"/>
<stop offset="0.07" stop-color="#EECB5A"/>
<stop offset="0.12" stop-color="#F5DF6D"/>
<stop offset="0.16" stop-color="#F9EB78"/>
<stop offset="0.2" stop-color="#FBEF7C"/>
<stop offset="0.28" stop-color="#E6BA47"/>
<stop offset="0.34" stop-color="#D99A27"/>
<stop offset="0.36" stop-color="#CA8E24"/>
<stop offset="0.4" stop-color="#B67E20"/>
<stop offset="0.43" stop-color="#AA751D"/>
<stop offset="0.47" stop-color="#A7721D"/>
<stop offset="0.51" stop-color="#AB7721"/>
<stop offset="0.56" stop-color="#B8862D"/>
<stop offset="0.61" stop-color="#CD9F42"/>
<stop offset="0.66" stop-color="#EBC15E"/>
<stop offset="0.68" stop-color="#F7CF6A"/>
<stop offset="0.72" stop-color="#F3C963"/>
<stop offset="0.78" stop-color="#EBBA50"/>
<stop offset="0.85" stop-color="#DDA231"/>
<stop offset="0.87" stop-color="#D99A27"/>
<stop offset="1" stop-color="#F7CF6A"/>
</linearGradient>
<linearGradient id="paint27_linear_4028_32371" x1="14.8454" y1="25.774" x2="14.8016" y2="18.6267" gradientUnits="userSpaceOnUse">
<stop stop-color="#DB9225"/>
<stop offset="0.03" stop-color="#E5AF40"/>
<stop offset="0.07" stop-color="#EECB5A"/>
<stop offset="0.12" stop-color="#F5DF6D"/>
<stop offset="0.16" stop-color="#F9EB78"/>
<stop offset="0.2" stop-color="#FBEF7C"/>
<stop offset="0.28" stop-color="#E6BA47"/>
<stop offset="0.34" stop-color="#D99A27"/>
<stop offset="0.36" stop-color="#CA8E24"/>
<stop offset="0.4" stop-color="#B67E20"/>
<stop offset="0.43" stop-color="#AA751D"/>
<stop offset="0.47" stop-color="#A7721D"/>
<stop offset="0.51" stop-color="#AB7721"/>
<stop offset="0.56" stop-color="#B8862D"/>
<stop offset="0.61" stop-color="#CD9F42"/>
<stop offset="0.66" stop-color="#EBC15E"/>
<stop offset="0.68" stop-color="#F7CF6A"/>
<stop offset="0.72" stop-color="#F3C963"/>
<stop offset="0.78" stop-color="#EBBA50"/>
<stop offset="0.85" stop-color="#DDA231"/>
<stop offset="0.87" stop-color="#D99A27"/>
<stop offset="1" stop-color="#F7CF6A"/>
</linearGradient>
<linearGradient id="paint28_linear_4028_32371" x1="20.209" y1="20.9762" x2="27.3018" y2="19.8035" gradientUnits="userSpaceOnUse">
<stop stop-color="#DB9225"/>
<stop offset="0.03" stop-color="#E5AF40"/>
<stop offset="0.07" stop-color="#EECB5A"/>
<stop offset="0.12" stop-color="#F5DF6D"/>
<stop offset="0.16" stop-color="#F9EB78"/>
<stop offset="0.2" stop-color="#FBEF7C"/>
<stop offset="0.28" stop-color="#E6BA47"/>
<stop offset="0.34" stop-color="#D99A27"/>
<stop offset="0.36" stop-color="#CA8E24"/>
<stop offset="0.4" stop-color="#B67E20"/>
<stop offset="0.43" stop-color="#AA751D"/>
<stop offset="0.47" stop-color="#A7721D"/>
<stop offset="0.51" stop-color="#AB7721"/>
<stop offset="0.56" stop-color="#B8862D"/>
<stop offset="0.61" stop-color="#CD9F42"/>
<stop offset="0.66" stop-color="#EBC15E"/>
<stop offset="0.68" stop-color="#F7CF6A"/>
<stop offset="0.72" stop-color="#F3C963"/>
<stop offset="0.78" stop-color="#EBBA50"/>
<stop offset="0.85" stop-color="#DDA231"/>
<stop offset="0.87" stop-color="#D99A27"/>
<stop offset="1" stop-color="#F7CF6A"/>
</linearGradient>
<linearGradient id="paint29_linear_4028_32371" x1="20.8239" y1="21.3471" x2="27.9904" y2="20.6962" gradientUnits="userSpaceOnUse">
<stop stop-color="#DB9225"/>
<stop offset="0.03" stop-color="#E5AF40"/>
<stop offset="0.07" stop-color="#EECB5A"/>
<stop offset="0.12" stop-color="#F5DF6D"/>
<stop offset="0.16" stop-color="#F9EB78"/>
<stop offset="0.2" stop-color="#FBEF7C"/>
<stop offset="0.28" stop-color="#E6BA47"/>
<stop offset="0.34" stop-color="#D99A27"/>
<stop offset="0.36" stop-color="#CA8E24"/>
<stop offset="0.4" stop-color="#B67E20"/>
<stop offset="0.43" stop-color="#AA751D"/>
<stop offset="0.47" stop-color="#A7721D"/>
<stop offset="0.51" stop-color="#AB7721"/>
<stop offset="0.56" stop-color="#B8862D"/>
<stop offset="0.61" stop-color="#CD9F42"/>
<stop offset="0.66" stop-color="#EBC15E"/>
<stop offset="0.68" stop-color="#F7CF6A"/>
<stop offset="0.72" stop-color="#F3C963"/>
<stop offset="0.78" stop-color="#EBBA50"/>
<stop offset="0.85" stop-color="#DDA231"/>
<stop offset="0.87" stop-color="#D99A27"/>
<stop offset="1" stop-color="#F7CF6A"/>
</linearGradient>
<linearGradient id="paint30_linear_4028_32371" x1="21.0582" y1="21.6942" x2="28.241" y2="21.5419" gradientUnits="userSpaceOnUse">
<stop stop-color="#DB9225"/>
<stop offset="0.03" stop-color="#E5AF40"/>
<stop offset="0.07" stop-color="#EECB5A"/>
<stop offset="0.12" stop-color="#F5DF6D"/>
<stop offset="0.16" stop-color="#F9EB78"/>
<stop offset="0.2" stop-color="#FBEF7C"/>
<stop offset="0.28" stop-color="#E6BA47"/>
<stop offset="0.34" stop-color="#D99A27"/>
<stop offset="0.36" stop-color="#CA8E24"/>
<stop offset="0.4" stop-color="#B67E20"/>
<stop offset="0.43" stop-color="#AA751D"/>
<stop offset="0.47" stop-color="#A7721D"/>
<stop offset="0.51" stop-color="#AB7721"/>
<stop offset="0.56" stop-color="#B8862D"/>
<stop offset="0.61" stop-color="#CD9F42"/>
<stop offset="0.66" stop-color="#EBC15E"/>
<stop offset="0.68" stop-color="#F7CF6A"/>
<stop offset="0.72" stop-color="#F3C963"/>
<stop offset="0.78" stop-color="#EBBA50"/>
<stop offset="0.85" stop-color="#DDA231"/>
<stop offset="0.87" stop-color="#D99A27"/>
<stop offset="1" stop-color="#F7CF6A"/>
</linearGradient>
<linearGradient id="paint31_linear_4028_32371" x1="21.1363" y1="30.7699" x2="24.3935" y2="37.1488" gradientUnits="userSpaceOnUse">
<stop stop-color="#DB9225"/>
<stop offset="0.03" stop-color="#E5AF40"/>
<stop offset="0.07" stop-color="#EECB5A"/>
<stop offset="0.12" stop-color="#F5DF6D"/>
<stop offset="0.16" stop-color="#F9EB78"/>
<stop offset="0.2" stop-color="#FBEF7C"/>
<stop offset="0.28" stop-color="#E6BA47"/>
<stop offset="0.34" stop-color="#D99A27"/>
<stop offset="0.36" stop-color="#CA8E24"/>
<stop offset="0.4" stop-color="#B67E20"/>
<stop offset="0.43" stop-color="#AA751D"/>
<stop offset="0.47" stop-color="#A7721D"/>
<stop offset="0.51" stop-color="#AB7721"/>
<stop offset="0.56" stop-color="#B8862D"/>
<stop offset="0.61" stop-color="#CD9F42"/>
<stop offset="0.66" stop-color="#EBC15E"/>
<stop offset="0.68" stop-color="#F7CF6A"/>
<stop offset="0.72" stop-color="#F3C963"/>
<stop offset="0.78" stop-color="#EBBA50"/>
<stop offset="0.85" stop-color="#DDA231"/>
<stop offset="0.87" stop-color="#D99A27"/>
<stop offset="1" stop-color="#F7CF6A"/>
</linearGradient>
<linearGradient id="paint32_linear_4028_32371" x1="20.3866" y1="34.7796" x2="26.0567" y2="30.3743" gradientUnits="userSpaceOnUse">
<stop stop-color="#DB9225"/>
<stop offset="0.03" stop-color="#E5AF40"/>
<stop offset="0.07" stop-color="#EECB5A"/>
<stop offset="0.12" stop-color="#F5DF6D"/>
<stop offset="0.16" stop-color="#F9EB78"/>
<stop offset="0.2" stop-color="#FBEF7C"/>
<stop offset="0.28" stop-color="#E6BA47"/>
<stop offset="0.34" stop-color="#D99A27"/>
<stop offset="0.36" stop-color="#CA8E24"/>
<stop offset="0.4" stop-color="#B67E20"/>
<stop offset="0.43" stop-color="#AA751D"/>
<stop offset="0.47" stop-color="#A7721D"/>
<stop offset="0.51" stop-color="#AB7721"/>
<stop offset="0.56" stop-color="#B8862D"/>
<stop offset="0.61" stop-color="#CD9F42"/>
<stop offset="0.66" stop-color="#EBC15E"/>
<stop offset="0.68" stop-color="#F7CF6A"/>
<stop offset="0.72" stop-color="#F3C963"/>
<stop offset="0.78" stop-color="#EBBA50"/>
<stop offset="0.85" stop-color="#DDA231"/>
<stop offset="0.87" stop-color="#D99A27"/>
<stop offset="1" stop-color="#F7CF6A"/>
</linearGradient>
<linearGradient id="paint33_linear_4028_32371" x1="13.387" y1="26.6964" x2="28.1031" y2="26.6964" gradientUnits="userSpaceOnUse">
<stop stop-color="#DB9225"/>
<stop offset="0.03" stop-color="#E5AF40"/>
<stop offset="0.07" stop-color="#EECB5A"/>
<stop offset="0.12" stop-color="#F5DF6D"/>
<stop offset="0.16" stop-color="#F9EB78"/>
<stop offset="0.2" stop-color="#FBEF7C"/>
<stop offset="0.28" stop-color="#E6BA47"/>
<stop offset="0.34" stop-color="#D99A27"/>
<stop offset="0.36" stop-color="#CA8E24"/>
<stop offset="0.4" stop-color="#B67E20"/>
<stop offset="0.43" stop-color="#AA751D"/>
<stop offset="0.47" stop-color="#A7721D"/>
<stop offset="0.51" stop-color="#AB7721"/>
<stop offset="0.56" stop-color="#B8862D"/>
<stop offset="0.61" stop-color="#CD9F42"/>
<stop offset="0.66" stop-color="#EBC15E"/>
<stop offset="0.68" stop-color="#F7CF6A"/>
<stop offset="0.72" stop-color="#F3C963"/>
<stop offset="0.78" stop-color="#EBBA50"/>
<stop offset="0.85" stop-color="#DDA231"/>
<stop offset="0.87" stop-color="#D99A27"/>
<stop offset="1" stop-color="#F7CF6A"/>
</linearGradient>
<linearGradient id="paint34_linear_4028_32371" x1="13.2927" y1="26.6964" x2="28.184" y2="26.6964" gradientUnits="userSpaceOnUse">
<stop stop-color="#F7CF6A"/>
<stop offset="0.13" stop-color="#D99A27"/>
<stop offset="0.15" stop-color="#DDA231"/>
<stop offset="0.22" stop-color="#EBBA50"/>
<stop offset="0.28" stop-color="#F3C963"/>
<stop offset="0.32" stop-color="#F7CF6A"/>
<stop offset="0.34" stop-color="#EBC15E"/>
<stop offset="0.39" stop-color="#CD9F42"/>
<stop offset="0.44" stop-color="#B8862D"/>
<stop offset="0.49" stop-color="#AB7721"/>
<stop offset="0.53" stop-color="#A7721D"/>
<stop offset="0.57" stop-color="#AA751D"/>
<stop offset="0.6" stop-color="#B67E20"/>
<stop offset="0.64" stop-color="#CA8E24"/>
<stop offset="0.66" stop-color="#D99A27"/>
<stop offset="0.72" stop-color="#E6BA47"/>
<stop offset="0.8" stop-color="#FBEF7C"/>
<stop offset="0.84" stop-color="#F9EB78"/>
<stop offset="0.88" stop-color="#F5DF6D"/>
<stop offset="0.93" stop-color="#EECB5A"/>
<stop offset="0.97" stop-color="#E5AF40"/>
<stop offset="1" stop-color="#DB9225"/>
</linearGradient>
<linearGradient id="paint35_linear_4028_32371" x1="16.0015" y1="26.7368" x2="21.1764" y2="26.7368" gradientUnits="userSpaceOnUse">
<stop stop-color="#DB9225"/>
<stop offset="0.03" stop-color="#E5AF40"/>
<stop offset="0.07" stop-color="#EECB5A"/>
<stop offset="0.12" stop-color="#F5DF6D"/>
<stop offset="0.16" stop-color="#F9EB78"/>
<stop offset="0.2" stop-color="#FBEF7C"/>
<stop offset="0.28" stop-color="#E6BA47"/>
<stop offset="0.34" stop-color="#D99A27"/>
<stop offset="0.36" stop-color="#CA8E24"/>
<stop offset="0.4" stop-color="#B67E20"/>
<stop offset="0.43" stop-color="#AA751D"/>
<stop offset="0.47" stop-color="#A7721D"/>
<stop offset="0.51" stop-color="#AB7721"/>
<stop offset="0.56" stop-color="#B8862D"/>
<stop offset="0.61" stop-color="#CD9F42"/>
<stop offset="0.66" stop-color="#EBC15E"/>
<stop offset="0.68" stop-color="#F7CF6A"/>
<stop offset="0.72" stop-color="#F3C963"/>
<stop offset="0.78" stop-color="#EBBA50"/>
<stop offset="0.85" stop-color="#DDA231"/>
<stop offset="0.87" stop-color="#D99A27"/>
<stop offset="1" stop-color="#F7CF6A"/>
</linearGradient>
</defs>
</svg>
