<svg width="35" height="34" viewBox="0 0 35 34" fill="none" xmlns="http://www.w3.org/2000/svg">
<g clip-path="url(#clip0_3995_31726)">
<g clip-path="url(#clip1_3995_31726)">
<path d="M8.21666 12.3662C7.8886 13.0864 7.6414 13.8494 7.48576 14.6459C7.13785 14.9541 6.80979 15.27 6.50461 15.5935C4.45228 17.7679 3.65424 19.9713 4.25849 21.7932C4.37293 22.1411 4.18525 22.518 3.83734 22.6324C3.73816 22.666 3.63593 22.6752 3.53827 22.6614C3.29718 22.6279 3.0805 22.4615 2.9981 22.2113C2.22905 19.9041 3.13391 17.2308 5.53872 14.681C6.31235 13.8616 7.2111 13.0864 8.21666 12.3662Z" fill="#003F8F"/>
<path d="M30.2659 9.78859C30.0905 10.109 29.6876 10.2311 29.3672 10.0571C28.1541 9.40406 26.6007 9.0058 24.8505 8.86542C24.2554 8.33136 23.5947 7.86138 22.8867 7.47228C25.6532 7.40972 28.1358 7.88274 29.9989 8.88678C30.3194 9.06226 30.4414 9.4651 30.2675 9.78859H30.2659Z" fill="#003F8F"/>
<path d="M29.0496 7.73752L29.3487 9.26341L27.8228 9.56096C27.2323 9.67693 27.0751 10.449 27.5741 10.7847C27.7221 10.8854 27.9052 10.9221 28.0807 10.887L30.1422 10.4841C30.5786 10.3987 30.8639 9.97601 30.7785 9.53807L30.3756 7.47659C30.3405 7.30111 30.2383 7.14547 30.0903 7.04476C29.5898 6.70906 28.9337 7.14395 29.0496 7.73599V7.73752Z" fill="#003F8F"/>
<path d="M9.14281 26.0135C7.93583 25.8503 6.82193 25.5634 5.8362 25.1499C5.49745 25.008 5.33876 24.6189 5.48066 24.2801C5.62257 23.9414 6.0132 23.7827 6.35043 23.9246C9.56549 25.272 14.5491 25.1148 19.3572 23.5156C26.8081 21.0391 32.0206 15.6939 30.7419 11.8456C30.6259 11.4977 30.8151 11.1208 31.163 11.0048C31.5109 10.8889 31.8878 11.0781 32.0038 11.426C33.5632 16.1135 28.1921 21.9791 19.7783 24.776C16.0399 26.0196 12.2831 26.4377 9.14587 26.0135H9.14281Z" fill="#59358A"/>
<path d="M6.91822 26.1892L6.44672 24.7076L7.92837 24.2376C8.5021 24.056 8.56924 23.2702 8.03518 22.9925C7.87648 22.9101 7.69033 22.8948 7.51943 22.9482L5.51745 23.5845C5.09325 23.7188 4.85826 24.172 4.99407 24.5962L5.63037 26.5982C5.6853 26.7691 5.80432 26.911 5.96454 26.9934C6.50013 27.2696 7.10286 26.7614 6.91975 26.1877L6.91822 26.1892Z" fill="#003F8F"/>
<path d="M19.9858 25.406C21.7634 24.8139 23.4389 24.08 24.9571 23.2285C23.1871 25.1649 20.6434 26.378 17.8175 26.378C17.4161 26.378 17.0194 26.3535 16.6318 26.3047C17.7488 26.0758 18.8703 25.7783 19.9858 25.406Z" fill="#003F8F"/>
<path d="M27.1392 19.2881C26.8935 20.1823 26.5212 21.0246 26.0436 21.7951C24.2491 22.967 22.1327 23.9924 19.7752 24.7767C18.1379 25.32 16.4976 25.7075 14.9076 25.9334C14.0638 25.6679 13.2688 25.2894 12.5425 24.8149C14.7108 24.7172 17.0546 24.2808 19.3571 23.5148C22.4333 22.4909 25.1265 20.9818 27.1392 19.2896V19.2881Z" fill="#59358A"/>
<path d="M27.4888 16.7063C27.4888 17.2068 27.4506 17.6981 27.3774 18.1788C25.3709 20.0541 22.4701 21.7799 19.1452 22.8846C18.9499 22.9487 18.7561 23.0113 18.5608 23.0708C18.1335 23.2035 17.7063 23.3226 17.276 23.4294C15.3717 23.91 13.4597 24.1649 11.6637 24.1694C9.51527 22.3948 8.14502 19.7108 8.14502 16.7063C8.14502 11.3672 12.4755 7.03516 17.8161 7.03516C23.1568 7.03516 27.4873 11.3672 27.4873 16.7063H27.4888Z" fill="#003F8F"/>
<path d="M17.8164 22.1064C16.115 22.1064 14.731 20.7224 14.731 19.021C14.731 18.5953 15.0759 18.2504 15.5016 18.2504C15.9273 18.2504 16.2722 18.5953 16.2722 19.021C16.2722 19.8709 16.9649 20.5637 17.8149 20.5637C18.6648 20.5637 19.3575 19.8709 19.3575 19.021C19.3575 18.1711 18.6648 17.4783 17.8149 17.4783C16.1135 17.4783 14.7295 16.0944 14.7295 14.393C14.7295 12.6916 16.1135 11.3076 17.8149 11.3076C19.5162 11.3076 20.9002 12.6916 20.9002 14.393C20.9002 14.8187 20.5554 15.1636 20.1296 15.1636C19.7039 15.1636 19.3591 14.8187 19.3591 14.393C19.3591 13.5431 18.6663 12.8503 17.8164 12.8503C16.9665 12.8503 16.2737 13.5431 16.2737 14.393C16.2737 15.2429 16.9665 15.9357 17.8164 15.9357C19.5178 15.9357 20.9017 17.3196 20.9017 19.021C20.9017 20.7224 19.5178 22.1064 17.8164 22.1064Z" fill="white"/>
<path d="M17.8165 12.8504C17.3908 12.8504 17.0459 12.5056 17.0459 12.0799V10.5372C17.0459 10.1115 17.3908 9.7666 17.8165 9.7666C18.2422 9.7666 18.5871 10.1115 18.5871 10.5372V12.0799C18.5871 12.5056 18.2422 12.8504 17.8165 12.8504Z" fill="white"/>
<path d="M18.5886 21.3341V22.8752C18.5886 22.9423 18.5794 23.008 18.5626 23.0705C18.1354 23.2033 17.7081 23.3223 17.2778 23.4291C17.1344 23.2872 17.0459 23.0919 17.0459 22.8752V21.3341C17.0459 20.9068 17.3908 20.5635 17.8195 20.5635C18.2483 20.5635 18.5901 20.9068 18.5901 21.3341H18.5886Z" fill="white"/>
<path d="M23.9869 17.4767C24.4125 17.4767 24.7575 17.1317 24.7575 16.7061C24.7575 16.2805 24.4125 15.9355 23.9869 15.9355C23.5613 15.9355 23.2163 16.2805 23.2163 16.7061C23.2163 17.1317 23.5613 17.4767 23.9869 17.4767Z" fill="white"/>
<path d="M11.6456 17.4767C12.0712 17.4767 12.4162 17.1317 12.4162 16.7061C12.4162 16.2805 12.0712 15.9355 11.6456 15.9355C11.22 15.9355 10.875 16.2805 10.875 16.7061C10.875 17.1317 11.22 17.4767 11.6456 17.4767Z" fill="white"/>
<path d="M26.042 21.7957C24.2475 22.9676 22.1311 23.993 19.7736 24.7773C18.1363 25.3205 16.4959 25.7081 14.906 25.9339C13.7814 26.0957 12.6827 26.175 11.6253 26.175C10.7632 26.175 9.93307 26.1201 9.14266 26.0133C7.93568 25.85 6.82177 25.5631 5.83452 25.1496C5.49729 25.0077 5.33555 24.6186 5.48051 24.2799C5.58732 24.025 5.83452 23.8725 6.09392 23.8725C6.17784 23.8725 6.26482 23.8908 6.34874 23.9259C7.8014 24.5332 9.61721 24.8368 11.6161 24.8368C11.9198 24.8368 12.2295 24.8307 12.5424 24.817C14.7107 24.7193 17.0544 24.2829 19.357 23.5169C22.4332 22.493 25.1264 20.9839 27.1391 19.2917C30.0047 16.8839 31.4909 14.1098 30.7402 11.8484C30.6257 11.5005 30.8134 11.1236 31.1613 11.0092C31.23 10.9847 31.3002 10.9756 31.3719 10.9756C31.6481 10.9756 31.9075 11.1511 32.0006 11.4303C33.1236 14.8056 30.6547 18.7897 26.0435 21.8003L26.042 21.7957Z" fill="#59358A"/>
<path d="M26.042 21.7957C24.2475 22.9676 22.1311 23.993 19.7736 24.7773C18.1363 25.3205 16.4959 25.7081 14.906 25.9339C13.7814 26.0957 12.6827 26.175 11.6253 26.175C10.7632 26.175 9.93307 26.1201 9.14266 26.0133C7.93568 25.85 6.82177 25.5631 5.83452 25.1496C5.49729 25.0077 5.33555 24.6186 5.48051 24.2799C5.58732 24.025 5.83452 23.8725 6.09392 23.8725C6.17784 23.8725 6.26482 23.8908 6.34874 23.9259C7.8014 24.5332 9.61721 24.8368 11.6161 24.8368C11.9198 24.8368 12.2295 24.8307 12.5424 24.817C14.7107 24.7193 17.0544 24.2829 19.357 23.5169C22.4332 22.493 25.1264 20.9839 27.1391 19.2917C30.0047 16.8839 31.4909 14.1098 30.7402 11.8484C30.6257 11.5005 30.8134 11.1236 31.1613 11.0092C31.23 10.9847 31.3002 10.9756 31.3719 10.9756C31.6481 10.9756 31.9075 11.1511 32.0006 11.4303C33.1236 14.8056 30.6547 18.7897 26.0435 21.8003L26.042 21.7957Z" fill="#003F8F"/>
</g>
</g>
<defs>
<clipPath id="clip0_3995_31726">
<rect width="34" height="34" fill="white" transform="translate(0.5)"/>
</clipPath>
<clipPath id="clip1_3995_31726">
<rect width="34" height="34" fill="white" transform="translate(0.5)"/>
</clipPath>
</defs>
</svg>
