<svg width="32" height="32" viewBox="0 0 24 24" fill="none" xmlns="http://www.w3.org/2000/svg">
<g clip-path="url(#clip0_3995_31797)">
<path d="M17.2122 12.1514C17.2122 12.1514 17.2038 12.1514 17.1953 12.1514C17.1953 12.1514 17.2122 12.1593 17.2122 12.1673V12.1514Z" fill="white"/>
<path d="M14.826 11.1234C14.826 11.1234 14.8079 11.1234 14.7989 11.1234C14.7898 11.1234 14.7717 11.1234 14.7627 11.1074C14.7808 11.1074 14.8079 11.1154 14.826 11.1234Z" fill="white"/>
<path d="M21.4186 12.0319L19.8722 13.4263L20.5686 13.9602C20.6952 14.0558 20.7042 14.2231 20.5957 14.3347C20.4872 14.4462 20.2973 14.4542 20.1707 14.3586L19.4562 13.8008C19.3929 13.745 19.3206 13.6972 19.2573 13.6414C19.2573 13.6414 19.2392 13.6335 19.2392 13.6255C19.0493 13.4741 18.8503 13.3147 18.6695 13.1633L18.5338 13.0598C18.1178 12.7251 17.6837 12.4223 17.2316 12.1514C17.2316 12.1514 17.2135 12.1434 17.2135 12.1355C16.4539 11.6892 15.658 11.3546 14.8441 11.1155C14.8261 11.1155 14.7989 11.0996 14.7808 11.0996C13.8675 10.8367 12.927 10.7092 11.9865 10.7092H11.9322C9.50859 10.7092 7.10307 11.5697 5.17684 13.2669L4.74277 13.6414C4.74277 13.6414 4.72468 13.6574 4.71564 13.6653L3.85652 14.4064C3.80226 14.4542 3.72087 14.4861 3.64852 14.4861C3.57618 14.4861 3.49479 14.4622 3.43149 14.4064C3.31392 14.3028 3.31392 14.1355 3.43149 14.0319L4.09165 13.4582L2.58141 12C2.47289 11.8884 2.48194 11.7211 2.5995 11.6255C2.72611 11.5299 2.91602 11.5378 3.02454 11.6414L4.50764 13.0837L4.72468 12.8924C5.18589 12.4861 5.68327 12.1195 6.20778 11.7928L5.06832 10.255C4.97789 10.1355 5.01407 9.96813 5.15876 9.88845C5.30345 9.80876 5.48432 9.84064 5.57475 9.96813L6.71421 11.506C7.37437 11.1474 8.07975 10.8526 8.80321 10.6375L8.14305 8.9004C8.08879 8.76494 8.17922 8.61355 8.33296 8.56574C8.4867 8.51793 8.65852 8.58964 8.71278 8.73307L9.38199 10.4861C10.1145 10.3108 10.8741 10.2072 11.6428 10.1912V8.26295C11.6428 8.11952 11.7785 8 11.9412 8C12.104 8 12.2397 8.11952 12.2397 8.26295V10.1833C13.0626 10.2072 13.8856 10.3267 14.6814 10.5339L15.3234 8.73307C15.3777 8.58964 15.5405 8.51793 15.7033 8.55777C15.866 8.60558 15.9474 8.749 15.9022 8.89243L15.2511 10.6932C15.9565 10.9163 16.6347 11.2032 17.2768 11.5618L18.5248 9.93625C18.6152 9.81673 18.8051 9.78486 18.9408 9.86454C19.0764 9.94422 19.1126 10.1116 19.0222 10.2311L17.7742 11.8566C18.1721 12.1036 18.5519 12.3745 18.9136 12.6693L19.0493 12.7729C19.1668 12.8685 19.2935 12.9641 19.411 13.0677L20.9755 11.6574C21.0931 11.5538 21.283 11.5538 21.4005 11.6574C21.5181 11.761 21.5181 11.9283 21.4005 12.0319H21.4186Z" fill="white"/>
<path d="M11.914 11.0996C10.3766 11.0996 9.1377 12.1992 9.1377 13.5458C9.1377 14.8924 10.3857 15.992 11.914 15.992C13.4423 15.992 14.6903 14.8924 14.6903 13.5458C14.6903 12.1992 13.4423 11.0996 11.914 11.0996ZM12.963 12.9721C12.5742 12.9721 12.2667 12.7012 12.2667 12.3586C12.2667 12.0159 12.5742 11.745 12.963 11.745C13.3519 11.745 13.6594 12.0159 13.6594 12.3586C13.6594 12.7012 13.3519 12.9721 12.963 12.9721Z" fill="white"/>
</g>
<defs>
<clipPath id="clip0_3995_31797">
<rect width="19" height="8" fill="white" transform="translate(2.5 8)"/>
</clipPath>
</defs>
</svg>
