<svg width="35" height="34" viewBox="0 0 35 34" fill="none" xmlns="http://www.w3.org/2000/svg">
<g clip-path="url(#clip0_4133_32532)">
<path d="M8.2124 15.9863V28.2888H26.9722V15.9863" stroke="#174289" stroke-width="1.5" stroke-linecap="round" stroke-linejoin="round"/>
<path d="M28.8772 12.8776H6.12256L7.65146 10.0077L9.93864 5.70996H25.5235L27.6813 10.3243L28.7724 12.6455L28.8772 12.8776Z" stroke="#174289" stroke-width="1.5" stroke-linecap="round" stroke-linejoin="round"/>
<path d="M11.8128 12.8701C11.8128 14.6638 10.5366 16.1128 8.97075 16.1128C7.40486 16.1128 6.12256 14.6568 6.12256 12.8701H11.8128Z" stroke="#174289" stroke-width="1.5" stroke-linecap="round" stroke-linejoin="round"/>
<path d="M17.5029 12.8701C17.5029 14.6638 16.2268 16.1128 14.6609 16.1128C13.095 16.1128 11.8188 14.6568 11.8188 12.8701H17.5091H17.5029Z" stroke="#174289" stroke-width="1.5" stroke-linecap="round" stroke-linejoin="round"/>
<path d="M23.187 12.8701C23.187 14.6638 21.917 16.1128 20.345 16.1128C18.7729 16.1128 17.5029 14.6568 17.5029 12.8701H23.187Z" stroke="#174289" stroke-width="1.5" stroke-linecap="round" stroke-linejoin="round"/>
<path d="M28.8772 12.8701C28.8772 14.6638 27.6072 16.1128 26.0351 16.1128C24.4631 16.1128 23.1931 14.6568 23.1931 12.8701H28.8833H28.8772Z" stroke="#174289" stroke-width="1.5" stroke-linecap="round" stroke-linejoin="round"/>
<path d="M12.9533 18.7725H14.8028C15.5673 18.7725 16.1899 19.4829 16.1899 20.3551V28.2895H11.5601V20.3551C11.5601 19.4829 12.1827 18.7725 12.9472 18.7725H12.9533Z" fill="#174289"/>
<path d="M18.3044 21.1218V23.0421C18.3044 23.64 18.7298 24.1324 19.26 24.1324H22.6322C23.1562 24.1324 23.5878 23.647 23.5878 23.0421V19.8627C23.5878 19.2648 23.1624 18.7725 22.6322 18.7725H20.5053" stroke="#174289" stroke-width="1.5" stroke-linecap="round" stroke-linejoin="round"/>
<path d="M18.6928 18.7725H18.3044V19.1101" stroke="#174289" stroke-width="1.5" stroke-linecap="round" stroke-linejoin="round"/>
</g>
<defs>
<clipPath id="clip0_4133_32532">
<rect width="24" height="24" fill="white" transform="translate(5.5 5)"/>
</clipPath>
</defs>
</svg>
