<svg width="35" height="34" viewBox="0 0 35 34" fill="none" xmlns="http://www.w3.org/2000/svg">
<g clip-path="url(#clip0_3995_31718)">
<g clip-path="url(#clip1_3995_31718)">
<path d="M16.0657 10.6112C16.0657 10.0115 16.0718 9.41029 16.0657 8.81061C16.055 7.81878 16.8073 6.96275 17.793 6.85594C18.1028 6.82237 18.4141 6.83916 18.7238 6.83916C22.4531 6.83763 26.1809 6.83763 29.9102 6.83916C30.8547 6.83916 31.6466 7.46935 31.8496 8.38184C31.8801 8.51917 31.8938 8.65802 31.8938 8.79993C31.8923 11.397 31.8908 13.9926 31.8908 16.5896C31.8908 19.1562 31.8908 21.7227 31.8923 24.2893C31.8923 25.0553 31.8923 25.8213 31.8923 26.5873C31.8923 27.5822 31.2255 28.3787 30.2443 28.5481C30.1192 28.5694 29.991 28.5771 29.8629 28.5771C25.9383 28.5771 22.0136 28.5786 18.089 28.5771C17.1048 28.5771 16.3465 27.9804 16.1176 27.0298C16.0947 26.9337 16.0566 26.9413 15.9848 26.9749C15.0983 27.3899 14.2117 27.805 13.3252 28.2185C12.6538 28.5313 11.9839 28.8471 11.3125 29.1569C10.4657 29.5475 9.43264 29.192 9.02523 28.3528C8.59493 27.4693 8.18904 26.5736 7.77247 25.684C7.36658 24.8173 6.95764 23.9521 6.55328 23.0838C6.06041 22.0279 5.57213 20.9689 5.08079 19.9115C4.6276 18.9395 4.17288 17.969 3.71969 16.997C3.30465 16.1059 2.8835 15.2178 2.47609 14.3237C2.1587 13.6263 2.25331 12.9717 2.73091 12.3766C2.87587 12.1966 3.06508 12.0592 3.27413 11.9601C4.47653 11.397 5.68047 10.837 6.88287 10.2755C7.96626 9.7704 9.04964 9.2638 10.1315 8.75721C10.9677 8.36658 11.8024 7.96985 12.6416 7.58532C13.5129 7.18706 14.4757 7.4663 14.9396 8.2735C15.1593 8.65497 15.3226 9.07154 15.5103 9.47133C15.6888 9.8528 15.8689 10.2327 16.0474 10.6142C16.0535 10.6127 16.0596 10.6112 16.0657 10.6096V10.6112ZM31.0332 17.6959H31.0347C31.0347 14.7204 31.0347 11.7449 31.0347 8.76941C31.0347 8.65345 31.0408 8.53595 31.0119 8.41998C30.8989 7.94848 30.5068 7.64636 30.0048 7.64636C27.2551 7.64636 24.5039 7.64636 21.7542 7.64636C20.4771 7.64636 19.1984 7.64636 17.9212 7.64636C17.6298 7.64636 17.3826 7.75164 17.1827 7.96832C16.9736 8.19263 16.9217 8.46271 16.9217 8.76026C16.9248 13.1777 16.9233 17.5952 16.9233 22.0127C16.9233 23.5935 16.9233 25.1743 16.9233 26.7551C16.9233 27.3319 17.3536 27.7699 17.9181 27.7699C21.9541 27.7699 25.9917 27.7699 30.0277 27.7699C30.168 27.7699 30.3054 27.7439 30.4305 27.6844C30.8333 27.4937 31.0332 27.1748 31.0332 26.7246C31.0317 23.714 31.0332 20.705 31.0332 17.6944V17.6959ZM16.1634 19.4186H16.1618C16.1618 17.2885 16.1618 15.1599 16.1618 13.0297C16.1618 12.9519 16.1588 12.8771 16.1237 12.8024C16.0016 12.5491 15.8857 12.2942 15.7666 12.0394C15.2555 10.9438 14.7443 9.84822 14.2362 8.7511C14.0195 8.28418 13.5693 8.11023 13.0963 8.32843C12.4264 8.63819 11.7581 8.95252 11.0898 9.26533C9.74393 9.894 8.39961 10.5257 7.05377 11.1529C5.92766 11.6793 4.7985 12.2012 3.67239 12.7276C3.22225 12.9382 3.05745 13.3944 3.2665 13.8461C3.67544 14.728 4.08591 15.6085 4.4979 16.4874C5.3585 18.3291 6.22063 20.1709 7.08124 22.0142C7.56037 23.0396 8.03492 24.0665 8.51253 25.0919C8.96419 26.0624 9.41891 27.0329 9.8721 28.0033C10.072 28.429 10.5191 28.5969 10.9448 28.4046C11.1096 28.3299 11.2744 28.2536 11.4392 28.1773C12.9697 27.4632 14.4986 26.749 16.0291 26.0364C16.1237 25.9922 16.1786 25.9434 16.1634 25.8335C16.1588 25.7954 16.1634 25.7557 16.1634 25.7175C16.1634 23.6179 16.1634 21.5183 16.1634 19.4186Z" fill="#003F8F"/>
<path d="M28.2408 23.6898C28.3324 23.6898 28.4224 23.6898 28.514 23.6898C28.6681 23.6929 28.781 23.7692 28.8344 23.9111C29.0862 24.5764 29.338 25.2432 29.5882 25.91C29.6553 26.0885 29.5745 26.2732 29.4066 26.3388C29.2372 26.4044 29.0465 26.3159 28.9763 26.1358C28.9489 26.0641 28.9229 25.9924 28.897 25.9207C28.8817 25.878 28.8542 25.8597 28.8069 25.8597C28.4239 25.8597 28.0409 25.8597 27.6579 25.8597C27.6152 25.8597 27.5893 25.8764 27.5755 25.9176C27.5511 25.9848 27.5252 26.0504 27.4993 26.116C27.426 26.3113 27.2444 26.4044 27.0674 26.3373C26.8858 26.2686 26.8095 26.0855 26.8858 25.8871C27.0995 25.3286 27.3161 24.7702 27.5313 24.2117C27.5694 24.111 27.6091 24.0103 27.6488 23.9111C27.7052 23.7646 27.8166 23.6944 27.9708 23.6898C28.0608 23.6868 28.1523 23.6898 28.2439 23.6898H28.2408ZM28.2378 25.2066C28.337 25.2066 28.4362 25.2035 28.5353 25.2066C28.6055 25.2096 28.6254 25.1928 28.5979 25.1226C28.5048 24.8846 28.4163 24.6466 28.3263 24.407C28.3126 24.3704 28.2958 24.3429 28.25 24.3429C28.1981 24.3429 28.1722 24.3643 28.1554 24.4101C28.0638 24.6511 27.9723 24.8922 27.8777 25.1318C27.8533 25.1944 27.8777 25.2066 27.9326 25.2066C28.0348 25.2066 28.1371 25.2066 28.2393 25.2066H28.2378Z" fill="#003F8F"/>
<path d="M20.895 11.5568C20.8935 11.7094 20.7943 11.833 20.6478 11.8711C20.5166 11.9062 20.361 11.8452 20.2969 11.7231C20.2526 11.6376 20.219 11.5461 20.187 11.4561C20.1672 11.3996 20.1412 11.3752 20.0771 11.3752C19.7033 11.3782 19.3279 11.3767 18.9541 11.3752C18.9052 11.3752 18.8747 11.3904 18.8579 11.4393C18.8335 11.5125 18.8045 11.5827 18.7771 11.6544C18.7008 11.8452 18.5207 11.9276 18.3346 11.8543C18.1698 11.7887 18.0965 11.6025 18.1667 11.4194C18.417 10.7648 18.6687 10.1117 18.922 9.45866C18.9922 9.27708 19.099 9.21146 19.2959 9.21604C19.4607 9.22062 19.6255 9.21757 19.7903 9.21909C19.9627 9.21909 20.0649 9.28471 20.1244 9.44188C20.3762 10.1041 20.6249 10.7694 20.8737 11.4316C20.8904 11.4744 20.8981 11.5186 20.895 11.5583V11.5568ZM19.5248 10.7343C19.6331 10.7343 19.7399 10.7343 19.8483 10.7343C19.8956 10.7343 19.9093 10.7206 19.8925 10.6748C19.7964 10.423 19.7018 10.1713 19.6056 9.91948C19.5904 9.88133 19.5675 9.85997 19.5232 9.8615C19.479 9.8615 19.4561 9.88286 19.4424 9.92253C19.3478 10.1713 19.2516 10.4215 19.1555 10.6687C19.1357 10.719 19.1509 10.7358 19.2013 10.7358C19.3096 10.7358 19.4164 10.7358 19.5248 10.7358V10.7343Z" fill="#003F8F"/>
<path d="M14.9656 16.9192C14.9793 17.2977 14.8572 17.6486 14.752 18.0026C14.4315 19.0784 14.1111 20.1541 13.7906 21.2299C13.6838 21.5885 13.4076 21.7212 13.0674 21.5732C11.9352 21.0834 10.8029 20.5951 9.67073 20.1023C8.70789 19.6826 8.19519 18.9273 8.07922 17.9004C7.96935 16.9345 8.52631 15.9961 9.38386 15.6573C9.7577 15.5093 10.1453 15.4681 10.5359 15.5551C10.69 15.5887 10.7434 15.5368 10.8075 15.4208C11.1356 14.8394 11.6346 14.4854 12.2968 14.3969C13.1131 14.2871 13.7815 14.5953 14.3171 15.2026C14.7459 15.6909 14.9549 16.2707 14.9656 16.9192Z" fill="#003F8F"/>
<path d="M5.2212 13.7009C5.21662 13.469 5.27308 13.3835 5.47297 13.2935C5.5981 13.237 5.72169 13.1775 5.84682 13.1211C5.99025 13.0554 6.12911 13.0799 6.24202 13.1897C6.68606 13.6231 7.1301 14.0564 7.5726 14.4913C7.71146 14.6286 7.70841 14.8377 7.56803 14.975C7.44443 15.0956 7.23538 15.0864 7.10416 14.9537C7.00141 14.8499 6.8829 14.8285 6.74862 14.8896C6.52279 14.9949 6.30001 15.1032 6.07265 15.2039C5.99941 15.2359 5.98415 15.2771 5.99636 15.3504C6.01009 15.4374 6.01772 15.5259 5.98873 15.6144C5.9399 15.7593 5.81325 15.8432 5.64998 15.8341C5.51417 15.8265 5.38142 15.7227 5.36158 15.5823C5.33717 15.4129 5.32954 15.242 5.31733 15.0711C5.28529 14.6088 5.25477 14.148 5.22425 13.7024L5.2212 13.7009ZM5.89259 13.8855C5.90633 14.0778 5.92159 14.2807 5.93379 14.4837C5.93685 14.5233 5.9521 14.534 5.98873 14.5188C6.11843 14.4593 6.24813 14.3982 6.37783 14.3387C6.42055 14.3189 6.42666 14.296 6.39156 14.2624C6.35341 14.2273 6.31832 14.1907 6.2817 14.1541C6.18251 14.0549 6.08333 13.9572 5.98262 13.8581C5.96431 13.8397 5.94448 13.8214 5.91548 13.8291C5.89107 13.8352 5.88802 13.855 5.89259 13.8871V13.8855Z" fill="#003F8F"/>
<path d="M24.0082 13.0859C22.7051 13.0859 21.6461 14.1449 21.6461 15.448C21.6461 15.6372 21.6797 15.8005 21.7224 15.9653C20.6238 16.1698 19.7754 17.1463 19.7754 18.303C19.7754 19.6061 20.8344 20.6651 22.1375 20.6651C22.6456 20.6651 23.0729 20.5048 23.4421 20.2348L23.1247 21.425C23.1156 21.4555 23.1217 21.4875 23.14 21.5119C23.1583 21.5363 23.1888 21.5516 23.2193 21.5516H24.7941C24.8246 21.5516 24.8551 21.5379 24.8734 21.5119C24.8917 21.4875 24.8978 21.4555 24.8887 21.425L24.5713 20.2348C24.9405 20.5048 25.3678 20.6651 25.8759 20.6651C27.179 20.6651 28.238 19.6061 28.238 18.303C28.238 17.1463 27.3896 16.1698 26.291 15.9653C26.3337 15.8005 26.3673 15.6372 26.3673 15.448C26.3673 14.1449 25.3083 13.0859 24.0052 13.0859H24.0082Z" fill="#003F8F"/>
</g>
</g>
<defs>
<clipPath id="clip0_3995_31718">
<rect width="34" height="34" fill="white" transform="translate(0.5)"/>
</clipPath>
<clipPath id="clip1_3995_31718">
<rect width="34" height="34" fill="white" transform="translate(0.5)"/>
</clipPath>
</defs>
</svg>
