<svg width="128" height="41" viewBox="0 0 128 41" fill="none" xmlns="http://www.w3.org/2000/svg">
<g clip-path="url(#clip0_3995_31465)">
<path d="M8.63468 10.9885C10.2691 13.7744 14.3031 14.9534 18.2218 13.6207C20.1123 12.9805 21.6635 11.8585 22.7184 10.5116C24.0886 8.75892 24.6153 6.62122 23.9414 4.65782C22.7472 1.18583 18.2538 -0.430523 13.9013 1.04797C9.55033 2.52487 6.99068 6.53723 8.18166 10.0108C8.30172 10.3563 8.4538 10.6811 8.63308 10.9885" fill="#76B42C"/>
<path d="M37.8908 13.2938C33.892 10.3828 28.7167 10.3083 24.9597 12.7424C23.932 13.4079 23.0067 14.2605 22.2447 15.2953C19.112 19.5469 19.7219 25.4292 23.4117 29.3037C23.9031 29.8171 24.4442 30.2972 25.0413 30.733C30.1334 34.4427 37.1352 33.5474 40.6841 28.7316C44.2347 23.9142 42.9813 17.0051 37.8892 13.2938" fill="#E12316"/>
<path d="M6.35831 13.6426C5.86207 13.4128 5.33381 13.2812 4.77994 13.2812C2.14025 13.2812 0 16.1083 0 19.5945C0 23.0808 2.14025 25.9062 4.77994 25.9062C5.13051 25.9062 5.47148 25.8539 5.80124 25.7589C7.94949 25.1408 9.55987 22.6181 9.55987 19.5961C9.55987 16.842 8.22162 14.5046 6.35991 13.6441" fill="#055DA6"/>
<path d="M18.817 28.7717C15.1192 26.0794 10.5249 26.0683 8.54955 28.7464C8.46311 28.8636 8.38627 28.9857 8.31264 29.1077C6.70385 31.8032 8.13335 35.8979 11.6679 38.473C15.3641 41.1669 19.9599 41.178 21.9353 38.5015C23.44 36.4573 22.9838 33.4401 21.0421 30.9284C20.4402 30.1472 19.6926 29.4135 18.817 28.7733" fill="#FFCF00"/>
<g opacity="0.35">
<mask id="mask0_3995_31465" style="mask-type:luminance" maskUnits="userSpaceOnUse" x="4" y="13" width="6" height="13">
<path d="M9.55829 13.6426H4.479V25.7573H9.55829V13.6426Z" fill="white"/>
</mask>
<g mask="url(#mask0_3995_31465)">
<path d="M9.55829 19.5946C9.55829 16.8388 8.22003 14.503 6.35832 13.6426C5.17054 15.5236 4.479 17.7738 4.479 20.1904C4.479 22.2013 4.95764 24.0934 5.79965 25.7573C7.9479 25.1393 9.55829 22.6165 9.55829 19.5946Z" fill="white"/>
</g>
</g>
<g opacity="0.35">
<mask id="mask1_3995_31465" style="mask-type:luminance" maskUnits="userSpaceOnUse" x="8" y="8" width="15" height="7">
<path d="M22.7184 8.23242H8.63477V14.167H22.7184V8.23242Z" fill="white"/>
</mask>
<g mask="url(#mask1_3995_31465)">
<path d="M18.2219 13.6206C20.1124 12.9804 21.6635 11.8585 22.7185 10.5131C20.8231 9.08217 18.494 8.23438 15.9728 8.23438C13.1826 8.23438 10.6261 9.26916 8.63477 10.9885C10.2692 13.7743 14.3015 14.9533 18.2219 13.6206Z" fill="white"/>
</g>
</g>
<g opacity="0.35">
<mask id="mask2_3995_31465" style="mask-type:luminance" maskUnits="userSpaceOnUse" x="8" y="26" width="14" height="7">
<path d="M21.0424 26.7451H8.31299V32.152H21.0424V26.7451Z" fill="white"/>
</mask>
<g mask="url(#mask2_3995_31465)">
<path d="M18.8173 28.7717C15.1195 26.0794 10.5253 26.0683 8.5499 28.7464C8.46346 28.8636 8.38662 28.9857 8.31299 29.1077C10.346 30.9998 13.0289 32.1518 15.9727 32.1518C17.7928 32.1518 19.5137 31.7113 21.0424 30.9269C20.4405 30.1456 19.693 29.4119 18.8173 28.7717Z" fill="white"/>
</g>
</g>
<g opacity="0.35">
<mask id="mask3_3995_31465" style="mask-type:luminance" maskUnits="userSpaceOnUse" x="20" y="12" width="8" height="18">
<path d="M27.4673 12.7432H20.2285V29.3029H27.4673V12.7432Z" fill="white"/>
</mask>
<g mask="url(#mask3_3995_31465)">
<path d="M27.4659 20.1927C27.4659 17.3767 26.5278 14.7874 24.9606 12.7432C23.9329 13.4103 23.0077 14.2629 22.2457 15.2976C19.113 19.5493 19.7229 25.4315 23.4127 29.3045C25.8907 27.1113 27.4659 23.8453 27.4659 20.1942" fill="white"/>
</g>
</g>
<path d="M55.0811 30.0568C54.0999 30.0568 53.165 29.9364 52.2766 29.6971C51.3881 29.4578 50.5701 29.0997 49.8242 28.6211C49.163 28.198 48.5724 27.6798 48.0505 27.0697C47.9352 26.9334 47.9352 26.7338 48.0569 26.6022L49.8882 24.6056C50.0355 24.4455 50.29 24.4566 50.4293 24.623C50.7478 25.0065 51.1176 25.3456 51.5402 25.6435C52.0797 26.0238 52.6528 26.3154 53.2562 26.5198C53.8597 26.7243 54.4472 26.8257 55.0155 26.8257C55.3709 26.8257 55.651 26.7797 55.8575 26.6878C56.064 26.5959 56.2161 26.4739 56.3153 26.3186C56.4146 26.1633 56.4642 25.9953 56.4642 25.8115C56.4642 25.5865 56.3714 25.4027 56.1873 25.2632C56.0032 25.1222 55.7102 24.9891 55.3133 24.8623L53.2883 24.1872C52.6768 23.9765 52.1117 23.6991 51.593 23.3537C51.0744 23.0098 50.655 22.5756 50.3348 22.0558C50.0147 21.5361 49.8546 20.9228 49.8546 20.2192C49.8546 19.2066 50.1139 18.3652 50.6326 17.6964C51.1512 17.0277 51.8588 16.5222 52.7536 16.1768C53.6484 15.8329 54.6585 15.6602 55.7823 15.6602C57.2886 15.6602 58.5612 15.9105 59.5985 16.4097C60.5318 16.8597 61.3498 17.454 62.0541 18.194C62.1854 18.3319 62.1838 18.549 62.0477 18.6837L60.1092 20.6201C59.9635 20.7659 59.725 20.7548 59.5873 20.6027C59.32 20.3048 59.0207 20.0449 58.6925 19.8199C58.2587 19.5236 57.7961 19.3033 57.3062 19.1543C56.8164 19.007 56.3217 18.9325 55.8239 18.9325C55.4973 18.9325 55.23 18.9673 55.0235 19.0387C54.817 19.11 54.6601 19.2114 54.5545 19.3445C54.4472 19.4792 54.3944 19.6361 54.3944 19.8199C54.3944 20.0449 54.5145 20.2414 54.7578 20.411C54.9995 20.5805 55.3261 20.7342 55.7391 20.8753L57.6792 21.5297C58.7741 21.8958 59.605 22.3775 60.1748 22.9749C60.7431 23.574 61.028 24.3647 61.028 25.3504C61.028 26.336 60.7655 27.1838 60.2389 27.8937C59.7122 28.6052 59.0015 29.1424 58.1066 29.5085C57.2118 29.8746 56.2017 30.0568 55.0779 30.0568H55.0811Z" fill="white"/>
<path d="M68.5371 30.0138C67.058 30.0138 65.8286 29.7571 64.8473 29.2437C63.866 28.7302 63.1841 27.9918 62.7999 27.0267C62.4157 26.0633 62.3805 24.9128 62.6927 23.5753L64.4407 16.1417C64.4775 15.9817 64.6216 15.8691 64.7865 15.8691H68.4507C68.6796 15.8691 68.8477 16.0799 68.7964 16.3002L66.978 24.1236C66.8643 24.6719 66.8675 25.141 66.9892 25.5276C67.1092 25.9143 67.3365 26.2106 67.6711 26.4151C68.0057 26.6195 68.4203 26.7209 68.9181 26.7209C69.5712 26.7209 70.0803 26.5276 70.442 26.1409C70.8038 25.7543 71.0711 25.1663 71.2424 24.3788L73.1826 16.1433C73.2194 15.9848 73.3635 15.8707 73.5284 15.8707H77.1493C77.3782 15.8707 77.5479 16.0815 77.4951 16.3018L75.6126 24.336C75.1435 26.2645 74.3512 27.6923 73.2354 28.6209C72.1197 29.5495 70.5525 30.0138 68.5339 30.0138H68.5371Z" fill="white"/>
<path d="M95.6534 21.8399C96.2217 21.019 96.5066 20.0064 96.5066 18.8021C96.5066 17.3949 96.0168 16.2968 95.0371 15.506C94.0574 14.7168 92.7304 14.3223 91.056 14.3223H83.782L80.1562 29.8028H84.9186L86.1272 24.6194H88.3987L90.2588 29.573C90.31 29.7109 90.4429 29.8028 90.5917 29.8028H94.6497C94.9027 29.8028 95.0739 29.5493 94.9795 29.3179L92.764 23.9269C92.9529 23.8619 93.1402 23.7938 93.3195 23.7145C94.3072 23.2851 95.0851 22.6592 95.6534 21.8383V21.8399ZM87.7167 17.8164H89.849C90.4013 17.8164 90.8591 17.9337 91.2225 18.1682C91.5858 18.4028 91.7667 18.7863 91.7667 19.3171C91.7667 19.7244 91.6643 20.0793 91.4594 20.3852C91.2545 20.6894 90.9647 20.9287 90.595 21.0999C90.2236 21.2726 89.7689 21.3582 89.2327 21.3582H86.8907L87.7167 17.8164Z" fill="white"/>
<path d="M96.6316 29.3718L100.093 14.5948C100.129 14.4348 100.273 14.3223 100.438 14.3223H112.387C112.615 14.3223 112.784 14.533 112.732 14.7533L112.066 17.639C112.03 17.799 111.885 17.9131 111.721 17.9131H104.443C104.279 17.9131 104.135 18.0256 104.098 18.1857L103.672 19.9922C103.619 20.2124 103.789 20.4248 104.018 20.4248H109.31C109.537 20.4248 109.707 20.634 109.657 20.8542L109.059 23.4816C109.022 23.6417 108.878 23.7557 108.711 23.7557H103.094C102.928 23.7557 102.785 23.8698 102.748 24.0299L102.342 25.7889C102.29 26.0091 102.46 26.2183 102.687 26.2183H109.801C110.03 26.2183 110.2 26.4307 110.147 26.6509L109.462 29.5366C109.423 29.6951 109.281 29.8076 109.116 29.8076H96.979C96.7501 29.8076 96.5804 29.5968 96.6332 29.3765L96.6316 29.3718Z" fill="white"/>
<path d="M111.462 29.3718L114.923 14.5948C114.96 14.4348 115.104 14.3223 115.269 14.3223H120.862C122.394 14.3223 123.673 14.5885 124.701 15.1193C125.727 15.6518 126.502 16.3902 127.024 17.3363C127.545 18.2823 127.805 19.3884 127.805 20.6546C127.805 22.0301 127.611 23.2819 127.224 24.407C126.836 25.5322 126.265 26.494 125.506 27.2927C124.747 28.0898 123.832 28.7078 122.757 29.1452C121.683 29.5825 120.451 29.8012 119.061 29.8012H111.808C111.579 29.8012 111.41 29.5905 111.462 29.3702V29.3718ZM117.148 25.8776C117.097 26.0979 117.267 26.3086 117.494 26.3086H118.802C119.513 26.3086 120.132 26.1407 120.662 25.8047C121.19 25.4688 121.621 25.0235 121.954 24.4673C122.285 23.9126 122.535 23.2946 122.7 22.6148C122.866 21.935 122.948 21.2583 122.948 20.5864C122.948 20.008 122.854 19.512 122.663 19.0968C122.474 18.6833 122.189 18.3663 121.81 18.1476C121.43 17.929 120.941 17.8196 120.34 17.8196H119.297C119.13 17.8196 118.988 17.9337 118.951 18.0922L117.147 25.8792L117.148 25.8776Z" fill="white"/>
<path d="M55.0811 30.0568C54.0999 30.0568 53.165 29.9364 52.2766 29.6971C51.3881 29.4578 50.5701 29.0997 49.8242 28.6211C49.163 28.198 48.5724 27.6798 48.0505 27.0697C47.9352 26.9334 47.9352 26.7338 48.0569 26.6022L49.8882 24.6056C50.0355 24.4455 50.29 24.4566 50.4293 24.623C50.7478 25.0065 51.1176 25.3456 51.5402 25.6435C52.0797 26.0238 52.6528 26.3154 53.2562 26.5198C53.8597 26.7243 54.4472 26.8257 55.0155 26.8257C55.3709 26.8257 55.651 26.7797 55.8575 26.6878C56.064 26.5959 56.2161 26.4739 56.3153 26.3186C56.4146 26.1633 56.4642 25.9953 56.4642 25.8115C56.4642 25.5865 56.3714 25.4027 56.1873 25.2632C56.0032 25.1222 55.7102 24.9891 55.3133 24.8623L53.2883 24.1872C52.6768 23.9765 52.1117 23.6991 51.593 23.3537C51.0744 23.0098 50.655 22.5756 50.3348 22.0558C50.0147 21.5361 49.8546 20.9228 49.8546 20.2192C49.8546 19.2066 50.1139 18.3652 50.6326 17.6964C51.1512 17.0277 51.8588 16.5222 52.7536 16.1768C53.6484 15.8329 54.6585 15.6602 55.7823 15.6602C57.2886 15.6602 58.5612 15.9105 59.5985 16.4097C60.5318 16.8597 61.3498 17.454 62.0541 18.194C62.1854 18.3319 62.1838 18.549 62.0477 18.6837L60.1092 20.6201C59.9635 20.7659 59.725 20.7548 59.5873 20.6027C59.32 20.3048 59.0207 20.0449 58.6925 19.8199C58.2587 19.5236 57.7961 19.3033 57.3062 19.1543C56.8164 19.007 56.3217 18.9325 55.8239 18.9325C55.4973 18.9325 55.23 18.9673 55.0235 19.0387C54.817 19.11 54.6601 19.2114 54.5545 19.3445C54.4472 19.4792 54.3944 19.6361 54.3944 19.8199C54.3944 20.0449 54.5145 20.2414 54.7578 20.411C54.9995 20.5805 55.3261 20.7342 55.7391 20.8753L57.6792 21.5297C58.7741 21.8958 59.605 22.3775 60.1748 22.9749C60.7431 23.574 61.028 24.3647 61.028 25.3504C61.028 26.336 60.7655 27.1838 60.2389 27.8937C59.7122 28.6052 59.0015 29.1424 58.1066 29.5085C57.2118 29.8746 56.2017 30.0568 55.0779 30.0568H55.0811Z" fill="white"/>
<path d="M68.5371 30.0138C67.058 30.0138 65.8286 29.7571 64.8473 29.2437C63.866 28.7302 63.1841 27.9918 62.7999 27.0267C62.4157 26.0633 62.3805 24.9128 62.6927 23.5753L64.4407 16.1417C64.4775 15.9817 64.6216 15.8691 64.7865 15.8691H68.4507C68.6796 15.8691 68.8477 16.0799 68.7964 16.3002L66.978 24.1236C66.8643 24.6719 66.8675 25.141 66.9892 25.5276C67.1092 25.9143 67.3365 26.2106 67.6711 26.4151C68.0057 26.6195 68.4203 26.7209 68.9181 26.7209C69.5712 26.7209 70.0803 26.5276 70.442 26.1409C70.8038 25.7543 71.0711 25.1663 71.2424 24.3788L73.1826 16.1433C73.2194 15.9848 73.3635 15.8707 73.5284 15.8707H77.1493C77.3782 15.8707 77.5479 16.0815 77.4951 16.3018L75.6126 24.336C75.1435 26.2645 74.3512 27.6923 73.2354 28.6209C72.1197 29.5495 70.5525 30.0138 68.5339 30.0138H68.5371Z" fill="white"/>
<path d="M95.6534 21.8399C96.2217 21.019 96.5066 20.0064 96.5066 18.8021C96.5066 17.3949 96.0168 16.2968 95.0371 15.506C94.0574 14.7168 92.7304 14.3223 91.056 14.3223H83.782L80.1562 29.8028H84.9186L86.1272 24.6194H88.3987L90.2588 29.573C90.31 29.7109 90.4429 29.8028 90.5917 29.8028H94.6497C94.9027 29.8028 95.0739 29.5493 94.9795 29.3179L92.764 23.9269C92.9529 23.8619 93.1402 23.7938 93.3195 23.7145C94.3072 23.2851 95.0851 22.6592 95.6534 21.8383V21.8399ZM87.7167 17.8164H89.849C90.4013 17.8164 90.8591 17.9337 91.2225 18.1682C91.5858 18.4028 91.7667 18.7863 91.7667 19.3171C91.7667 19.7244 91.6643 20.0793 91.4594 20.3852C91.2545 20.6894 90.9647 20.9287 90.595 21.0999C90.2236 21.2726 89.7689 21.3582 89.2327 21.3582H86.8907L87.7167 17.8164Z" fill="white"/>
<path d="M96.6316 29.3718L100.093 14.5948C100.129 14.4348 100.273 14.3223 100.438 14.3223H112.387C112.615 14.3223 112.784 14.533 112.732 14.7533L112.066 17.639C112.03 17.799 111.885 17.9131 111.721 17.9131H104.443C104.279 17.9131 104.135 18.0256 104.098 18.1857L103.672 19.9922C103.619 20.2124 103.789 20.4248 104.018 20.4248H109.31C109.537 20.4248 109.707 20.634 109.657 20.8542L109.059 23.4816C109.022 23.6417 108.878 23.7557 108.711 23.7557H103.094C102.928 23.7557 102.785 23.8698 102.748 24.0299L102.342 25.7889C102.29 26.0091 102.46 26.2183 102.687 26.2183H109.801C110.03 26.2183 110.2 26.4307 110.147 26.6509L109.462 29.5366C109.423 29.6951 109.281 29.8076 109.116 29.8076H96.979C96.7501 29.8076 96.5804 29.5968 96.6332 29.3765L96.6316 29.3718Z" fill="white"/>
<path d="M111.462 29.3718L114.923 14.5948C114.96 14.4348 115.104 14.3223 115.269 14.3223H120.862C122.394 14.3223 123.673 14.5885 124.701 15.1193C125.727 15.6518 126.502 16.3902 127.024 17.3363C127.545 18.2823 127.805 19.3884 127.805 20.6546C127.805 22.0301 127.611 23.2819 127.224 24.407C126.836 25.5322 126.265 26.494 125.506 27.2927C124.747 28.0898 123.832 28.7078 122.757 29.1452C121.683 29.5825 120.451 29.8012 119.061 29.8012H111.808C111.579 29.8012 111.41 29.5905 111.462 29.3702V29.3718ZM117.148 25.8776C117.097 26.0979 117.267 26.3086 117.494 26.3086H118.802C119.513 26.3086 120.132 26.1407 120.662 25.8047C121.19 25.4688 121.621 25.0235 121.954 24.4673C122.285 23.9126 122.535 23.2946 122.7 22.6148C122.866 21.935 122.948 21.2583 122.948 20.5864C122.948 20.008 122.854 19.512 122.663 19.0968C122.474 18.6833 122.189 18.3663 121.81 18.1476C121.43 17.929 120.941 17.8196 120.34 17.8196H119.297C119.13 17.8196 118.988 17.9337 118.951 18.0922L117.147 25.8792L117.148 25.8776Z" fill="white"/>
</g>
<defs>
<clipPath id="clip0_3995_31465">
<rect width="127.805" height="40" fill="white" transform="translate(0 0.5)"/>
</clipPath>
</defs>
</svg>
