<svg width="35" height="40" viewBox="0 0 35 40" fill="none" xmlns="http://www.w3.org/2000/svg">
<g clip-path="url(#clip0_4028_32129)">
<path d="M10.0367 39.9995C9.63856 39.9218 9.29529 39.7471 9.12503 39.3559C9.03716 39.1562 8.97674 38.9259 8.97674 38.7095C8.96851 35.2584 8.96851 31.8045 8.96851 28.3534C8.96851 27.6127 9.45732 27.1078 10.1878 27.0828C10.4239 27.0745 10.6574 27.0828 10.9347 27.0828C10.8166 27.3602 10.7068 27.621 10.5915 27.8762C10.5805 27.9012 10.5146 27.9095 10.4734 27.9123C10.3663 27.9206 10.2564 27.9123 10.1493 27.9234C9.95986 27.94 9.82804 28.0676 9.80607 28.248C9.77587 28.4727 9.86374 28.6391 10.0642 28.6974C10.1658 28.7279 10.2757 28.7335 10.3828 28.7335C14.782 28.7335 19.1786 28.7335 23.5779 28.7335C24.1216 28.7335 24.5637 29.0469 24.7257 29.5463C24.756 29.6378 24.7834 29.7322 24.7834 29.8265C24.7889 30.803 24.7834 31.7795 24.7834 32.7838C24.7038 32.7838 24.6296 32.7838 24.5555 32.7838C23.6218 32.7838 22.6854 32.7838 21.7517 32.7838C20.8565 32.7838 20.1892 33.383 20.1342 34.2819C20.0821 35.1585 20.7384 35.9353 21.705 35.9464C22.6524 35.9575 23.6026 35.9464 24.55 35.9464C24.6186 35.9464 24.6873 35.9464 24.7834 35.9464V36.16C24.7834 36.9701 24.7587 37.7801 24.7916 38.5902C24.8191 39.2699 24.4896 39.8497 23.7536 39.9995H10.0367ZM20.4116 29.8764C20.4116 29.8764 20.4116 29.882 20.4116 29.8875C20.5077 29.882 20.6038 29.8903 20.6944 29.8709C20.7384 29.8598 20.796 29.796 20.796 29.7544C20.796 29.7183 20.7274 29.6517 20.6889 29.6489C20.505 29.6378 20.321 29.6406 20.1397 29.6517C20.104 29.6517 20.0436 29.7266 20.0464 29.7627C20.0491 29.8015 20.1068 29.8626 20.148 29.8709C20.2331 29.8875 20.3237 29.8764 20.4143 29.8764H20.4116ZM18.0609 29.6323C17.973 29.6378 17.8769 29.6323 17.7863 29.6545C17.7451 29.6628 17.6957 29.7183 17.6847 29.7599C17.6792 29.7877 17.7369 29.857 17.7671 29.8598C17.962 29.8709 18.157 29.8737 18.352 29.8653C18.3822 29.8653 18.4399 29.7904 18.4344 29.7599C18.4261 29.7183 18.374 29.66 18.3328 29.6517C18.2476 29.6323 18.157 29.6378 18.0609 29.6323ZM21.6007 29.6434C21.6007 29.6434 21.6007 29.6351 21.6007 29.6295C21.5045 29.6351 21.4084 29.6351 21.3178 29.6545C21.2794 29.6628 21.2217 29.7183 21.2272 29.746C21.2327 29.7904 21.2794 29.8626 21.3123 29.8653C21.5018 29.8764 21.6913 29.8792 21.8808 29.8653C21.9192 29.8653 21.9796 29.7877 21.9769 29.7488C21.9769 29.7127 21.911 29.6545 21.867 29.6462C21.7819 29.6295 21.6913 29.6406 21.6007 29.6406V29.6434ZM22.7623 29.882C22.7623 29.882 22.7623 29.882 22.7623 29.8792C22.8556 29.8792 22.9545 29.8931 23.0451 29.8737C23.0918 29.8626 23.1248 29.7932 23.1632 29.7516C23.1248 29.7183 23.0863 29.6573 23.0451 29.6545C22.8694 29.6406 22.6936 29.6378 22.5179 29.6489C22.4739 29.6517 22.4327 29.7211 22.3915 29.7599C22.4327 29.8015 22.4712 29.8653 22.5206 29.8764C22.5975 29.8958 22.6826 29.882 22.765 29.882H22.7623ZM12.165 29.6434V29.6489C12.0716 29.6489 11.9755 29.6406 11.8821 29.6545C11.8464 29.66 11.797 29.7155 11.7915 29.7516C11.7888 29.7849 11.8355 29.8542 11.8657 29.857C12.0606 29.8709 12.2556 29.8737 12.4506 29.8653C12.4863 29.8653 12.5467 29.7849 12.544 29.746C12.5412 29.7072 12.4753 29.6545 12.4314 29.6462C12.3462 29.6295 12.2556 29.6406 12.165 29.6406V29.6434ZM15.702 29.8875C15.702 29.8875 15.702 29.8848 15.702 29.882C15.7844 29.882 15.8695 29.8986 15.9464 29.8764C15.9986 29.8626 16.0398 29.796 16.0837 29.7544C16.037 29.7155 15.9903 29.6462 15.9409 29.6434C15.7734 29.6323 15.6004 29.6378 15.4329 29.6517C15.3917 29.6545 15.323 29.7155 15.323 29.7516C15.323 29.7932 15.378 29.857 15.4191 29.8681C15.5098 29.8903 15.6059 29.8848 15.6992 29.8903L15.702 29.8875ZM16.8746 29.6434C16.7922 29.6434 16.7071 29.6295 16.6302 29.6489C16.5808 29.66 16.5423 29.7183 16.4984 29.7544C16.5341 29.7932 16.567 29.8653 16.6055 29.8681C16.7867 29.882 16.9707 29.882 17.1547 29.8709C17.1931 29.8709 17.2618 29.7904 17.2563 29.7627C17.2426 29.7155 17.1876 29.6573 17.141 29.6462C17.0558 29.6267 16.9652 29.6406 16.8773 29.6406L16.8746 29.6434ZM19.228 29.8875C19.228 29.8875 19.228 29.8848 19.228 29.882C19.3159 29.882 19.4093 29.8958 19.4916 29.8764C19.5411 29.8653 19.5795 29.8015 19.6207 29.7599C19.5795 29.7211 19.5383 29.6517 19.4944 29.6489C19.3186 29.6378 19.1401 29.6406 18.9644 29.6545C18.9259 29.6573 18.8655 29.7238 18.8655 29.7599C18.8655 29.7988 18.9204 29.8626 18.9616 29.8709C19.0468 29.8903 19.1374 29.8848 19.2253 29.8875H19.228ZM14.5349 29.8764C14.5349 29.8764 14.5349 29.882 14.5349 29.8848C14.6035 29.8848 14.6777 29.9014 14.7409 29.8792C14.804 29.8598 14.8534 29.8015 14.9084 29.7627C14.8562 29.7211 14.804 29.6489 14.7463 29.6434C14.5843 29.6295 14.4196 29.6378 14.2575 29.6517C14.2163 29.6545 14.1779 29.7127 14.1394 29.746C14.1751 29.7904 14.2081 29.8598 14.252 29.8709C14.3427 29.8903 14.4388 29.8764 14.5349 29.8764ZM13.3376 29.8792C13.3376 29.8792 13.3376 29.8792 13.3376 29.882C13.42 29.882 13.5078 29.8986 13.5847 29.8764C13.6424 29.8598 13.6863 29.7988 13.7358 29.7544C13.6863 29.7155 13.6369 29.6462 13.5847 29.6406C13.42 29.6295 13.2552 29.6351 13.0904 29.6489C13.0465 29.6545 13.008 29.7183 12.9669 29.7571C13.008 29.796 13.0437 29.8598 13.0932 29.8709C13.1701 29.8903 13.2579 29.8764 13.3403 29.8764L13.3376 29.8792ZM10.9649 29.8764V29.882C11.0473 29.882 11.1352 29.8986 11.2093 29.8764C11.2698 29.8598 11.3164 29.7932 11.3686 29.7516C11.3164 29.7128 11.2698 29.6462 11.2148 29.6434C11.0528 29.6323 10.8853 29.6378 10.7233 29.6517C10.6821 29.6545 10.6436 29.7127 10.6052 29.746C10.6409 29.7904 10.6711 29.857 10.715 29.8709C10.7919 29.8903 10.8771 29.8764 10.9594 29.8764H10.9649ZM10.1109 35.5441C10.1109 35.4554 10.1219 35.3638 10.1054 35.275C10.0972 35.2362 10.034 35.1779 9.9983 35.1807C9.95986 35.1807 9.89395 35.2417 9.8912 35.2778C9.88022 35.4637 9.88022 35.6496 9.8912 35.8354C9.8912 35.8743 9.9626 35.9381 9.9983 35.9381C10.0367 35.9381 10.0972 35.877 10.1054 35.8327C10.1219 35.7383 10.1109 35.6412 10.1109 35.5441ZM10.1109 34.3679C10.1109 34.2791 10.1219 34.1875 10.1054 34.0988C10.0972 34.0544 10.0395 34.0211 10.0065 33.9795C9.96535 34.0183 9.89395 34.0572 9.88846 34.0988C9.87473 34.2763 9.87747 34.4566 9.88846 34.637C9.88846 34.6758 9.95986 34.7396 9.99555 34.7396C10.034 34.7396 10.0944 34.6786 10.1027 34.6342C10.1191 34.5482 10.1081 34.4566 10.1081 34.3651L10.1109 34.3679ZM9.88296 33.1777C9.88296 33.261 9.86923 33.347 9.88846 33.4246C9.89944 33.4718 9.95711 33.5106 9.99281 33.5523C10.0313 33.5134 10.1027 33.4774 10.1054 33.4357C10.1191 33.2637 10.1191 33.0917 10.1054 32.9197C10.1027 32.8726 10.0367 32.831 10.001 32.7866C9.9626 32.8337 9.89944 32.8753 9.88571 32.9308C9.86649 33.0085 9.88022 33.0945 9.88022 33.1777H9.88296ZM22.7705 39.0813C22.8584 39.0785 22.949 39.0896 23.0369 39.0729C23.0836 39.0646 23.122 39.0119 23.1632 38.9814C23.1248 38.937 23.0891 38.8565 23.0479 38.8538C22.8721 38.8399 22.6936 38.8371 22.5179 38.8538C22.4739 38.8565 22.4355 38.9342 22.3943 38.9758C22.4382 39.0119 22.4794 39.0674 22.5288 39.0785C22.6085 39.0951 22.6936 39.084 22.776 39.084L22.7705 39.0813ZM13.3293 39.0785C13.3293 39.0785 13.3293 39.0785 13.3293 39.0813C13.4172 39.0813 13.5078 39.0923 13.593 39.0757C13.6424 39.0646 13.6863 39.0091 13.7303 38.9758C13.6891 38.9314 13.6506 38.8565 13.604 38.8538C13.4282 38.8399 13.2497 38.8399 13.074 38.8538C13.0328 38.8565 12.9998 38.9342 12.9614 38.9786C12.9998 39.0119 13.0355 39.0646 13.0822 39.0729C13.1618 39.0896 13.247 39.0785 13.3266 39.0785H13.3293ZM14.5212 39.0785C14.609 39.0785 14.6997 39.0896 14.7875 39.0729C14.8315 39.0646 14.9001 39.0091 14.9001 38.9731C14.9001 38.9314 14.8425 38.8565 14.8068 38.8538C14.6173 38.8427 14.4278 38.8427 14.2383 38.8538C14.2026 38.8538 14.1697 38.9314 14.1367 38.9731C14.1751 39.0063 14.2136 39.0618 14.2575 39.0674C14.3427 39.084 14.4333 39.0729 14.5239 39.0729L14.5212 39.0785ZM21.5869 39.0813C21.6748 39.0813 21.7654 39.0923 21.8533 39.0785C21.9 39.0702 21.9384 39.0202 21.9824 38.9897C21.9467 38.9425 21.9137 38.8621 21.8725 38.8565C21.6913 38.8399 21.5073 38.8427 21.3233 38.8538C21.2876 38.8538 21.2189 38.937 21.2272 38.9647C21.2382 39.0119 21.2958 39.0674 21.3425 39.0785C21.4194 39.0979 21.5045 39.084 21.5869 39.084V39.0813ZM10.1109 31.9793C10.1109 31.8905 10.1219 31.799 10.1054 31.713C10.0972 31.6686 10.0395 31.6325 10.0038 31.5937C9.9626 31.6353 9.8912 31.6741 9.88846 31.7157C9.87473 31.8933 9.87747 32.0736 9.88846 32.2512C9.88846 32.29 9.9626 32.3621 9.98732 32.3538C10.034 32.3427 10.0944 32.29 10.1054 32.2456C10.1246 32.1596 10.1109 32.0681 10.1109 31.9793ZM23.8717 31.9876C23.8717 31.8988 23.8827 31.8073 23.869 31.7213C23.8607 31.6741 23.8113 31.6353 23.7811 31.5937C23.7399 31.6242 23.663 31.6547 23.663 31.688C23.652 31.8822 23.652 32.0791 23.663 32.2761C23.663 32.3066 23.7399 32.351 23.7838 32.3538C23.8113 32.3538 23.8635 32.2928 23.869 32.2567C23.8827 32.1707 23.8717 32.0791 23.8717 31.9904V31.9876ZM9.88571 30.7808C9.88571 30.8751 9.87473 30.975 9.8912 31.0666C9.89944 31.1082 9.95986 31.1692 9.9983 31.1692C10.0367 31.1692 10.1027 31.1054 10.1054 31.0693C10.1164 30.8862 10.1164 30.7004 10.1054 30.5173C10.1054 30.4784 10.0367 30.4146 9.9983 30.4118C9.95986 30.4118 9.89944 30.4729 9.8912 30.5145C9.87473 30.6005 9.88571 30.692 9.88571 30.7808ZM23.8717 36.7398C23.8717 36.6566 23.8854 36.5706 23.8662 36.4929C23.8552 36.4458 23.803 36.3875 23.7591 36.3709C23.7316 36.3625 23.6493 36.4291 23.6465 36.4652C23.6355 36.6483 23.6328 36.8341 23.6465 37.0172C23.6493 37.0589 23.7289 37.0949 23.7728 37.1338C23.803 37.0921 23.8552 37.0533 23.8635 37.0061C23.8772 36.9201 23.869 36.8286 23.869 36.7398H23.8717ZM9.88296 37.9216C9.88296 38.0104 9.86923 38.1047 9.88846 38.1907C9.89944 38.2407 9.95711 38.2795 9.99555 38.3239C10.034 38.2795 10.1027 38.2379 10.1054 38.1935C10.1191 38.0215 10.1191 37.8467 10.1054 37.6747C10.1027 37.6331 10.0285 37.597 9.98732 37.5554C9.95162 37.5943 9.89669 37.6276 9.88571 37.672C9.86923 37.7524 9.88022 37.8384 9.88022 37.9216H9.88296ZM10.9814 39.0785C11.0693 39.0785 11.1599 39.0896 11.2478 39.0729C11.2917 39.0646 11.3302 39.0119 11.3714 38.9814C11.3357 38.937 11.3 38.8565 11.2615 38.8538C11.0803 38.8399 10.8935 38.8427 10.7123 38.8538C10.6766 38.8538 10.6436 38.9287 10.6107 38.9675C10.6519 39.0036 10.6903 39.0618 10.737 39.0702C10.8166 39.0868 10.9018 39.0757 10.9814 39.0757V39.0785ZM15.691 39.0785C15.7871 39.0785 15.8832 39.0868 15.9739 39.0757C16.0123 39.0702 16.0755 39.0174 16.0727 38.9897C16.0727 38.9453 16.026 38.8676 15.9958 38.8649C15.8009 38.8538 15.6059 38.8538 15.4136 38.8649C15.3779 38.8649 15.3477 38.9425 15.3175 38.9842C15.3587 39.0147 15.3972 39.0674 15.4439 39.0757C15.5235 39.0896 15.6086 39.0813 15.691 39.0813V39.0785ZM18.0444 39.0785C18.1405 39.0785 18.2367 39.0896 18.33 39.0729C18.3712 39.0674 18.4316 39.0063 18.4344 38.9731C18.4344 38.9314 18.3795 38.8565 18.3438 38.8565C18.1543 38.8454 17.9648 38.8482 17.7753 38.8621C17.7396 38.8621 17.6847 38.9398 17.6874 38.9814C17.6874 39.0147 17.7561 39.0674 17.8 39.0757C17.8797 39.0896 17.9648 39.0813 18.0472 39.0813L18.0444 39.0785ZM23.8744 30.7891C23.8744 30.7891 23.8744 30.7891 23.8717 30.7891C23.8717 30.7004 23.8827 30.6088 23.8662 30.5228C23.858 30.4784 23.8058 30.4396 23.7701 30.4008C23.7289 30.4368 23.6575 30.4701 23.6548 30.5062C23.641 30.6893 23.6355 30.8751 23.6465 31.0582C23.6465 31.0999 23.7262 31.1359 23.7673 31.1748C23.803 31.1304 23.8552 31.0888 23.8662 31.036C23.8827 30.9556 23.8717 30.8724 23.8717 30.7891H23.8744ZM23.869 37.9327C23.869 37.844 23.8772 37.7524 23.8662 37.6636C23.8607 37.622 23.814 37.5582 23.7866 37.5582C23.7426 37.5582 23.6657 37.6054 23.663 37.6331C23.6548 37.8356 23.6548 38.0381 23.6657 38.2379C23.6657 38.2684 23.7371 38.3183 23.7728 38.3156C23.8085 38.3128 23.858 38.2573 23.8635 38.2185C23.8772 38.1241 23.869 38.0271 23.869 37.93V37.9327ZM12.165 39.0785C12.165 39.0785 12.165 39.0785 12.165 39.0813C12.2474 39.0813 12.3325 39.0923 12.4121 39.0757C12.4643 39.0646 12.5083 39.0119 12.5549 38.9786C12.5165 38.9342 12.4808 38.8538 12.4396 38.851C12.2584 38.8371 12.0716 38.8399 11.8904 38.8538C11.8547 38.8538 11.797 38.9287 11.797 38.9675C11.797 39.0036 11.8574 39.0618 11.8986 39.0702C11.9837 39.0868 12.0744 39.0757 12.1622 39.0757L12.165 39.0785ZM16.8746 39.0785C16.9625 39.0785 17.0531 39.0896 17.1382 39.0729C17.1822 39.0646 17.2179 39.0119 17.259 38.9814C17.2233 38.937 17.1904 38.8565 17.1519 38.8538C16.9707 38.8399 16.7867 38.8427 16.6027 38.8538C16.5643 38.8538 16.5313 38.9287 16.4956 38.9675C16.5396 39.0036 16.578 39.0618 16.6274 39.0729C16.7043 39.0896 16.7895 39.0785 16.8718 39.0785H16.8746ZM19.228 39.0785C19.3241 39.0785 19.4175 39.0868 19.5109 39.0757C19.5493 39.0702 19.6152 39.0174 19.6125 38.9925C19.607 38.9453 19.563 38.8649 19.5328 38.8649C19.3324 38.8565 19.1319 38.8621 18.9314 38.8732C18.9067 38.8732 18.8628 38.9509 18.8655 38.9869C18.871 39.023 18.9232 39.0702 18.9616 39.0757C19.0468 39.0896 19.1374 39.0813 19.2253 39.0785H19.228ZM20.4363 38.8427C20.4363 38.8427 20.4363 38.8427 20.4363 38.8454C20.3429 38.8454 20.2441 38.8316 20.1535 38.851C20.1095 38.8593 20.0766 38.9314 20.0409 38.9758C20.0793 39.0091 20.1178 39.0702 20.1562 39.0729C20.3265 39.084 20.4967 39.0868 20.667 39.0729C20.7137 39.0702 20.7576 39.0063 20.8043 38.9731C20.7576 38.9287 20.7164 38.8649 20.6615 38.8482C20.5928 38.826 20.5104 38.8427 20.4363 38.8427ZM10.1109 36.7426C10.1109 36.6538 10.1219 36.5595 10.1054 36.4735C10.0972 36.4319 10.0367 36.3736 9.9983 36.3736C9.95986 36.3736 9.89395 36.4347 9.8912 36.4707C9.88022 36.6483 9.87747 36.8286 9.8912 37.0089C9.8912 37.0533 9.95436 37.0921 9.98732 37.1338C10.0285 37.0949 10.0972 37.0589 10.1054 37.0117C10.1246 36.9257 10.1109 36.8341 10.1109 36.7426ZM9.88296 29.9597C9.89395 29.9791 9.91592 30.0484 9.95986 30.0706C9.99006 30.0873 10.0587 30.0484 10.0999 30.0179C10.1603 29.9708 10.2125 29.9125 10.2647 29.8515C10.2921 29.8182 10.3306 29.7655 10.3223 29.7322C10.3141 29.6961 10.2592 29.6573 10.218 29.6462C10.0532 29.6073 9.8912 29.7433 9.88571 29.9569L9.88296 29.9597ZM23.5559 29.6434C23.5367 29.6573 23.4653 29.685 23.4543 29.7266C23.4461 29.7655 23.4982 29.8237 23.5339 29.8681C23.5724 29.918 23.6136 29.9624 23.6602 30.0013C23.6987 30.0346 23.7536 30.0845 23.7838 30.0734C23.8223 30.0623 23.8635 29.9985 23.8717 29.9513C23.8964 29.7766 23.7756 29.6462 23.5559 29.6406V29.6434ZM10.2152 39.0813C10.2345 39.0674 10.3086 39.0369 10.3141 38.9953C10.3196 38.9536 10.2619 38.8982 10.2262 38.8538C10.1878 38.8066 10.1466 38.7622 10.1027 38.7234C10.067 38.6929 10.0175 38.6429 9.98732 38.6512C9.94612 38.6651 9.89395 38.7151 9.88571 38.7594C9.84726 38.9259 9.99281 39.084 10.2152 39.0813ZM23.8744 38.7483C23.8607 38.7317 23.8305 38.6596 23.7866 38.6512C23.7481 38.6429 23.6932 38.7012 23.6493 38.7372C23.6026 38.7761 23.5559 38.8149 23.5174 38.8621C23.4845 38.9009 23.4461 38.9509 23.4488 38.9953C23.4488 39.023 23.512 39.0702 23.5531 39.0757C23.7316 39.109 23.8744 38.9786 23.8717 38.7483H23.8744Z" fill="#174289"/>
<path d="M14.8505 20.2393C16.2922 20.8579 17.7311 21.4766 19.2003 22.1091C19.0575 22.2228 18.9449 22.3116 18.8296 22.4031C17.5334 21.8428 16.2427 21.2851 14.9521 20.7275C14.661 20.6027 14.5429 20.6443 14.4193 20.9384C13.4033 23.327 12.3872 25.7183 11.3739 28.1097C11.2778 28.3372 11.2778 28.3399 10.8494 28.2983C11.0251 27.8822 11.1954 27.4716 11.3684 27.0638C12.2609 24.9637 13.1534 22.8637 14.0404 20.7608C14.1502 20.5 14.326 20.3336 14.5813 20.242C14.6692 20.242 14.7598 20.242 14.8477 20.242L14.8505 20.2393Z" fill="#54A928"/>
<path d="M22.4238 26.8256C22.0009 27.1641 21.5835 27.4998 21.1661 27.8354C21.1414 27.8549 21.1112 27.8687 21.0892 27.8909C20.7734 28.2266 20.4027 28.3986 19.9331 28.3126C19.8342 28.2932 19.7299 28.3126 19.6722 28.3126C19.6283 27.9436 19.631 27.5747 19.5377 27.2334C19.2768 26.2847 18.2964 25.4885 17.2886 25.5661C16.5526 25.6244 15.921 26.2625 15.8771 27.0087C15.8524 27.4609 15.9293 27.8882 16.1544 28.3043H13.0376C15.2153 26.5621 17.3627 24.8449 19.5157 23.1221C19.9963 23.5243 20.5098 23.5937 21.0782 23.3052C21.5863 23.9516 22.0943 24.5979 22.5996 25.2471C22.1877 25.7465 22.163 26.3013 22.4238 26.8312V26.8256Z" fill="#54A928"/>
<path d="M11.5215 28.1986C12.4222 26.0763 13.3229 23.9541 14.2209 21.8346C14.9706 21.8984 15.2699 21.7763 15.6873 21.2354C16.1212 21.424 16.5634 21.6154 17.0027 21.8068C17.2828 21.9289 17.5629 22.0426 17.8376 22.173C17.8842 22.1952 17.9227 22.2812 17.9309 22.3423C17.9502 22.5365 17.9364 22.7362 17.9666 22.9276C17.9831 23.0303 17.9804 23.0913 17.898 23.1579C17.1648 23.7405 16.4343 24.3286 15.6983 24.9084C15.6434 24.95 15.5308 24.9611 15.4649 24.9361C14.8745 24.7059 14.2868 24.6559 13.6909 24.9084C12.8836 25.2469 12.5128 26.118 12.8479 26.9363C12.9083 27.0862 12.8945 27.1722 12.7627 27.272C12.3536 27.5855 11.9526 27.9101 11.5489 28.2319C11.5407 28.2236 11.5325 28.2125 11.5242 28.2042L11.5215 28.1986Z" fill="#54A928"/>
<path d="M23.3225 35.5606C22.8062 35.5606 22.2927 35.5634 21.7764 35.5606C21.1036 35.5551 20.6258 35.1417 20.5352 34.5259C20.4363 33.8323 20.9361 33.1915 21.6583 33.1748C22.7568 33.1526 23.858 33.1693 24.9592 33.1665C25.1432 33.1665 25.231 33.2802 25.2338 33.4439C25.242 34.0542 25.242 34.6646 25.2338 35.2749C25.2338 35.4691 25.1184 35.5579 24.9015 35.5579C24.3742 35.5579 23.847 35.5579 23.317 35.5579L23.3225 35.5606ZM21.694 34.9531C22.0291 34.9531 22.2927 34.6923 22.2927 34.3594C22.2927 34.0459 22.0236 33.7685 21.7105 33.7657C21.3672 33.7629 21.1036 34.0293 21.1091 34.3733C21.1146 34.7034 21.3672 34.9531 21.694 34.9531Z" fill="url(#paint0_radial_4028_32129)"/>
<path d="M20.9001 28.2735C21.5455 27.7575 22.1908 27.2415 22.8389 26.7228C22.9872 26.6035 23.141 26.487 23.2838 26.3621C23.4485 26.2179 23.4623 26.0653 23.3277 25.8905C22.427 24.7364 21.5262 23.5851 20.62 22.4338C20.48 22.2563 20.3372 22.2424 20.1422 22.395C19.4914 22.9082 18.8433 23.4242 18.1952 23.943C17.116 24.8086 16.0367 25.6741 14.9548 26.5397C14.2628 27.0945 13.5707 27.6466 12.8732 28.1931C12.7881 28.2597 12.6618 28.293 12.5519 28.3096C12.4146 28.329 12.2746 28.3152 12.0796 28.3152C12.3597 28.0877 12.6041 27.8879 12.8485 27.6937C14.2271 26.5896 15.6084 25.4882 16.9869 24.3841C17.9535 23.6129 18.9202 22.8389 19.8896 22.0704C20.2603 21.7763 20.6667 21.8263 20.9578 22.1953C21.4988 22.8833 22.037 23.574 22.5753 24.262C22.9213 24.7059 23.2728 25.147 23.616 25.5909C23.9346 26.0015 23.9044 26.3926 23.5062 26.7144C22.8746 27.2304 22.232 27.7353 21.5921 28.243C21.5427 28.2819 21.4686 28.3068 21.4027 28.3124C21.2379 28.3207 21.0731 28.3152 20.9084 28.3152C20.9029 28.3013 20.9001 28.2874 20.8946 28.2763L20.9001 28.2735Z" fill="#54A928"/>
<path d="M17.965 28.3096C18.0694 28.2181 18.1683 28.1626 18.2232 28.0766C18.2699 28.0045 18.3028 27.8741 18.2671 27.8186C18.2232 27.752 18.0969 27.7021 18.0145 27.7132C17.803 27.7409 17.5971 27.8214 17.3856 27.8519C16.8831 27.9268 16.548 27.4829 16.7403 27.0058C16.7787 26.9114 16.8364 26.8282 16.8858 26.7367C16.8227 26.6118 16.6497 26.4898 16.8391 26.3427C17.0094 26.2096 17.0753 26.3954 17.1632 26.4759C17.3279 26.3954 17.4845 26.3205 17.6575 26.2373C17.7206 26.3788 17.7728 26.5009 17.8332 26.634C17.7673 26.6618 17.7014 26.6812 17.6438 26.7145C17.5202 26.7894 17.3856 26.856 17.284 26.9558C17.2291 27.0085 17.1906 27.1417 17.2208 27.2C17.2511 27.2582 17.3801 27.2998 17.457 27.2915C17.63 27.2693 17.8003 27.2055 17.9733 27.1639C18.3907 27.0585 18.7175 27.2527 18.8109 27.6632C18.863 27.8963 18.7614 28.0905 18.6351 28.268C18.6159 28.2958 18.5582 28.3013 18.517 28.3013C18.3468 28.3041 18.1738 28.3013 17.9678 28.3013L17.965 28.3096Z" fill="#54A928"/>
<path d="M13.748 25.9097C13.8551 25.7599 13.954 25.6212 14.0666 25.4658C14.1901 25.5629 14.2972 25.6461 14.4263 25.7488C14.1764 26.029 13.9347 26.2981 13.6931 26.5672C13.6711 26.5561 13.6491 26.545 13.6272 26.5339C13.6272 26.4812 13.6382 26.4257 13.6244 26.3785C13.6107 26.3258 13.586 26.2565 13.5448 26.2315C13.4377 26.1677 13.3141 26.1233 13.3883 25.9624C13.4624 25.796 13.586 25.8403 13.7068 25.9014C13.7178 25.9069 13.7315 25.9041 13.748 25.9069V25.9097Z" fill="#54A928"/>
<path d="M23.7062 27.9015H22.6792C22.9428 27.6879 23.1762 27.4993 23.4509 27.2773C23.536 27.4882 23.6129 27.6741 23.7062 27.9015Z" fill="#54A928"/>
</g>
<path d="M11.4484 8V1.78895H12.8403L14.849 5.63011H14.7433L16.7432 1.78895H18.1087V8H16.796V3.90335H16.8489L15.2014 7.00447H14.3557L12.6994 3.90335H12.7611V8H11.4484ZM19.4019 2.79329V1.49822H20.8996V2.79329H19.4019ZM19.4547 8V3.60381H20.8555V8H19.4547ZM1.0334 18V11.7889H3.93189C4.61907 11.7889 5.15354 11.9299 5.53531 12.2118C5.91708 12.4937 6.10796 12.8902 6.10796 13.4012C6.10796 13.7653 6.01105 14.0678 5.81723 14.3086C5.62341 14.5494 5.37673 14.7139 5.07719 14.802V14.7667C5.31212 14.8137 5.51769 14.9018 5.69389 15.031C5.87596 15.1544 6.01692 15.3159 6.11677 15.5156C6.22249 15.7153 6.27535 15.959 6.27535 16.2468C6.27535 16.611 6.18431 16.9252 6.00224 17.1895C5.82017 17.4479 5.56174 17.6476 5.22696 17.7886C4.89218 17.9295 4.48986 18 4.01999 18H1.0334ZM2.41657 16.9164H3.92308C4.05229 16.9164 4.16976 16.9076 4.27548 16.8899C4.3812 16.8664 4.47224 16.8341 4.54859 16.793C4.62494 16.7519 4.68955 16.6991 4.74241 16.6344C4.79527 16.5698 4.83345 16.4994 4.85694 16.423C4.88043 16.3408 4.89218 16.2527 4.89218 16.1587C4.89218 16.053 4.8775 15.959 4.84813 15.8768C4.82464 15.7946 4.78646 15.7241 4.7336 15.6653C4.68074 15.6066 4.61613 15.5567 4.53978 15.5156C4.46343 15.4745 4.37239 15.4451 4.26667 15.4275C4.16682 15.4099 4.05229 15.401 3.92308 15.401H2.41657V16.9164ZM2.41657 14.3262H3.77331C4.10222 14.3262 4.34302 14.2646 4.49573 14.1412C4.65431 14.0179 4.7336 13.8329 4.7336 13.5862C4.7336 13.3513 4.65431 13.1751 4.49573 13.0576C4.34302 12.9342 4.10222 12.8726 3.77331 12.8726H2.41657V14.3262ZM9.53815 18.0969C9.05653 18.0969 8.63659 18.0029 8.27832 17.815C7.92592 17.6212 7.64987 17.3539 7.45018 17.0133C7.25636 16.6668 7.15945 16.2615 7.15945 15.7975C7.15945 15.3335 7.25636 14.9312 7.45018 14.5905C7.64987 14.244 7.92592 13.9797 8.27832 13.7976C8.63659 13.6097 9.05653 13.5157 9.53815 13.5157C10.0198 13.5157 10.4368 13.6097 10.7892 13.7976C11.1474 13.9797 11.4235 14.244 11.6173 14.5905C11.8111 14.9312 11.908 15.3335 11.908 15.7975C11.908 16.2615 11.8111 16.6668 11.6173 17.0133C11.4235 17.3539 11.1474 17.6212 10.7892 17.815C10.4368 18.0029 10.0198 18.0969 9.53815 18.0969ZM9.53815 17.0133C9.84943 17.0133 10.0932 16.9076 10.2694 16.6961C10.4456 16.4847 10.5337 16.1851 10.5337 15.7975C10.5337 15.404 10.4456 15.1044 10.2694 14.8989C10.0932 14.6933 9.84943 14.5905 9.53815 14.5905C9.22686 14.5905 8.98018 14.6933 8.79811 14.8989C8.62191 15.1044 8.53381 15.404 8.53381 15.7975C8.53381 16.1851 8.62191 16.4847 8.79811 16.6961C8.98018 16.9076 9.22686 17.0133 9.53815 17.0133ZM14.5332 18.0969C13.987 18.0969 13.5759 17.956 13.2998 17.674C13.0296 17.3862 12.8946 16.9692 12.8946 16.423V11.7889H14.2953V16.3437C14.2953 16.4847 14.3159 16.6051 14.357 16.7049C14.3981 16.8048 14.4598 16.8811 14.542 16.934C14.6242 16.981 14.727 17.0045 14.8504 17.0045C14.9326 17.0045 15.009 17.0015 15.0794 16.9957C15.1499 16.9839 15.2233 16.9692 15.2997 16.9516L15.3614 17.9648C15.2204 18.0117 15.0853 18.0441 14.9561 18.0617C14.8328 18.0852 14.6918 18.0969 14.5332 18.0969ZM17.7712 18.0969C17.5011 18.0969 17.2397 18.0764 16.9871 18.0352C16.7405 18 16.5143 17.9471 16.3088 17.8767C16.1091 17.8062 15.9299 17.7181 15.7714 17.6124L16.0973 16.6961C16.25 16.7842 16.4174 16.8606 16.5995 16.9252C16.7874 16.9898 16.9783 17.0368 17.1722 17.0661C17.366 17.0955 17.551 17.1102 17.7272 17.1102C18.0208 17.1102 18.2352 17.0779 18.3703 17.0133C18.5113 16.9428 18.5818 16.84 18.5818 16.7049C18.5818 16.5933 18.5406 16.5111 18.4584 16.4582C18.3821 16.3995 18.2587 16.3584 18.0884 16.3349L17.1017 16.1939C16.6847 16.1293 16.3734 15.9884 16.1678 15.7711C15.9622 15.5479 15.8595 15.2748 15.8595 14.9517C15.8595 14.6698 15.9388 14.4231 16.0973 14.2117C16.2559 13.9944 16.4879 13.8241 16.7933 13.7007C17.0987 13.5774 17.4746 13.5157 17.921 13.5157C18.1442 13.5157 18.3644 13.5333 18.5818 13.5686C18.7991 13.5979 19.0017 13.6479 19.1896 13.7183C19.3776 13.7888 19.5391 13.8769 19.6742 13.9826L19.3218 14.8901C19.2043 14.802 19.0663 14.7286 18.9077 14.6698C18.7491 14.6111 18.5847 14.567 18.4144 14.5377C18.2499 14.5083 18.0884 14.4936 17.9298 14.4936C17.6361 14.4936 17.4218 14.5318 17.2867 14.6081C17.1516 14.6786 17.0841 14.7785 17.0841 14.9077C17.0841 15.0075 17.1193 15.0868 17.1898 15.1456C17.2661 15.2043 17.3836 15.2454 17.5422 15.2689L18.5025 15.4187C18.9488 15.4891 19.2777 15.6272 19.4892 15.8327C19.7006 16.0324 19.8063 16.3085 19.8063 16.6609C19.8063 16.9604 19.7212 17.2188 19.5509 17.4362C19.3864 17.6476 19.1515 17.8121 18.8461 17.9295C18.5465 18.0411 18.1882 18.0969 17.7712 18.0969ZM20.6537 12.7933V11.4982H22.1514V12.7933H20.6537ZM20.7065 18V13.6038H22.1073V18H20.7065ZM24.9521 18.0969C24.4058 18.0969 23.9947 17.956 23.7187 17.674C23.4485 17.3862 23.3134 16.9692 23.3134 16.423V11.7889H24.7142V16.3437C24.7142 16.4847 24.7348 16.6051 24.7759 16.7049C24.817 16.8048 24.8787 16.8811 24.9609 16.934C25.0431 16.981 25.1459 17.0045 25.2692 17.0045C25.3515 17.0045 25.4278 17.0015 25.4983 16.9957C25.5688 16.9839 25.6422 16.9692 25.7185 16.9516L25.7802 17.9648C25.6392 18.0117 25.5042 18.0441 25.3749 18.0617C25.2516 18.0852 25.1106 18.0969 24.9521 18.0969ZM28.101 18.0969C27.5547 18.0969 27.1436 17.956 26.8676 17.674C26.5974 17.3862 26.4623 16.9692 26.4623 16.423V11.7889H27.8631V16.3437C27.8631 16.4847 27.8836 16.6051 27.9248 16.7049C27.9659 16.8048 28.0275 16.8811 28.1098 16.934C28.192 16.981 28.2948 17.0045 28.4181 17.0045C28.5003 17.0045 28.5767 17.0015 28.6472 16.9957C28.7177 16.9839 28.7911 16.9692 28.8674 16.9516L28.9291 17.9648C28.7881 18.0117 28.653 18.0441 28.5238 18.0617C28.4005 18.0852 28.2595 18.0969 28.101 18.0969ZM31.7266 18.0969C31.245 18.0969 30.8251 18.0029 30.4668 17.815C30.1144 17.6212 29.8383 17.3539 29.6386 17.0133C29.4448 16.6668 29.3479 16.2615 29.3479 15.7975C29.3479 15.3335 29.4448 14.9312 29.6386 14.5905C29.8383 14.244 30.1144 13.9797 30.4668 13.7976C30.8251 13.6097 31.245 13.5157 31.7266 13.5157C32.2082 13.5157 32.6252 13.6097 32.9776 13.7976C33.3359 13.9797 33.612 14.244 33.8058 14.5905C33.9996 14.9312 34.0965 15.3335 34.0965 15.7975C34.0965 16.2615 33.9996 16.6668 33.8058 17.0133C33.612 17.3539 33.3359 17.6212 32.9776 17.815C32.6252 18.0029 32.2082 18.0969 31.7266 18.0969ZM31.7266 17.0133C32.0379 17.0133 32.2816 16.9076 32.4578 16.6961C32.634 16.4847 32.7221 16.1851 32.7221 15.7975C32.7221 15.404 32.634 15.1044 32.4578 14.8989C32.2816 14.6933 32.0379 14.5905 31.7266 14.5905C31.4153 14.5905 31.1686 14.6933 30.9866 14.8989C30.8104 15.1044 30.7223 15.404 30.7223 15.7975C30.7223 16.1851 30.8104 16.4847 30.9866 16.6961C31.1686 16.9076 31.4153 17.0133 31.7266 17.0133Z" fill="#002E6D"/>
<defs>
<radialGradient id="paint0_radial_4028_32129" cx="0" cy="0" r="1" gradientUnits="userSpaceOnUse" gradientTransform="translate(20.7438 33.1631) rotate(30.7555) scale(4.03119 3.58691)">
<stop stop-color="#003F8F"/>
<stop offset="1" stop-color="#2693D1"/>
</radialGradient>
<clipPath id="clip0_4028_32129">
<rect width="19.7607" height="19.7607" fill="white" transform="translate(7.51831 20.2393)"/>
</clipPath>
</defs>
</svg>
