<svg width="35" height="34" viewBox="0 0 35 34" fill="none" xmlns="http://www.w3.org/2000/svg">
<g clip-path="url(#clip0_3995_31869)">
<path d="M17.5075 26.6601C21.4431 26.6601 24.6335 23.4697 24.6335 19.5341C24.6335 15.5986 21.4431 12.4082 17.5075 12.4082C13.572 12.4082 10.3816 15.5986 10.3816 19.5341C10.3816 23.4697 13.572 26.6601 17.5075 26.6601Z" fill="#003F8F"/>
<path d="M1.88855 19.8359C1.92212 19.9167 1.94501 19.9289 2.00147 19.8435C2.48212 19.1187 2.96736 18.3969 3.45259 17.6752C3.66011 17.3685 3.81576 17.3334 4.1423 17.5104C4.19265 17.5379 4.24453 17.5562 4.29641 17.5379C4.60922 17.428 4.93118 17.338 5.20737 17.1427C5.4271 16.987 5.5568 16.7658 5.66209 16.5247C5.90318 15.9677 6.1046 15.3955 6.31517 14.8279C6.60509 14.0497 6.88738 13.2669 7.18951 12.4933C7.58472 11.4831 8.27137 10.7141 9.19759 10.1571C9.34865 10.0656 9.52108 10.0213 9.68587 9.95721C11.7352 9.1607 13.786 8.36265 15.8352 7.56614C15.9939 7.50357 16.1526 7.43949 16.3128 7.37998C16.5692 7.28385 16.7721 7.36472 16.8683 7.62259C17.0422 8.09257 17.0453 8.55797 16.8469 9.03405C16.6623 9.47808 16.3357 9.74817 15.9298 9.97705C15.1394 10.4257 14.3383 10.8575 13.5433 11.297C13.4091 11.3717 13.3557 11.4541 13.4091 11.6128C13.5876 12.1347 13.5708 12.658 13.4091 13.183C13.3007 13.5324 13.0734 13.8101 12.8765 14.1061C12.4691 14.715 12.051 15.3177 11.639 15.925C11.3674 16.3248 11.2789 16.7886 11.1996 17.251C10.9722 18.5938 10.2978 19.6497 9.17775 20.4233C9.07246 20.495 8.95802 20.55 8.839 20.5973C8.80391 20.611 8.75355 20.6156 8.75203 20.6629C8.7505 20.7087 8.7978 20.7224 8.82985 20.7422C8.94734 20.814 9.06026 20.8903 9.16097 20.9849C9.36696 21.1771 9.39901 21.3236 9.23879 21.5525C8.9275 21.9965 8.64674 22.4619 8.30341 22.8846C8.14319 23.083 8.01044 23.2996 7.86853 23.5102C7.78461 23.6369 7.70221 23.7635 7.59082 23.8673C7.45959 23.9893 7.29785 24.0107 7.14831 23.91C6.11223 23.2096 5.06394 22.526 4.05074 21.7905C3.47701 21.374 2.88801 20.9803 2.30207 20.5805C2.14795 20.4752 2.0213 20.3425 1.8855 20.2173V19.8359H1.88855ZM12.7712 12.3956C12.7621 12.0645 12.6553 11.7715 12.4889 11.4923C12.4325 11.3977 12.4004 11.3931 12.3394 11.4831C12.1914 11.7013 12.0373 11.9165 11.8893 12.1347C11.3644 12.9007 10.841 13.6682 10.3176 14.4342C10.2764 14.4952 10.2291 14.5517 10.1681 14.5929C9.93459 14.7562 9.65383 14.6356 9.59432 14.3579C9.55159 14.1626 9.66756 14.0314 9.76217 13.8925C10.3786 12.9831 10.9966 12.0721 11.6192 11.1657C11.7626 10.9567 11.8954 10.7385 12.0693 10.5508C12.1853 10.4241 12.3165 10.4058 12.4676 10.4684C12.5958 10.5203 12.7087 10.5966 12.8109 10.6896C12.8903 10.7629 12.9665 10.769 13.0596 10.7064C13.1725 10.6301 13.2961 10.5676 13.4152 10.502C14.1735 10.0854 14.9319 9.67035 15.6918 9.25378C16.0351 9.06457 16.1862 8.75633 16.2381 8.38249C16.2533 8.2711 16.2274 8.23753 16.1129 8.28026C15.1577 8.64189 14.1979 8.99132 13.2458 9.36059C12.1792 9.77411 11.1248 10.2197 10.0536 10.621C9.0038 11.0131 8.3263 11.7639 7.87616 12.7542C7.70679 13.128 7.60303 13.5278 7.46265 13.9139C7.13153 14.8233 6.78057 15.7251 6.45861 16.6376C6.21751 17.3212 5.81773 17.8278 5.09751 18.0338C5.06241 18.0445 5.01053 18.0521 5.00901 18.0979C5.00901 18.1421 5.05936 18.1543 5.08988 18.1742C5.28519 18.3039 5.48356 18.429 5.67735 18.5602C6.4113 19.0546 7.14221 19.5505 7.87464 20.048C7.95703 20.1044 8.0318 20.1166 8.13251 20.0739C8.85884 19.7718 9.43105 19.2896 9.87203 18.6396C10.2001 18.1559 10.3969 17.6233 10.4748 17.0496C10.5694 16.3461 10.8196 15.7098 11.2179 15.1269C11.6146 14.5456 12.0312 13.9795 12.4065 13.3828C12.5988 13.0777 12.7575 12.7603 12.7682 12.3941L12.7712 12.3956ZM7.25055 23.0235C7.32989 23.028 7.35736 22.9853 7.38482 22.9441C7.70374 22.4696 8.0196 21.992 8.34461 21.522C8.42548 21.406 8.40107 21.3511 8.29578 21.2809C7.896 21.0169 7.49927 20.7483 7.10406 20.4783C6.10612 19.7916 5.10819 19.1034 4.11331 18.4107C4.00344 18.3344 3.9363 18.3405 3.86153 18.4488C3.53804 18.9203 3.2115 19.3888 2.88496 19.8572C2.81324 19.961 2.81629 20.022 2.93531 20.1014C3.70742 20.6171 4.48105 21.1313 5.23942 21.6654C5.86656 22.1064 6.49828 22.5443 7.13916 22.9639C7.17883 22.9899 7.22461 23.0082 7.25055 23.0219V23.0235Z" fill="#003F8F"/>
<path d="M33.1116 20.3062C33.0918 20.2955 33.0735 20.2665 33.0475 20.2879C32.4875 20.7716 31.8466 21.1408 31.2409 21.5605C30.2735 22.2319 29.2969 22.891 28.3234 23.5548C28.1662 23.6616 28.0075 23.7684 27.8458 23.8691C27.6489 23.9912 27.5162 23.9729 27.3498 23.8051C27.2049 23.657 27.1087 23.4724 26.9928 23.3046C26.5838 22.714 26.1627 22.1312 25.769 21.53C25.5996 21.2705 25.6317 21.0676 25.888 20.8952C25.9811 20.8326 26.0772 20.7746 26.1688 20.7075C26.2481 20.6495 26.2481 20.6022 26.149 20.5503C25.7034 20.3123 25.2822 20.0391 24.9481 19.65C24.3301 18.9329 23.915 18.1119 23.7853 17.175C23.6953 16.525 23.4527 15.962 23.0712 15.4355C22.618 14.8099 22.1755 14.1751 21.7742 13.5159C21.4049 12.9132 21.3378 12.2495 21.5789 11.5704C21.6491 11.3751 21.6399 11.366 21.4522 11.2714C20.7686 10.9235 20.1034 10.5405 19.435 10.1636C19.2565 10.0628 19.0657 9.9835 18.8887 9.87821C18.3791 9.57456 18.1166 9.10764 18.0251 8.5339C17.9732 8.21194 18.0068 7.90065 18.1441 7.6031C18.2524 7.36812 18.4233 7.28419 18.6675 7.37422C19.2092 7.57106 19.7539 7.75874 20.2834 7.98763C20.7137 8.17379 21.1578 8.3279 21.5942 8.49728C22.4731 8.83908 23.3489 9.18851 24.2324 9.5181C24.6444 9.67222 25.0457 9.85075 25.4562 10.0064C25.9109 10.1788 26.2893 10.4611 26.6449 10.7724C27.2064 11.2653 27.5909 11.8802 27.8473 12.5852C28.3127 13.8608 28.8025 15.1288 29.277 16.4029C29.454 16.876 29.7501 17.2178 30.246 17.3658C30.3162 17.3871 30.3818 17.4207 30.4489 17.4497C30.6397 17.5336 30.8121 17.5901 31.0211 17.4528C31.2012 17.3353 31.3858 17.4161 31.5277 17.6359C31.7932 18.0463 32.0816 18.4415 32.3532 18.8474C32.5837 19.1923 32.808 19.5432 33.0353 19.8911C33.0567 19.9232 33.0857 19.9506 33.1101 19.9796V20.3031L33.1116 20.3062ZM22.7004 10.4352C22.7691 10.4245 22.8469 10.4687 22.9186 10.5343C23.0346 10.6427 23.1216 10.7709 23.2086 10.9021C23.6144 11.514 24.0325 12.1152 24.4506 12.7179C24.7573 13.1589 25.0671 13.5983 25.3448 14.0607C25.3982 14.1507 25.4425 14.2407 25.4119 14.3506C25.3677 14.5124 25.2594 14.6253 25.1052 14.6558C24.945 14.6878 24.8107 14.5993 24.7177 14.4681C24.5346 14.2087 24.356 13.9447 24.176 13.6838C23.674 12.9559 23.1704 12.2281 22.6714 11.4972C22.6028 11.3965 22.5524 11.4011 22.4899 11.4941C22.1481 11.9977 22.1221 12.6386 22.4197 13.1177C22.7767 13.6899 23.1689 14.2392 23.5427 14.8008C23.8098 15.2036 24.1104 15.5851 24.2828 16.0459C24.4247 16.4243 24.4705 16.8241 24.5544 17.2147C24.739 18.0875 25.1434 18.8352 25.8224 19.4242C26.1276 19.6882 26.4892 19.8682 26.8204 20.0926C26.947 20.178 27.0462 20.1307 27.1545 20.0575C28.0716 19.4334 28.9902 18.8108 29.9088 18.1882C29.9408 18.1669 29.9835 18.1486 29.979 18.1028C29.9713 18.0479 29.9149 18.0479 29.8767 18.0341C29.2786 17.8312 28.865 17.439 28.6438 16.8455C28.2989 15.9208 27.9648 14.9915 27.6077 14.0698C27.3681 13.4519 27.2095 12.8018 26.8554 12.2281C26.4633 11.5933 25.9674 11.0654 25.2853 10.7541C24.7177 10.4947 24.1271 10.2795 23.5412 10.0628C22.5463 9.69511 21.556 9.31516 20.5733 8.9169C20.0164 8.69107 19.4533 8.48049 18.8887 8.27145C18.7682 8.22719 18.7468 8.25161 18.759 8.38131C18.7941 8.76889 18.9925 9.04813 19.3236 9.23734C19.7509 9.48301 20.1812 9.7241 20.61 9.96977C21.0418 10.2185 21.5011 10.4199 21.9161 10.6976C22.0428 10.7831 22.1267 10.7815 22.2274 10.6671C22.3434 10.5374 22.4822 10.4382 22.702 10.4352H22.7004ZM32.2037 19.9644C32.1884 19.9339 32.1701 19.8881 32.1427 19.8484C31.8054 19.3571 31.4652 18.8673 31.128 18.3759C31.073 18.2966 31.0227 18.2966 30.9464 18.35C30.1453 18.9008 29.3442 19.4532 28.5385 19.9995C27.9159 20.4206 27.3331 20.9013 26.6723 21.2675C26.5671 21.3255 26.5777 21.3941 26.6449 21.4811C26.9272 21.8504 27.1728 22.2441 27.4338 22.6271C27.5101 22.74 27.5848 22.8544 27.6581 22.9704C27.7145 23.0589 27.7695 23.0757 27.858 23.0024C27.9709 22.9094 28.096 22.83 28.2165 22.7476C29.5212 21.858 30.8258 20.9699 32.1305 20.0804C32.1671 20.0559 32.2083 20.0361 32.2037 19.9659V19.9644Z" fill="#003F8F"/>
<path d="M17.5073 23.8244C16.1553 23.8244 15.0552 22.7242 15.0552 21.3723C15.0552 21.0335 15.3298 20.7588 15.6686 20.7588C16.0073 20.7588 16.282 21.0335 16.282 21.3723C16.282 22.0482 16.8328 22.5991 17.5088 22.5991C18.1848 22.5991 18.7356 22.0482 18.7356 21.3723C18.7356 20.6963 18.1848 20.1454 17.5088 20.1454C16.1569 20.1454 15.0567 19.0453 15.0567 17.6933C15.0567 16.3414 16.1569 15.2412 17.5088 15.2412C18.8608 15.2412 19.9609 16.3414 19.9609 17.6933C19.9609 18.0321 19.6863 18.3067 19.3475 18.3067C19.0088 18.3067 18.7341 18.0321 18.7341 17.6933C18.7341 17.0174 18.1833 16.4665 17.5073 16.4665C16.8313 16.4665 16.2805 17.0174 16.2805 17.6933C16.2805 18.3693 16.8313 18.9201 17.5073 18.9201C18.8592 18.9201 19.9594 20.0203 19.9594 21.3723C19.9594 22.7242 18.8592 23.8244 17.5073 23.8244Z" fill="white"/>
<path d="M17.5075 16.4683C17.1687 16.4683 16.894 16.1936 16.894 15.8549V14.6281C16.894 14.2893 17.1687 14.0146 17.5075 14.0146C17.8462 14.0146 18.1209 14.2893 18.1209 14.6281V15.8549C18.1209 16.1936 17.8462 16.4683 17.5075 16.4683Z" fill="white"/>
<path d="M17.5075 25.0513C17.1687 25.0513 16.894 24.7766 16.894 24.4379V23.2111C16.894 22.8723 17.1687 22.5977 17.5075 22.5977C17.8462 22.5977 18.1209 22.8723 18.1209 23.2111V24.4379C18.1209 24.7766 17.8462 25.0513 17.5075 25.0513Z" fill="white"/>
<path d="M22.4118 20.1467C22.7505 20.1467 23.0252 19.8721 23.0252 19.5333C23.0252 19.1946 22.7505 18.9199 22.4118 18.9199C22.073 18.9199 21.7983 19.1946 21.7983 19.5333C21.7983 19.8721 22.073 20.1467 22.4118 20.1467Z" fill="white"/>
<path d="M12.6032 20.1467C12.9419 20.1467 13.2166 19.8721 13.2166 19.5333C13.2166 19.1946 12.9419 18.9199 12.6032 18.9199C12.2644 18.9199 11.9897 19.1946 11.9897 19.5333C11.9897 19.8721 12.2644 20.1467 12.6032 20.1467Z" fill="white"/>
</g>
<defs>
<clipPath id="clip0_3995_31869">
<rect width="34" height="34" fill="white" transform="translate(0.5)"/>
</clipPath>
</defs>
</svg>
