<svg width="38" height="40" viewBox="0 0 38 40" fill="none" xmlns="http://www.w3.org/2000/svg">
<path d="M2.88975 4.35426C2.88975 3.7797 3.22106 3.41406 3.82157 3.41406H5.94404C7.71449 3.41406 9.01903 4.57364 9.01903 6.30778C9.01903 8.04193 7.66272 9.18061 6.01651 9.18061H4.68091V11.1655C4.68091 11.7714 4.29783 12.1057 3.78015 12.1057C3.26248 12.1057 2.87939 11.7714 2.87939 11.1655V4.35426H2.88975ZM4.69126 7.57183H5.91298C6.66878 7.57183 7.14504 7.01816 7.14504 6.28689C7.14504 5.55562 6.66878 5.00195 5.91298 5.00195H4.69126V7.57183Z" fill="#E94278"/>
<path d="M15.231 8.82514C15.231 10.6429 13.9989 12.1785 12.1353 12.1785C10.2716 12.1785 9.03955 10.6429 9.03955 8.82514C9.03955 7.00743 10.313 5.44043 12.1353 5.44043C13.9575 5.44043 15.231 7.04921 15.231 8.82514ZM10.7582 8.82514C10.7582 9.66087 11.1931 10.5802 12.1249 10.5802C13.0567 10.5802 13.4916 9.66087 13.4916 8.82514C13.4916 7.98941 13.0671 7.03877 12.1249 7.03877C11.1827 7.03877 10.7582 7.97896 10.7582 8.82514Z" fill="#FECA0E"/>
<path d="M15.49 7.03888C15.3657 6.6837 15.314 6.46432 15.314 6.2136C15.314 5.82707 15.6763 5.51367 16.1837 5.51367C16.6082 5.51367 16.9084 5.79573 17.0016 6.20315L17.9955 9.53563H18.0162L19.0205 6.27628C19.1551 5.80618 19.3933 5.51367 19.9006 5.51367C20.4079 5.51367 20.646 5.80618 20.7806 6.27628L21.7849 9.53563H21.8056L22.7996 6.20315C22.8927 5.79573 23.193 5.51367 23.6175 5.51367C24.1248 5.51367 24.4872 5.82707 24.4872 6.35985C24.4872 6.55834 24.4044 6.74638 24.3215 7.01799L22.841 11.228C22.665 11.7399 22.3647 12.116 21.7953 12.116C21.2672 12.116 20.9566 11.813 20.8013 11.3011L19.9109 8.49097H19.8902L18.9998 11.3011C18.8445 11.813 18.5339 12.116 18.0059 12.116C17.4364 12.116 17.1362 11.7399 16.9602 11.228L15.49 7.04933V7.03888Z" fill="#76B745"/>
<path d="M23.0068 7.03888C22.8826 6.6837 22.8308 6.46432 22.8308 6.2136C22.8308 5.82707 23.1932 5.51367 23.7005 5.51367C24.125 5.51367 24.4253 5.79573 24.5184 6.20315L25.5124 9.53563H25.5331L26.5374 6.27628C26.672 5.80618 26.9101 5.51367 27.4174 5.51367C27.9247 5.51367 28.1629 5.80618 28.2975 6.27628L29.3018 9.53563H29.3225L30.3164 6.20315C30.4096 5.79573 30.7098 5.51367 31.1343 5.51367C31.6417 5.51367 32.004 5.82707 32.004 6.35985C32.004 6.55834 31.9212 6.74638 31.8384 7.01799L30.3578 11.228C30.1818 11.7399 29.8816 12.116 29.3121 12.116C28.7841 12.116 28.4735 11.813 28.3182 11.3011L27.4278 8.49097H27.4071L26.5167 11.3011C26.3614 11.813 26.0508 12.116 25.5227 12.116C24.9533 12.116 24.653 11.7399 24.477 11.228L23.0068 7.04933V7.03888Z" fill="#4259A5"/>
<path d="M34.1471 3.85367C34.1471 4.39689 33.7123 4.85655 33.1739 4.85655C32.6355 4.85655 32.2007 4.38645 32.2007 3.85367C32.2007 3.35223 32.6562 2.89258 33.1739 2.89258C33.6916 2.89258 34.1471 3.34178 34.1471 3.85367ZM32.3146 6.48622C32.3146 5.90121 32.6769 5.51469 33.1843 5.51469C33.6916 5.51469 34.054 5.90121 34.054 6.48622V11.135C34.054 11.72 33.6916 12.1065 33.1843 12.1065C32.6769 12.1065 32.3146 11.72 32.3146 11.135V6.48622Z" fill="#4259A5"/>
<path d="M25.3919 21.276C25.3919 25.1196 22.2951 27.0967 18.4857 27.0967C14.6764 27.0967 11.5796 25.1196 11.5796 21.276C11.5796 17.4323 14.6764 15.1787 18.4857 15.1787C22.2951 15.1787 25.3919 17.4323 25.3919 21.276Z" stroke="white" stroke-width="1.84" stroke-linecap="round" stroke-linejoin="round"/>
<path d="M18.5546 25.2038C14.3616 25.2038 13.375 23.517 13.375 21.4431V20.42C13.375 18.913 14.6082 17.6963 16.1292 17.6963H20.8841C22.4051 17.6963 23.6383 18.913 23.6383 20.42V21.4431C23.6383 23.517 22.5695 25.2038 18.5546 25.2038Z" stroke="white" stroke-width="1.84" stroke-linecap="round" stroke-linejoin="round"/>
<path d="M18.5406 25.2021C14.5532 25.2021 13.6077 23.6121 13.6077 21.6488V20.681C13.6077 19.2569 14.7861 18.1094 16.2249 18.1094H20.7468C22.1993 18.1094 23.364 19.2569 23.364 20.681V21.6488C23.364 23.6121 22.35 25.2021 18.5269 25.2021H18.5406Z" stroke="white" stroke-width="1.84" stroke-linecap="round" stroke-linejoin="round"/>
<path d="M14.7037 30.1535C14.5119 29.476 14.1967 28.8676 13.8404 28.3146C13.7993 28.2593 13.7171 28.1902 13.6623 28.1625C13.5938 28.121 13.3471 28.0381 13.2512 28.0381C12.8675 28.0381 12.7168 28.0657 12.3057 28.2593C11.8124 28.4943 11.3191 29.0474 10.9218 29.4898C9.96258 30.5682 9.11301 31.7434 8.37306 32.9739C8.16752 33.3334 7.94828 33.7205 7.98939 34.0524C8.0442 34.481 8.49639 34.6054 8.93487 34.5916C9.83925 34.5639 10.8258 34.1906 11.7439 33.6238C12.662 33.0569 13.539 32.4624 14.3474 31.6605C14.5393 31.4669 14.7722 31.0798 14.7722 30.8586C14.7722 30.5959 14.7996 30.5406 14.69 30.1535" stroke="white" stroke-width="1.84" stroke-linecap="round" stroke-linejoin="round"/>
<path d="M14.7037 30.1535C14.5119 29.476 14.1967 28.8676 13.8404 28.3146C13.7993 28.2593 13.7171 28.1902 13.6623 28.1625C13.5938 28.121 13.3471 28.0381 13.2512 28.0381C12.8675 28.0381 12.7168 28.0657 12.3057 28.2593C11.8124 28.4943 11.3191 29.0474 10.9218 29.4898C9.96258 30.5682 9.11301 31.7434 8.37306 32.9739C8.16752 33.3334 7.94828 33.7205 7.98939 34.0524C8.0442 34.481 8.49639 34.6054 8.93487 34.5916C9.83925 34.5639 10.8258 34.1906 11.7439 33.6238C12.662 33.0569 13.539 32.4624 14.3474 31.6605C14.5393 31.4669 14.7722 31.0798 14.7722 30.8586C14.7722 30.5959 14.7996 30.5406 14.69 30.1535" stroke="white" stroke-width="1.84" stroke-linecap="round" stroke-linejoin="round"/>
<path d="M14.7857 30.8594C14.7857 30.5967 14.8132 30.5414 14.7035 30.1543C14.5939 29.781 14.4569 29.4353 14.2925 29.1035L8.66064 34.5786C8.75656 34.5786 8.85248 34.5924 8.9621 34.5924C9.01691 34.5924 9.05802 34.5924 9.11283 34.5924C9.57872 34.5509 10.0309 34.4403 10.4557 34.2882C10.8942 34.1223 11.3464 33.9011 11.7849 33.6384C12.0726 33.4725 12.3467 33.2928 12.6207 33.113C12.7166 33.0439 12.7715 33.0024 12.7715 33.0024L12.8948 32.9333C13.4155 32.56 13.9225 32.159 14.3884 31.689C14.5802 31.4954 14.8132 31.1083 14.8132 30.8871L14.7857 30.8594Z" stroke="white" stroke-width="1.84" stroke-linecap="round" stroke-linejoin="round"/>
<path d="M14.7857 30.8594C14.7857 30.5967 14.8132 30.5414 14.7035 30.1543C14.5939 29.781 14.4569 29.4353 14.2925 29.1035L8.66064 34.5786C8.75656 34.5786 8.85248 34.5924 8.9621 34.5924C9.01691 34.5924 9.05802 34.5924 9.11283 34.5924C9.57872 34.5509 10.0309 34.4403 10.4557 34.2882C10.8942 34.1223 11.3464 33.9011 11.7849 33.6384C12.0726 33.4725 12.3467 33.2928 12.6207 33.113C12.7166 33.0439 12.7715 33.0024 12.7715 33.0024L12.8948 32.9333C13.4155 32.56 13.9225 32.159 14.3884 31.689C14.5802 31.4954 14.8132 31.1083 14.8132 30.8871L14.7857 30.8594Z" stroke="white" stroke-width="1.84" stroke-linecap="round" stroke-linejoin="round"/>
<path d="M13.0592 31.4392C13.7479 31.4392 14.3061 30.8759 14.3061 30.181C14.3061 29.4861 13.7479 28.9229 13.0592 28.9229C12.3705 28.9229 11.8123 29.4861 11.8123 30.181C11.8123 30.8759 12.3705 31.4392 13.0592 31.4392Z" stroke="white" stroke-width="1.84" stroke-linecap="round" stroke-linejoin="round"/>
<path d="M22.3223 30.1535C22.5141 29.476 22.8293 28.8676 23.1856 28.3146C23.2267 28.2593 23.3089 28.1902 23.3637 28.1625C23.4322 28.121 23.6789 28.0381 23.7748 28.0381C24.1585 28.0381 24.3092 28.0657 24.7203 28.2593C25.2136 28.4943 25.7069 29.0474 26.1042 29.4898C27.0634 30.5682 27.913 31.7434 28.6529 32.9739C28.8585 33.3334 29.0777 33.7205 29.0366 34.0524C28.9818 34.481 28.5296 34.6054 28.0911 34.5916C27.1867 34.5639 26.2002 34.1906 25.2821 33.6238C24.364 33.0569 23.487 32.4624 22.6786 31.6605C22.4867 31.4669 22.2538 31.0798 22.2538 30.8586C22.2538 30.5959 22.2264 30.5406 22.336 30.1535" stroke="white" stroke-width="1.84" stroke-linecap="round" stroke-linejoin="round"/>
<path d="M22.3223 30.1535C22.5141 29.476 22.8293 28.8676 23.1856 28.3146C23.2267 28.2593 23.3089 28.1902 23.3637 28.1625C23.4322 28.121 23.6789 28.0381 23.7748 28.0381C24.1585 28.0381 24.3092 28.0657 24.7203 28.2593C25.2136 28.4943 25.7069 29.0474 26.1042 29.4898C27.0634 30.5682 27.913 31.7434 28.6529 32.9739C28.8585 33.3334 29.0777 33.7205 29.0366 34.0524C28.9818 34.481 28.5296 34.6054 28.0911 34.5916C27.1867 34.5639 26.2002 34.1906 25.2821 33.6238C24.364 33.0569 23.487 32.4624 22.6786 31.6605C22.4867 31.4669 22.2538 31.0798 22.2538 30.8586C22.2538 30.5959 22.2264 30.5406 22.336 30.1535" stroke="white" stroke-width="1.84" stroke-linecap="round" stroke-linejoin="round"/>
<path d="M22.2403 30.8594C22.2403 30.5967 22.2129 30.5414 22.3225 30.1543C22.4321 29.781 22.5692 29.4353 22.7336 29.1035L28.3654 34.5786C28.2695 34.5786 28.1736 34.5924 28.0639 34.5924C28.0091 34.5924 27.968 34.5924 27.9132 34.5924C27.4473 34.5509 26.9951 34.4403 26.5703 34.2882C26.1319 34.1223 25.6797 33.9011 25.2412 33.6384C24.9534 33.4725 24.6794 33.2928 24.4053 33.113C24.3094 33.0439 24.2546 33.0024 24.2546 33.0024L24.1313 32.9333C23.6106 32.56 23.1036 32.159 22.6377 31.689C22.4458 31.4954 22.2129 31.1083 22.2129 30.8871L22.2403 30.8594Z" stroke="white" stroke-width="1.84" stroke-linecap="round" stroke-linejoin="round"/>
<path d="M22.2403 30.8594C22.2403 30.5967 22.2129 30.5414 22.3225 30.1543C22.4321 29.781 22.5692 29.4353 22.7336 29.1035L28.3654 34.5786C28.2695 34.5786 28.1736 34.5924 28.0639 34.5924C28.0091 34.5924 27.968 34.5924 27.9132 34.5924C27.4473 34.5509 26.9951 34.4403 26.5703 34.2882C26.1319 34.1223 25.6797 33.9011 25.2412 33.6384C24.9534 33.4725 24.6794 33.2928 24.4053 33.113C24.3094 33.0439 24.2546 33.0024 24.2546 33.0024L24.1313 32.9333C23.6106 32.56 23.1036 32.159 22.6377 31.689C22.4458 31.4954 22.2129 31.1083 22.2129 30.8871L22.2403 30.8594Z" stroke="white" stroke-width="1.84" stroke-linecap="round" stroke-linejoin="round"/>
<path d="M23.953 31.4392C24.6417 31.4392 25.1999 30.8759 25.1999 30.181C25.1999 29.4861 24.6417 28.9229 23.953 28.9229C23.2643 28.9229 22.7061 29.4861 22.7061 30.181C22.7061 30.8759 23.2643 31.4392 23.953 31.4392Z" stroke="white" stroke-width="1.84" stroke-linecap="round" stroke-linejoin="round"/>
<path d="M19.1983 37.1068H18.0198C15.0875 37.1068 12.5662 34.3278 12.5662 31.369V30.4565C12.5662 29.1292 13.635 28.0508 14.9504 28.0508H22.0347C23.3502 28.0508 24.419 29.1292 24.419 30.4565V31.3275C24.419 34.3001 22.1306 37.1068 19.1846 37.1068H19.1983Z" stroke="white" stroke-width="1.84" stroke-linecap="round" stroke-linejoin="round"/>
<path d="M18.6913 34.8119C19.9324 34.8119 20.9386 33.7843 20.9386 32.5168C20.9386 31.2492 19.9324 30.2217 18.6913 30.2217C17.4502 30.2217 16.4441 31.2492 16.4441 32.5168C16.4441 33.7843 17.4502 34.8119 18.6913 34.8119Z" stroke="white" stroke-width="1.84" stroke-linecap="round" stroke-linejoin="round"/>
<mask id="mask0_4028_32375" style="mask-type:luminance" maskUnits="userSpaceOnUse" x="16" y="30" width="5" height="5">
<path d="M18.6642 34.4108C19.8296 34.4108 20.7744 33.4761 20.7744 32.3231C20.7744 31.1701 19.8296 30.2354 18.6642 30.2354C17.4987 30.2354 16.554 31.1701 16.554 32.3231C16.554 33.4761 17.4987 34.4108 18.6642 34.4108Z" fill="white"/>
</mask>
<g mask="url(#mask0_4028_32375)">
<path d="M16.5675 31.7286L16.9785 33.2495C16.9785 33.2495 17.0333 33.3324 17.0882 33.3463C17.143 33.3463 17.1978 33.3186 17.2115 33.2633L17.6363 32.1158L17.9925 33.291C17.9925 33.291 18.061 33.3739 18.1022 33.3739C18.157 33.3739 18.1981 33.3463 18.2255 33.291L18.6366 32.1572L18.9654 33.3048C18.9654 33.3048 19.0202 33.3877 19.075 33.4016C19.1299 33.4154 19.171 33.3739 19.1984 33.3186L19.6232 32.1711L19.9794 33.3463C19.9794 33.3463 20.0479 33.4292 20.089 33.4292C20.1439 33.4292 20.185 33.4016 20.2124 33.3463L20.7468 31.8531C20.7468 31.8531 20.7468 31.7148 20.6783 31.6872C20.6097 31.6595 20.5412 31.6872 20.5138 31.7563L20.1027 32.9038L19.7465 31.7425C19.7465 31.7425 19.678 31.6595 19.6369 31.6595C19.5957 31.6595 19.5409 31.6872 19.5135 31.7425L19.0887 32.8762L18.7599 31.7148C18.7599 31.7148 18.7051 31.6319 18.6503 31.618C18.5955 31.618 18.5406 31.6457 18.5269 31.701L18.1159 32.8485L17.7596 31.6872C17.7596 31.6872 17.6911 31.6042 17.65 31.6042C17.5952 31.6042 17.554 31.6319 17.5266 31.6872L17.1019 32.8209L16.7867 31.6733C16.7867 31.6733 16.7045 31.5627 16.636 31.5904C16.5675 31.6042 16.5263 31.6733 16.5538 31.7425L16.5675 31.7286Z" stroke="white" stroke-width="1.84" stroke-linecap="round" stroke-linejoin="round"/>
</g>
<path d="M24.9671 18.9531C23.775 20.2389 23.775 22.2437 24.9671 23.5295C25.2412 22.8659 25.3919 22.1054 25.3919 21.2621C25.3919 20.4187 25.2412 19.6444 24.9671 18.9531Z" stroke="white" stroke-width="1.84" stroke-linecap="round" stroke-linejoin="round"/>
<path d="M25.6243 21.5385C25.6243 21.5385 25.4325 21.2759 25.6654 20.9717C25.6654 20.9717 26.0765 21.1376 26.6657 21.1652L26.6931 21.2758C26.6931 21.2758 25.9395 21.3312 25.638 21.5385H25.6243Z" stroke="white" stroke-width="1.84" stroke-linecap="round" stroke-linejoin="round"/>
<path d="M25.2135 22.7403L25.0217 22.5467C24.3092 21.8278 24.3092 20.6664 25.0217 19.9475L25.2135 19.7539L25.4054 19.9475C26.1179 20.6664 26.1179 21.8278 25.4054 22.5467L25.2135 22.7403Z" stroke="white" stroke-width="1.84" stroke-linecap="round" stroke-linejoin="round"/>
<path d="M26.6109 21.6615C26.8606 21.6615 27.0631 21.4573 27.0631 21.2053C27.0631 20.9533 26.8606 20.749 26.6109 20.749C26.3611 20.749 26.1587 20.9533 26.1587 21.2053C26.1587 21.4573 26.3611 21.6615 26.6109 21.6615Z" stroke="white" stroke-width="1.84" stroke-linecap="round" stroke-linejoin="round"/>
<path d="M12.0044 18.9531C13.1965 20.2389 13.1965 22.2437 12.0044 23.5295C11.7303 22.8659 11.5796 22.1054 11.5796 21.2621C11.5796 20.4048 11.7303 19.6444 12.0044 18.9531Z" stroke="white" stroke-width="1.84" stroke-linecap="round" stroke-linejoin="round"/>
<path d="M11.3462 21.5385C11.3462 21.5385 11.538 21.2759 11.305 20.9717C11.305 20.9717 10.894 21.1376 10.3047 21.1652L10.2773 21.2758C10.2773 21.2758 11.031 21.3312 11.3325 21.5385H11.3462Z" stroke="white" stroke-width="1.84" stroke-linecap="round" stroke-linejoin="round"/>
<path d="M11.7575 22.7403L11.9493 22.5467C12.6619 21.8278 12.6619 20.6664 11.9493 19.9475L11.7575 19.7539L11.5657 19.9475C10.8531 20.6664 10.8531 21.8278 11.5657 22.5467L11.7575 22.7403Z" stroke="white" stroke-width="1.84" stroke-linecap="round" stroke-linejoin="round"/>
<path d="M10.3601 21.6615C10.6099 21.6615 10.8123 21.4573 10.8123 21.2053C10.8123 20.9533 10.6099 20.749 10.3601 20.749C10.1104 20.749 9.90796 20.9533 9.90796 21.2053C9.90796 21.4573 10.1104 21.6615 10.3601 21.6615Z" stroke="white" stroke-width="1.84" stroke-linecap="round" stroke-linejoin="round"/>
<path d="M16.5945 22.1068C16.5945 22.1068 18.8966 22.3694 20.7601 22.0791C20.7601 22.0791 21.3219 24.5401 18.6088 24.5401C16.0601 24.5401 16.5945 22.1068 16.5945 22.1068Z" stroke="white" stroke-width="1.84" stroke-linecap="round" stroke-linejoin="round"/>
<path d="M20.075 24.0003C20.075 24.0003 18.7869 23.1846 17.4578 24.0833C17.4578 24.0833 17.8414 24.3321 18.6225 24.3598C18.6225 24.3598 19.4584 24.3598 20.0613 24.0003H20.075Z" stroke="white" stroke-width="1.84" stroke-linecap="round" stroke-linejoin="round"/>
<path d="M16.348 20.7777C16.2521 21.4552 16.0877 21.5934 15.8273 21.5105C15.5533 21.4275 15.3066 21.1786 15.3066 20.7777C15.3066 20.3767 15.5396 20.0449 15.8273 20.0449C16.1151 20.0449 16.4029 20.3767 16.348 20.7777Z" stroke="white" stroke-width="1.84" stroke-linecap="round" stroke-linejoin="round"/>
<path d="M21.1989 21.5105C21.4865 21.5105 21.7196 21.1824 21.7196 20.7777C21.7196 20.373 21.4865 20.0449 21.1989 20.0449C20.9113 20.0449 20.6782 20.373 20.6782 20.7777C20.6782 21.1824 20.9113 21.5105 21.1989 21.5105Z" stroke="white" stroke-width="1.84" stroke-linecap="round" stroke-linejoin="round"/>
<path d="M15.0054 22.81C15.2552 22.81 15.4576 22.6057 15.4576 22.3537C15.4576 22.1017 15.2552 21.8975 15.0054 21.8975C14.7557 21.8975 14.5532 22.1017 14.5532 22.3537C14.5532 22.6057 14.7557 22.81 15.0054 22.81Z" stroke="white" stroke-width="1.84" stroke-linecap="round" stroke-linejoin="round"/>
<path d="M21.9112 22.81C22.1609 22.81 22.3634 22.6057 22.3634 22.3537C22.3634 22.1017 22.1609 21.8975 21.9112 21.8975C21.6614 21.8975 21.459 22.1017 21.459 22.3537C21.459 22.6057 21.6614 22.81 21.9112 22.81Z" stroke="white" stroke-width="1.84" stroke-linecap="round" stroke-linejoin="round"/>
<path d="M22.6787 28.6735C22.6787 28.9086 20.7877 29.1021 18.4582 29.1021C16.1288 29.1021 14.2378 28.9086 14.2378 28.6735C14.2378 28.4385 16.1288 28.4385 18.4582 28.4385C20.7877 28.4385 22.6787 28.4385 22.6787 28.6735Z" stroke="white" stroke-width="1.84" stroke-linecap="round" stroke-linejoin="round"/>
<path d="M25.3917 21.276C25.3917 25.1196 22.2949 27.0967 18.4855 27.0967C14.6762 27.0967 11.5793 25.1196 11.5793 21.276C11.5793 17.4323 14.6762 15.1787 18.4855 15.1787C22.2949 15.1787 25.3917 17.4323 25.3917 21.276Z" fill="#4259A5"/>
<g style="mix-blend-mode:multiply" opacity="0.25">
<path d="M18.5541 25.2038C14.3611 25.2038 13.3745 23.517 13.3745 21.4431V20.42C13.3745 18.913 14.6078 17.6963 16.1288 17.6963H20.8836C22.4046 17.6963 23.6378 18.913 23.6378 20.42V21.4431C23.6378 23.517 22.569 25.2038 18.5541 25.2038Z" fill="#506BB2"/>
</g>
<path d="M18.5404 25.2021C14.5529 25.2021 13.6074 23.6121 13.6074 21.6488V20.681C13.6074 19.2569 14.7859 18.1094 16.2246 18.1094H20.7465C22.199 18.1094 23.3637 19.2569 23.3637 20.681V21.6488C23.3637 23.6121 22.3497 25.2021 18.5267 25.2021H18.5404Z" fill="white"/>
<path d="M14.7037 30.1525C14.5119 29.475 14.1967 28.8667 13.8404 28.3136C13.7993 28.2583 13.7171 28.1892 13.6623 28.1615C13.5938 28.1201 13.3471 28.0371 13.2512 28.0371C12.8675 28.0371 12.7168 28.0648 12.3057 28.2583C11.8124 28.4934 11.3191 29.0464 10.9218 29.4888C9.96258 30.5673 9.11301 31.7425 8.37306 32.973C8.16752 33.3324 7.94828 33.7196 7.98939 34.0514C8.0442 34.48 8.49639 34.6044 8.93487 34.5906C9.83925 34.563 10.8258 34.1897 11.7439 33.6228C12.662 33.0559 13.539 32.4614 14.3474 31.6595C14.5393 31.4659 14.7722 31.0788 14.7722 30.8576C14.7722 30.5949 14.7996 30.5396 14.69 30.1525" fill="#4259A5"/>
<g style="mix-blend-mode:multiply" opacity="0.25">
<path d="M14.7857 30.8565C14.7857 30.5938 14.8132 30.5385 14.7035 30.1514C14.5939 29.7781 14.4569 29.4324 14.2925 29.1006L8.66064 34.5757C8.75656 34.5757 8.85248 34.5895 8.9621 34.5895C9.01691 34.5895 9.05802 34.5895 9.11283 34.5895C9.57872 34.548 10.0309 34.4374 10.4557 34.2853C10.8942 34.1194 11.3464 33.8982 11.7849 33.6355C12.0726 33.4696 12.3467 33.2898 12.6207 33.1101C12.7166 33.041 12.7715 32.9995 12.7715 32.9995L12.8948 32.9304C13.4155 32.5571 13.9225 32.1561 14.3884 31.686C14.5802 31.4925 14.8132 31.1053 14.8132 30.8841L14.7857 30.8565Z" fill="#506BB2"/>
</g>
<g style="mix-blend-mode:multiply" opacity="0.25">
<path d="M13.0592 31.4392C13.7479 31.4392 14.3061 30.8759 14.3061 30.181C14.3061 29.4861 13.7479 28.9229 13.0592 28.9229C12.3705 28.9229 11.8123 29.4861 11.8123 30.181C11.8123 30.8759 12.3705 31.4392 13.0592 31.4392Z" fill="#506BB2"/>
</g>
<path d="M22.3228 30.1525C22.5146 29.475 22.8298 28.8667 23.186 28.3136C23.2272 28.2583 23.3094 28.1892 23.3642 28.1615C23.4327 28.1201 23.6793 28.0371 23.7753 28.0371C24.1589 28.0371 24.3097 28.0648 24.7207 28.2583C25.214 28.4934 25.7073 29.0464 26.1047 29.4888C27.0639 30.5673 27.9135 31.7425 28.6534 32.973C28.859 33.3324 29.0782 33.7196 29.0371 34.0514C28.9823 34.48 28.5301 34.6044 28.0916 34.5906C27.1872 34.563 26.2006 34.1897 25.2826 33.6228C24.3645 33.0559 23.4875 32.4614 22.679 31.6595C22.4872 31.4659 22.2543 31.0788 22.2543 30.8576C22.2543 30.5949 22.2269 30.5396 22.3365 30.1525" fill="#4259A5"/>
<g style="mix-blend-mode:multiply" opacity="0.25">
<path d="M22.2408 30.8565C22.2408 30.5938 22.2134 30.5385 22.323 30.1514C22.4326 29.7781 22.5697 29.4324 22.7341 29.1006L28.3659 34.5757C28.27 34.5757 28.174 34.5895 28.0644 34.5895C28.0096 34.5895 27.9685 34.5895 27.9137 34.5895C27.4478 34.548 26.9956 34.4374 26.5708 34.2853C26.1323 34.1194 25.6802 33.8982 25.2417 33.6355C24.9539 33.4696 24.6799 33.2898 24.4058 33.1101C24.3099 33.041 24.2551 32.9995 24.2551 32.9995L24.1318 32.9304C23.6111 32.5571 23.1041 32.1561 22.6382 31.686C22.4463 31.4925 22.2134 31.1053 22.2134 30.8841L22.2408 30.8565Z" fill="#506BB2"/>
</g>
<g style="mix-blend-mode:multiply" opacity="0.25">
<path d="M23.9532 31.4392C24.6419 31.4392 25.2002 30.8759 25.2002 30.181C25.2002 29.4861 24.6419 28.9229 23.9532 28.9229C23.2646 28.9229 22.7063 29.4861 22.7063 30.181C22.7063 30.8759 23.2646 31.4392 23.9532 31.4392Z" fill="#506BB2"/>
</g>
<path d="M19.198 37.1068H18.0196C15.0872 37.1068 12.5659 34.3278 12.5659 31.369V30.4565C12.5659 29.1292 13.6347 28.0508 14.9502 28.0508H22.0345C23.3499 28.0508 24.4187 29.1292 24.4187 30.4565V31.3275C24.4187 34.3001 22.1304 37.1068 19.1843 37.1068H19.198Z" fill="#4259A5"/>
<g style="mix-blend-mode:multiply" opacity="0.25">
<path d="M18.6913 34.8119C19.9324 34.8119 20.9386 33.7843 20.9386 32.5168C20.9386 31.2492 19.9324 30.2217 18.6913 30.2217C17.4502 30.2217 16.4441 31.2492 16.4441 32.5168C16.4441 33.7843 17.4502 34.8119 18.6913 34.8119Z" fill="#506BB2"/>
</g>
<path d="M18.6644 34.4108C19.8299 34.4108 20.7746 33.4761 20.7746 32.3231C20.7746 31.1701 19.8299 30.2354 18.6644 30.2354C17.499 30.2354 16.5542 31.1701 16.5542 32.3231C16.5542 33.4761 17.499 34.4108 18.6644 34.4108Z" fill="white"/>
<mask id="mask1_4028_32375" style="mask-type:luminance" maskUnits="userSpaceOnUse" x="16" y="30" width="5" height="5">
<path d="M18.6642 34.4108C19.8296 34.4108 20.7744 33.4761 20.7744 32.3231C20.7744 31.1701 19.8296 30.2354 18.6642 30.2354C17.4987 30.2354 16.554 31.1701 16.554 32.3231C16.554 33.4761 17.4987 34.4108 18.6642 34.4108Z" fill="white"/>
</mask>
<g mask="url(#mask1_4028_32375)">
<path d="M16.5675 31.7286L16.9785 33.2495C16.9785 33.2495 17.0333 33.3324 17.0882 33.3463C17.143 33.3463 17.1978 33.3186 17.2115 33.2633L17.6363 32.1158L17.9925 33.291C17.9925 33.291 18.061 33.3739 18.1022 33.3739C18.157 33.3739 18.1981 33.3463 18.2255 33.291L18.6366 32.1572L18.9654 33.3048C18.9654 33.3048 19.0202 33.3877 19.075 33.4016C19.1299 33.4154 19.171 33.3739 19.1984 33.3186L19.6232 32.1711L19.9794 33.3463C19.9794 33.3463 20.0479 33.4292 20.089 33.4292C20.1439 33.4292 20.185 33.4016 20.2124 33.3463L20.7468 31.8531C20.7468 31.8531 20.7468 31.7148 20.6783 31.6872C20.6097 31.6595 20.5412 31.6872 20.5138 31.7563L20.1027 32.9038L19.7465 31.7425C19.7465 31.7425 19.678 31.6595 19.6369 31.6595C19.5957 31.6595 19.5409 31.6872 19.5135 31.7425L19.0887 32.8762L18.7599 31.7148C18.7599 31.7148 18.7051 31.6319 18.6503 31.618C18.5955 31.618 18.5406 31.6457 18.5269 31.701L18.1159 32.8485L17.7596 31.6872C17.7596 31.6872 17.6911 31.6042 17.65 31.6042C17.5952 31.6042 17.554 31.6319 17.5266 31.6872L17.1019 32.8209L16.7867 31.6733C16.7867 31.6733 16.7045 31.5627 16.636 31.5904C16.5675 31.6042 16.5263 31.6733 16.5538 31.7425L16.5675 31.7286Z" fill="#4259A5"/>
</g>
<g style="mix-blend-mode:multiply" opacity="0.25">
<path d="M24.9669 18.9531C23.7747 20.2389 23.7747 22.2437 24.9669 23.5295C25.2409 22.8659 25.3916 22.1054 25.3916 21.2621C25.3916 20.4187 25.2409 19.6444 24.9669 18.9531Z" fill="#506BB2"/>
</g>
<path d="M25.6243 21.5385C25.6243 21.5385 25.4325 21.2759 25.6654 20.9717C25.6654 20.9717 26.0765 21.1376 26.6657 21.1652L26.6931 21.2758C26.6931 21.2758 25.9395 21.3312 25.638 21.5385H25.6243Z" fill="#4259A5"/>
<path d="M25.2135 22.7403L25.0217 22.5467C24.3092 21.8278 24.3092 20.6664 25.0217 19.9475L25.2135 19.7539L25.4054 19.9475C26.1179 20.6664 26.1179 21.8278 25.4054 22.5467L25.2135 22.7403Z" fill="#4259A5"/>
<path d="M26.6109 21.6615C26.8606 21.6615 27.0631 21.4573 27.0631 21.2053C27.0631 20.9533 26.8606 20.749 26.6109 20.749C26.3611 20.749 26.1587 20.9533 26.1587 21.2053C26.1587 21.4573 26.3611 21.6615 26.6109 21.6615Z" fill="#4259A5"/>
<g style="mix-blend-mode:multiply" opacity="0.25">
<path d="M12.0041 18.9531C13.1963 20.2389 13.1963 22.2437 12.0041 23.5295C11.7301 22.8659 11.5793 22.1054 11.5793 21.2621C11.5793 20.4048 11.7301 19.6444 12.0041 18.9531Z" fill="#506BB2"/>
</g>
<path d="M11.3462 21.5385C11.3462 21.5385 11.538 21.2759 11.305 20.9717C11.305 20.9717 10.894 21.1376 10.3047 21.1652L10.2773 21.2758C10.2773 21.2758 11.031 21.3312 11.3325 21.5385H11.3462Z" fill="#4259A5"/>
<path d="M11.7575 22.7403L11.9493 22.5467C12.6619 21.8278 12.6619 20.6664 11.9493 19.9475L11.7575 19.7539L11.5657 19.9475C10.8531 20.6664 10.8531 21.8278 11.5657 22.5467L11.7575 22.7403Z" fill="#4259A5"/>
<path d="M10.3601 21.6615C10.6099 21.6615 10.8123 21.4573 10.8123 21.2053C10.8123 20.9533 10.6099 20.749 10.3601 20.749C10.1104 20.749 9.90796 20.9533 9.90796 21.2053C9.90796 21.4573 10.1104 21.6615 10.3601 21.6615Z" fill="#4259A5"/>
<path d="M16.5945 22.1068C16.5945 22.1068 18.8966 22.3694 20.7601 22.0791C20.7601 22.0791 21.3219 24.5401 18.6088 24.5401C16.0601 24.5401 16.5945 22.1068 16.5945 22.1068Z" fill="#4259A5"/>
<path d="M20.075 24.0003C20.075 24.0003 18.7869 23.1846 17.4578 24.0833C17.4578 24.0833 17.8414 24.3321 18.6225 24.3598C18.6225 24.3598 19.4584 24.3598 20.0613 24.0003H20.075Z" fill="#E94278"/>
<path d="M16.3478 20.7777C16.2519 21.4552 16.0874 21.5934 15.8271 21.5105C15.553 21.4275 15.3064 21.1786 15.3064 20.7777C15.3064 20.3767 15.5393 20.0449 15.8271 20.0449C16.1149 20.0449 16.4026 20.3767 16.3478 20.7777Z" fill="#4259A5"/>
<path d="M21.1987 21.5105C21.4863 21.5105 21.7194 21.1824 21.7194 20.7777C21.7194 20.373 21.4863 20.0449 21.1987 20.0449C20.9111 20.0449 20.678 20.373 20.678 20.7777C20.678 21.1824 20.9111 21.5105 21.1987 21.5105Z" fill="#4259A5"/>
<path opacity="0.22" d="M15.0052 22.81C15.2549 22.81 15.4574 22.6057 15.4574 22.3537C15.4574 22.1017 15.2549 21.8975 15.0052 21.8975C14.7554 21.8975 14.553 22.1017 14.553 22.3537C14.553 22.6057 14.7554 22.81 15.0052 22.81Z" fill="#506BB2"/>
<path opacity="0.22" d="M21.9112 22.81C22.1609 22.81 22.3634 22.6057 22.3634 22.3537C22.3634 22.1017 22.1609 21.8975 21.9112 21.8975C21.6614 21.8975 21.459 22.1017 21.459 22.3537C21.459 22.6057 21.6614 22.81 21.9112 22.81Z" fill="#506BB2"/>
<g style="mix-blend-mode:multiply" opacity="0.25">
<path d="M22.6784 28.6735C22.6784 28.9086 20.7874 29.1021 18.458 29.1021C16.1285 29.1021 14.2375 28.9086 14.2375 28.6735C14.2375 28.4385 16.1285 28.4385 18.458 28.4385C20.7874 28.4385 22.6784 28.4385 22.6784 28.6735Z" fill="#506BB2"/>
</g>
</svg>
