<svg width="17" height="21" viewBox="0 0 17 21" fill="none" xmlns="http://www.w3.org/2000/svg">
<path d="M3.77441 15.7453V12.2754H4.86062C5.27286 12.2754 5.54114 12.2957 5.66546 12.3296C5.85522 12.3838 6.01881 12.4923 6.14967 12.6685C6.28054 12.8447 6.34598 13.0683 6.34598 13.3462C6.34598 13.5563 6.30671 13.7392 6.23474 13.8816C6.16276 14.0239 6.06461 14.1391 5.95337 14.2204C5.83559 14.3017 5.72435 14.356 5.60003 14.3831C5.43644 14.417 5.20742 14.4305 4.89988 14.4305H4.46147V15.7385H3.7875L3.77441 15.7453ZM4.44839 12.865V13.8477H4.82136C5.08964 13.8477 5.26631 13.8273 5.35792 13.7935C5.44953 13.7596 5.5215 13.6986 5.56731 13.624C5.61966 13.5495 5.64583 13.4546 5.64583 13.353C5.64583 13.2242 5.61311 13.1225 5.54114 13.0412C5.46916 12.9599 5.37755 12.9057 5.26631 12.8853C5.18779 12.8718 5.02421 12.865 4.7821 12.865H4.45493H4.44839Z" fill="white"/>
<path d="M9.5916 15.3053C9.75519 15.4273 9.9384 15.5289 10.1347 15.5967L9.88605 16.0914C9.78136 16.0575 9.68321 16.0169 9.58506 15.9626C9.56543 15.9491 9.41493 15.8474 9.13356 15.6577C8.91763 15.7593 8.66898 15.8068 8.40724 15.8068C7.89031 15.8068 7.49116 15.6509 7.19671 15.3392C6.90226 15.0274 6.7583 14.5869 6.7583 14.0176C6.7583 13.4483 6.90226 13.0078 7.19671 12.6961C7.49116 12.3843 7.88377 12.2217 8.38761 12.2217C8.89146 12.2217 9.27752 12.3776 9.56543 12.6961C9.85334 13.0078 10.0038 13.4483 10.0038 14.0176C10.0038 14.3158 9.96458 14.5801 9.88605 14.8105C9.82716 14.9867 9.72901 15.1494 9.5916 15.312V15.3053ZM9.0485 14.9122C9.13356 14.8038 9.199 14.6818 9.2448 14.5259C9.2906 14.3768 9.31023 14.2074 9.31023 14.0108C9.31023 13.611 9.22517 13.3128 9.05504 13.1095C8.88491 12.9062 8.66244 12.8113 8.38761 12.8113C8.11279 12.8113 7.89031 12.9129 7.71364 13.1095C7.54351 13.306 7.45845 13.6042 7.45845 14.0041C7.45845 14.4039 7.54351 14.7089 7.71364 14.9122C7.88377 15.1155 8.0997 15.2172 8.36144 15.2172C8.45959 15.2172 8.5512 15.2036 8.63626 15.1697C8.49885 15.0748 8.36144 15.0071 8.21748 14.9529L8.40724 14.553C8.62972 14.6343 8.83911 14.7495 9.04195 14.9054L9.0485 14.9122Z" fill="white"/>
<path d="M10.5339 15.7453V12.2754H11.9538C12.3137 12.2754 12.5689 12.3093 12.7325 12.3703C12.8961 12.4313 13.0269 12.5465 13.1251 12.7023C13.2232 12.8582 13.269 13.0412 13.269 13.2513C13.269 13.5088 13.1971 13.7257 13.0466 13.8951C12.8961 14.0645 12.6801 14.173 12.3857 14.2136C12.5296 14.3017 12.654 14.3966 12.7456 14.5051C12.8372 14.6135 12.968 14.7965 13.1316 15.0676L13.5373 15.7453H12.7259L12.2352 14.993C12.065 14.7219 11.9407 14.5525 11.8818 14.4847C11.8164 14.417 11.751 14.3695 11.679 14.3424C11.607 14.3153 11.4958 14.3017 11.3387 14.3017H11.2013V15.7521H10.5273L10.5339 15.7453ZM11.2144 13.746H11.7117C12.0389 13.746 12.2417 13.7325 12.3202 13.7054C12.3988 13.6783 12.4642 13.6308 12.51 13.5563C12.5558 13.4885 12.5754 13.4004 12.5754 13.2987C12.5754 13.1835 12.5427 13.0886 12.4838 13.0141C12.4249 12.9395 12.3399 12.8989 12.2286 12.8786C12.1763 12.8718 12.0127 12.865 11.7379 12.865H11.2079V13.746H11.2144Z" fill="white"/>
<path d="M13.7402 14.6139L14.3946 14.5462C14.4338 14.7766 14.5124 14.9392 14.6367 15.0477C14.7545 15.1561 14.9181 15.2103 15.1274 15.2103C15.3434 15.2103 15.507 15.1629 15.6182 15.068C15.7294 14.9731 15.7818 14.8579 15.7818 14.7359C15.7818 14.6546 15.7556 14.5868 15.7098 14.5258C15.664 14.4648 15.5789 14.4174 15.4677 14.3767C15.3892 14.3496 15.206 14.2954 14.9246 14.2276C14.5647 14.1328 14.3095 14.0176 14.159 13.882C13.9562 13.6923 13.8515 13.4618 13.8515 13.184C13.8515 13.0078 13.8973 12.8451 13.9954 12.6892C14.0936 12.5334 14.231 12.4182 14.4142 12.3368C14.5974 12.2555 14.8134 12.2148 15.0751 12.2148C15.4939 12.2148 15.8145 12.3097 16.0239 12.4995C16.2398 12.6892 16.3511 12.9468 16.3576 13.2653L15.6836 13.2924C15.6575 13.1162 15.592 12.9874 15.4939 12.9061C15.4023 12.8248 15.2583 12.7909 15.0686 12.7909C14.8788 12.7909 14.7152 12.8316 14.604 12.9129C14.532 12.9671 14.4993 13.0349 14.4993 13.1298C14.4993 13.2111 14.532 13.2788 14.5974 13.3398C14.6825 13.4144 14.8919 13.4889 15.219 13.5703C15.5462 13.6516 15.7883 13.7329 15.9519 13.821C16.1155 13.9091 16.2333 14.0243 16.3249 14.1734C16.4165 14.3225 16.4558 14.5055 16.4558 14.7224C16.4558 14.9189 16.4034 15.1087 16.2987 15.2781C16.194 15.4475 16.0435 15.5831 15.8472 15.6644C15.6509 15.7457 15.4088 15.7932 15.1209 15.7932C14.6956 15.7932 14.3749 15.6915 14.1459 15.4882C13.9169 15.2849 13.786 14.9867 13.7402 14.6004V14.6139Z" fill="white"/>
<path d="M13.6419 16.7146V18.5038C13.6419 19.0527 13.21 19.5 12.68 19.5H1.96188C1.43187 19.5 1 19.0527 1 18.5038V2.49624C1 1.94729 1.43187 1.5 1.96188 1.5H9.74855V4.88178C9.74855 5.43072 10.1804 5.87801 10.7104 5.87801H13.6353V11.259" stroke="white" stroke-width="1.19" stroke-linecap="round" stroke-linejoin="round"/>
<path d="M13.6422 5.87801H10.7173C10.1872 5.87801 9.75537 5.43072 9.75537 4.88178V1.5L13.6422 5.87801Z" fill="white" stroke="white" stroke-width="1.19" stroke-linecap="round" stroke-linejoin="round"/>
<path d="M3.8136 7.63281H11.4367C11.6461 7.63281 11.8162 7.80902 11.8162 8.02589C11.8162 8.24275 11.6461 8.41896 11.4367 8.41896H3.8136C3.60421 8.41896 3.43408 8.24275 3.43408 8.02589C3.43408 7.80902 3.60421 7.63281 3.8136 7.63281Z" fill="white"/>
<path d="M3.8136 8.98145H11.4367C11.6461 8.98145 11.8162 9.15765 11.8162 9.37452C11.8162 9.59138 11.6461 9.76759 11.4367 9.76759H3.8136C3.60421 9.76759 3.43408 9.59138 3.43408 9.37452C3.43408 9.15765 3.60421 8.98145 3.8136 8.98145Z" fill="white"/>
<path d="M3.8136 10.3301H11.4367C11.6461 10.3301 11.8162 10.5063 11.8162 10.7232C11.8162 10.94 11.6461 11.1162 11.4367 11.1162H3.8136C3.60421 11.1162 3.43408 10.94 3.43408 10.7232C3.43408 10.5063 3.60421 10.3301 3.8136 10.3301Z" fill="white"/>
<path d="M3.8136 17.04H11.4367C11.6461 17.04 11.8162 17.2162 11.8162 17.4331C11.8162 17.65 11.6461 17.8262 11.4367 17.8262H3.8136C3.60421 17.8262 3.43408 17.65 3.43408 17.4331C3.43408 17.2162 3.60421 17.04 3.8136 17.04Z" fill="white"/>
<path d="M5.44964 2.67285C4.36998 2.67285 3.49316 3.58099 3.49316 4.69921C3.49316 5.24138 3.70255 5.73611 4.03627 6.10207C4.40924 5.74966 4.90654 5.53279 5.44964 5.53279C5.99275 5.53279 6.49005 5.74966 6.86302 6.10207C7.19674 5.73611 7.40613 5.24138 7.40613 4.69921C7.40613 3.58099 6.52931 2.67285 5.44964 2.67285ZM5.44964 5.01095C4.99815 5.01095 4.62517 4.63143 4.62517 4.15704C4.62517 3.68264 4.9916 3.30312 5.44964 3.30312C5.90768 3.30312 6.27412 3.68264 6.27412 4.15704C6.27412 4.63143 5.90768 5.01095 5.44964 5.01095Z" stroke="white" stroke-width="0.4" stroke-miterlimit="10"/>
<path d="M6.26759 4.15665C6.26759 4.62427 5.90116 5.01057 5.44312 5.01057C4.98508 5.01057 4.61865 4.63105 4.61865 4.15665C4.61865 3.68225 4.98508 3.30273 5.44312 3.30273C5.90116 3.30273 6.26759 3.68225 6.26759 4.15665Z" fill="white" stroke="white" stroke-width="0.4" stroke-miterlimit="10"/>
<path d="M6.86289 6.1015C6.50955 6.4878 6.0057 6.725 5.44951 6.725C4.89332 6.725 4.38948 6.4878 4.03613 6.1015C4.40911 5.74909 4.90641 5.53223 5.44951 5.53223C5.99261 5.53223 6.48992 5.74909 6.86289 6.1015Z" fill="white" stroke="white" stroke-width="0.4" stroke-miterlimit="10"/>
</svg>
