<svg width="45" height="40" viewBox="0 0 45 40" fill="none" xmlns="http://www.w3.org/2000/svg">
<path d="M8.02696 7.76389H6.53771V6.90278H8.02696C8.27749 6.90278 8.47234 6.86111 8.62544 6.77778C8.77854 6.69444 8.88989 6.58333 8.95948 6.44444C9.02907 6.30556 9.07082 6.13889 9.07082 5.95833C9.07082 5.77778 9.02907 5.61111 8.95948 5.45833C8.88989 5.30556 8.77854 5.18056 8.62544 5.08333C8.47234 4.98611 8.27749 4.94444 8.02696 4.94444H6.88567V9.875H5.78613V4.08333H8.01304C8.45842 4.08333 8.84813 4.16667 9.16825 4.31944C9.48837 4.47222 9.7389 4.69444 9.90591 4.98611C10.0729 5.26389 10.1564 5.58333 10.1564 5.94444C10.1564 6.30556 10.0729 6.63889 9.90591 6.91667C9.7389 7.18056 9.48837 7.38889 9.16825 7.54167C8.84813 7.69444 8.45842 7.76389 8.01304 7.76389H8.02696ZM11.0333 4.08333H13.1488C13.5942 4.08333 13.97 4.15278 14.2901 4.27778C14.6103 4.41667 14.8469 4.61111 15.0139 4.86111C15.1809 5.11111 15.2644 5.44444 15.2644 5.81944C15.2644 6.125 15.2087 6.375 15.1113 6.59722C15 6.81944 14.8608 7 14.6659 7.15278C14.4711 7.30556 14.2484 7.41667 13.9839 7.5L13.636 7.68056H11.7709V6.81944H13.1488C13.3715 6.81944 13.5664 6.77778 13.7056 6.69444C13.8587 6.61111 13.97 6.5 14.0396 6.36111C14.1231 6.22222 14.151 6.05556 14.151 5.875C14.151 5.68056 14.1092 5.51389 14.0396 5.375C13.97 5.23611 13.8587 5.125 13.7056 5.04167C13.5525 4.95833 13.3576 4.93056 13.1349 4.93056H12.1189V9.86111H11.0194V4.08333H11.0333ZM14.318 9.875L12.9679 7.27778H14.1231L15.4871 9.81944V9.875H14.3041H14.318ZM20.9291 6.83333V7.125C20.9291 7.56944 20.8734 7.95833 20.7482 8.30556C20.6368 8.65278 20.4698 8.94444 20.2471 9.19444C20.0383 9.44444 19.7739 9.625 19.4816 9.75C19.1893 9.875 18.8553 9.94444 18.4934 9.94444C18.1316 9.94444 17.8114 9.875 17.5052 9.75C17.213 9.625 16.9485 9.43056 16.7258 9.19444C16.5031 8.94444 16.3361 8.65278 16.2248 8.30556C16.0995 7.95833 16.0438 7.55556 16.0438 7.125V6.83333C16.0438 6.38889 16.0995 6 16.2248 5.65278C16.35 5.30556 16.517 5.01389 16.7258 4.76389C16.9346 4.51389 17.199 4.33333 17.4913 4.19444C17.7975 4.06944 18.1176 4 18.4795 4C18.8414 4 19.1754 4.06944 19.4677 4.19444C19.76 4.31944 20.0244 4.51389 20.2332 4.76389C20.4559 5.01389 20.6229 5.30556 20.7343 5.65278C20.8595 6 20.9152 6.38889 20.9152 6.83333H20.9291ZM19.8296 7.125V6.81944C19.8296 6.5 19.8017 6.22222 19.7461 5.98611C19.6904 5.75 19.6069 5.54167 19.4816 5.375C19.3703 5.20833 19.2311 5.08333 19.0641 5C18.8971 4.91667 18.7022 4.875 18.4934 4.875C18.2847 4.875 18.0898 4.91667 17.9228 5C17.7558 5.08333 17.6166 5.20833 17.5052 5.375C17.3939 5.54167 17.2965 5.73611 17.2408 5.98611C17.1851 6.22222 17.1573 6.5 17.1573 6.81944V7.125C17.1573 7.44444 17.1851 7.70833 17.2408 7.95833C17.2965 8.19444 17.3939 8.40278 17.5052 8.56944C17.6166 8.73611 17.7558 8.86111 17.9228 8.94444C18.0898 9.02778 18.2707 9.06944 18.4934 9.06944C18.7161 9.06944 18.8971 9.02778 19.0641 8.94444C19.2311 8.86111 19.3703 8.73611 19.4816 8.56944C19.593 8.40278 19.6765 8.19444 19.7461 7.95833C19.8017 7.72222 19.8296 7.44444 19.8296 7.125ZM22.3348 4.08333H23.2813L24.868 8.44444L26.4546 4.08333H27.4011L25.2437 9.875H24.4782L22.3348 4.08333ZM21.8616 4.08333H22.7941L22.9612 8.08333V9.875H21.8616V4.08333ZM26.9557 4.08333H27.8882V9.875H26.7887V8.08333L26.9557 4.08333ZM33.706 6.83333V7.125C33.706 7.56944 33.6503 7.95833 33.5251 8.30556C33.4137 8.65278 33.2467 8.94444 33.024 9.19444C32.8152 9.44444 32.5508 9.625 32.2585 9.75C31.9662 9.875 31.6322 9.94444 31.2703 9.94444C30.9084 9.94444 30.5883 9.875 30.2821 9.75C29.9898 9.625 29.7254 9.43056 29.5027 9.19444C29.28 8.94444 29.113 8.65278 29.0017 8.30556C28.8764 7.95833 28.8207 7.55556 28.8207 7.125V6.83333C28.8207 6.38889 28.8764 6 29.0017 5.65278C29.1269 5.30556 29.2939 5.01389 29.5027 4.76389C29.7115 4.51389 29.9759 4.33333 30.2682 4.19444C30.5744 4.06944 30.8945 4 31.2564 4C31.6183 4 31.9523 4.06944 32.2446 4.19444C32.5369 4.31944 32.8013 4.51389 33.0101 4.76389C33.2328 5.01389 33.3998 5.30556 33.5111 5.65278C33.6364 6 33.6921 6.38889 33.6921 6.83333H33.706ZM32.5925 7.125V6.81944C32.5925 6.5 32.5647 6.22222 32.509 5.98611C32.4534 5.75 32.3699 5.54167 32.2446 5.375C32.1193 5.20833 31.9941 5.08333 31.827 5C31.66 4.91667 31.4652 4.875 31.2564 4.875C31.0476 4.875 30.8528 4.91667 30.6858 5C30.5187 5.08333 30.3796 5.20833 30.2682 5.375C30.1569 5.54167 30.0734 5.73611 30.0038 5.98611C29.9481 6.22222 29.9203 6.5 29.9203 6.81944V7.125C29.9203 7.44444 29.9481 7.70833 30.0038 7.95833C30.0594 8.19444 30.1569 8.40278 30.2682 8.56944C30.3796 8.73611 30.5327 8.86111 30.6858 8.94444C30.8528 9.02778 31.0337 9.06944 31.2564 9.06944C31.4791 9.06944 31.66 9.02778 31.827 8.94444C31.9941 8.86111 32.1332 8.73611 32.2446 8.56944C32.3559 8.40278 32.4394 8.19444 32.509 7.95833C32.5647 7.72222 32.5925 7.44444 32.5925 7.125ZM37.6727 8.375C37.6727 8.26389 37.6588 8.16667 37.617 8.08333C37.5892 7.98611 37.5196 7.91667 37.4361 7.84722C37.3526 7.77778 37.2273 7.69444 37.0742 7.63889C36.9211 7.56944 36.7262 7.48611 36.4757 7.41667C36.2113 7.33333 35.9468 7.23611 35.7241 7.125C35.4875 7.01389 35.2787 6.88889 35.1117 6.75C34.9308 6.61111 34.8055 6.44444 34.7081 6.26389C34.6107 6.08333 34.555 5.86111 34.555 5.625C34.555 5.38889 34.6107 5.16667 34.7081 4.97222C34.8055 4.77778 34.9586 4.61111 35.1535 4.47222C35.3483 4.33333 35.5571 4.22222 35.8216 4.13889C36.086 4.05556 36.3644 4.02778 36.6706 4.02778C37.102 4.02778 37.4778 4.11111 37.784 4.26389C38.1041 4.41667 38.3407 4.63889 38.5217 4.90278C38.6887 5.16667 38.7861 5.47222 38.7861 5.80556H37.7005C37.7005 5.625 37.6588 5.47222 37.5892 5.33333C37.5196 5.19444 37.3943 5.08333 37.2412 5C37.0881 4.91667 36.8933 4.875 36.6706 4.875C36.4479 4.875 36.2669 4.90278 36.1138 4.97222C35.9607 5.04167 35.8633 5.125 35.7798 5.23611C35.7102 5.34722 35.6685 5.47222 35.6685 5.625C35.6685 5.73611 35.6963 5.81944 35.7381 5.91667C35.7937 6 35.8633 6.08333 35.9607 6.15278C36.0582 6.22222 36.1834 6.29167 36.3365 6.36111C36.4896 6.41667 36.6566 6.48611 36.8654 6.54167C37.1855 6.63889 37.4639 6.73611 37.7005 6.86111C37.9371 6.97222 38.1459 7.11111 38.299 7.26389C38.466 7.41667 38.5774 7.58333 38.6609 7.76389C38.7444 7.94444 38.7861 8.16667 38.7861 8.40278C38.7861 8.65278 38.7305 8.875 38.633 9.06944C38.5356 9.26389 38.3964 9.43056 38.2155 9.56944C38.0346 9.70833 37.8119 9.80556 37.5474 9.88889C37.2969 9.95833 37.0046 10 36.6845 10C36.4061 10 36.1278 9.95833 35.8494 9.88889C35.571 9.80556 35.3205 9.69444 35.0978 9.54167C34.8751 9.38889 34.6942 9.19444 34.5689 8.95833C34.4297 8.72222 34.3741 8.44444 34.3741 8.125H35.4736C35.4736 8.30556 35.5014 8.45833 35.5571 8.59722C35.6128 8.72222 35.7102 8.83333 35.8076 8.91667C35.919 9 36.0442 9.05556 36.1973 9.09722C36.3504 9.13889 36.5036 9.15278 36.6845 9.15278C36.9072 9.15278 37.0881 9.125 37.2412 9.05556C37.3943 8.98611 37.4917 8.90278 37.5613 8.79167C37.6309 8.68056 37.6727 8.55556 37.6727 8.40278V8.375Z" fill="#54AA32"/>
<path d="M22.1648 14.875C22.3861 14.875 22.6073 14.875 22.8286 14.875C22.8286 14.875 22.8424 14.903 22.8562 14.903C22.8839 14.903 22.8839 14.889 22.8701 14.875C22.8977 14.875 22.9254 14.875 22.953 14.875L22.9392 14.903C22.953 14.903 22.9669 14.931 22.9945 14.9451C23.4924 15.0711 23.8796 15.3654 24.1977 15.7716C24.4466 16.0939 24.6955 16.3881 24.9444 16.7103C25.1519 16.9905 25.4146 17.0746 25.7465 16.9765C26.1752 16.8504 26.6039 16.7383 27.0326 16.6263C27.3368 16.5422 27.6411 16.5282 27.9453 16.5842C28.858 16.7383 29.6186 17.5229 29.6324 18.6437C28.4985 19.8486 27.323 21.0254 26.1337 22.1883C26.1337 22.1883 26.1061 22.1883 26.0922 22.1883C25.7603 21.9221 25.4008 21.9221 25.1104 22.2303C22.9392 24.4299 20.7681 26.6295 18.5969 28.829C18.2927 29.1373 18.2788 29.4875 18.5554 29.8378C18.5554 29.8378 18.5554 29.8658 18.5554 29.8798C18.5278 29.9218 18.5001 29.9639 18.4586 29.9919C17.5044 30.9586 16.5502 31.9393 15.5822 32.906C15.5269 32.962 15.4854 33.004 15.4162 33.0181C15.3471 32.5697 15.3609 32.1214 15.3333 31.6731C15.3056 31.1407 15.2088 30.9726 14.711 30.7764C14.3514 30.6363 13.9919 30.4962 13.6185 30.3561C12.3186 29.8518 11.8622 28.4227 12.609 27.2319C12.8441 26.8536 13.0791 26.4894 13.3281 26.1111C13.5078 25.8309 13.5078 25.5507 13.3281 25.2705C13.0791 24.8922 12.8302 24.5139 12.5951 24.1357C11.8622 22.9728 12.3462 21.5298 13.6046 21.0394C13.9642 20.8993 14.3238 20.7592 14.6971 20.6191C15.2226 20.409 15.3194 20.2689 15.3333 19.6945C15.3471 19.2041 15.3471 18.6998 15.4301 18.2234C15.6513 17.0185 16.7991 16.318 17.9746 16.6263C18.4033 16.7383 18.832 16.8504 19.2607 16.9765C19.5926 17.0746 19.8554 16.9765 20.0628 16.7103C20.3255 16.3741 20.6021 16.0378 20.8787 15.6876C21.1553 15.3233 21.5148 15.0852 21.9435 14.9591C21.985 14.9591 22.068 14.9731 22.0403 14.875C22.068 14.875 22.0956 14.875 22.1233 14.875C22.1233 14.875 22.1233 14.889 22.1233 14.903C22.1233 14.903 22.151 14.889 22.1648 14.875ZM18.2788 23.3091C18.2788 24.0796 18.9012 24.7241 19.6617 24.7381C20.4223 24.7381 21.0585 24.1076 21.0723 23.3371C21.0723 22.5665 20.45 21.9221 19.6894 21.9221C18.9288 21.9221 18.2927 22.5525 18.2927 23.3231L18.2788 23.3091Z" fill="#8CBF39"/>
<path d="M15.4023 33.0179C15.4715 33.0039 15.5268 32.9479 15.5683 32.9058C16.5225 31.9391 17.4905 30.9584 18.4447 29.9917C18.4724 29.9637 18.5 29.9217 18.5415 29.8796C18.9841 30.1879 19.2606 30.1598 19.6478 29.7676C21.7775 27.61 23.9072 25.4525 26.0368 23.2949C26.4102 22.9166 26.4379 22.6224 26.1336 22.1881C27.3091 21.0253 28.4846 19.8484 29.6324 18.6436C29.66 19.0779 29.6877 19.5122 29.7153 19.9465C29.7292 20.2547 29.8951 20.4509 30.1855 20.5489C30.6004 20.703 31.0291 20.8712 31.444 21.0393C32.7162 21.5577 33.1726 22.9867 32.4258 24.1635C32.1907 24.5418 31.9556 24.9061 31.7067 25.2703C31.5131 25.5505 31.5131 25.8307 31.7067 26.1109C31.9556 26.4892 32.1907 26.8675 32.4258 27.2457C33.1588 28.4226 32.7024 29.8236 31.4301 30.342C31.0014 30.5101 30.5866 30.6782 30.1579 30.8463C29.9366 30.9304 29.7845 31.0705 29.743 31.2947C29.7015 31.4488 29.7015 31.6169 29.7015 31.771C29.6739 32.2193 29.6739 32.6676 29.6185 33.116C29.4803 34.1527 28.4154 34.9653 27.3921 34.8252C26.8389 34.7411 26.3134 34.559 25.7879 34.4189C25.4422 34.3348 25.1794 34.4049 24.9582 34.6851C24.7507 34.9513 24.5295 35.2035 24.3359 35.4697C24.004 35.918 23.6168 36.2822 23.0636 36.4364C23.0498 36.4364 22.9806 36.4504 23.0359 36.5064H22.953C22.953 36.5064 22.953 36.4784 22.9391 36.4784C22.9391 36.4784 22.9253 36.5064 22.9115 36.5064H22.1647L22.1232 36.4784C22.1232 36.4784 22.1232 36.4924 22.1232 36.5064H21.9988C21.9988 36.5064 22.0403 36.5064 22.0264 36.4644C22.0264 36.4504 21.9988 36.4364 21.9849 36.4223C21.4318 36.2682 21.0584 35.904 20.7403 35.4557C20.5467 35.1895 20.3116 34.9373 20.1042 34.6711C19.8829 34.3909 19.6202 34.3208 19.2883 34.4189C18.8734 34.531 18.4585 34.6431 18.0437 34.7552C17.6288 34.8672 17.2139 34.8672 16.7991 34.7271C16.0385 34.4609 15.4438 33.7044 15.4438 32.9899L15.4023 33.0179ZM26.1751 28.4926C26.1751 27.6941 25.5805 27.0916 24.7922 27.0916C24.004 27.0916 23.4093 27.6941 23.4093 28.4926C23.4093 29.2912 24.004 29.8937 24.7922 29.8937C25.5805 29.8937 26.1751 29.2912 26.1751 28.4926Z" fill="#00983A"/>
<path d="M22.1648 14.875C22.1648 14.875 22.1371 14.8894 22.1233 14.9038C22.1233 14.9038 22.1233 14.8894 22.1233 14.875C22.1371 14.875 22.1509 14.875 22.1648 14.875Z" fill="#040100"/>
<path d="M22.8701 14.875C22.8701 14.875 22.8701 14.917 22.8563 14.903C22.8563 14.903 22.8424 14.875 22.8286 14.875C22.8424 14.875 22.8563 14.875 22.8701 14.875Z" fill="#040100"/>
<path d="M22.0818 36.5356C22.0818 36.5356 22.0818 36.5212 22.0818 36.5068L22.1233 36.5356H22.0818Z" fill="#040100"/>
<path d="M22.8701 36.5356C22.8701 36.5356 22.8839 36.5068 22.8978 36.5068C22.9254 36.5068 22.9254 36.5212 22.9116 36.5356H22.8701Z" fill="#040100"/>
<path d="M26.1199 22.2025C26.4242 22.6228 26.3965 22.931 26.0231 23.3093C23.8935 25.4668 21.7638 27.6244 19.6342 29.7819C19.2469 30.1742 18.9704 30.2022 18.5278 29.894C18.5278 29.894 18.5278 29.866 18.5278 29.852C18.5831 29.796 18.6523 29.7399 18.7076 29.6839C21.1139 27.2461 23.5063 24.8224 25.9125 22.3846C25.9678 22.3286 26.0231 22.2585 26.0785 22.1885C26.0785 22.1885 26.1061 22.1885 26.1199 22.1885V22.2025Z" fill="white"/>
<path d="M26.0921 22.1881C26.0921 22.1881 25.9815 22.3142 25.9261 22.3842C23.5199 24.822 21.1275 27.2457 18.7212 29.6835C18.6659 29.7395 18.5968 29.7956 18.5415 29.8516C18.2787 29.5154 18.2925 29.1511 18.5829 28.8429C20.7541 26.6433 22.9252 24.4437 25.0964 22.2441C25.4006 21.9359 25.7464 21.9219 26.0783 22.2021L26.0921 22.1881Z" fill="white"/>
<path d="M18.2789 23.3094C18.2789 22.5389 18.9151 21.8944 19.6757 21.9084C20.4363 21.9084 21.0724 22.5529 21.0586 23.3234C21.0586 24.094 20.4086 24.7385 19.648 24.7245C18.8874 24.7245 18.2513 24.08 18.2651 23.2954L18.2789 23.3094Z" fill="white"/>
<path d="M26.1752 28.4928C26.1752 29.2914 25.5667 29.8938 24.7923 29.8938C24.0041 29.8938 23.4094 29.2774 23.4094 28.4928C23.4094 27.6942 24.0179 27.0918 24.7923 27.0918C25.5806 27.0918 26.1752 27.7082 26.1752 28.4928Z" fill="white"/>
</svg>
