<svg width="35" height="34" viewBox="0 0 35 34" fill="none" xmlns="http://www.w3.org/2000/svg">
<g clip-path="url(#clip0_3995_31722)">
<g clip-path="url(#clip1_3995_31722)">
<path d="M23.165 24.8333H10.8511V7.22754H23.165V10.7463V23.579V24.8333Z" fill="#003F8F"/>
<path d="M17.0722 18.7252C16.1903 18.7252 15.4746 18.008 15.4746 17.1276C15.4746 16.9064 15.6531 16.7278 15.8744 16.7278C16.0956 16.7278 16.2742 16.9064 16.2742 17.1276C16.2742 17.5686 16.6328 17.9272 17.0737 17.9272C17.5147 17.9272 17.8733 17.5686 17.8733 17.1276C17.8733 16.6866 17.5147 16.328 17.0737 16.328C16.1918 16.328 15.4761 15.6109 15.4761 14.7304C15.4761 13.85 16.1933 13.1328 17.0737 13.1328C17.9542 13.1328 18.6714 13.85 18.6714 14.7304C18.6714 14.9517 18.4928 15.1302 18.2716 15.1302C18.0503 15.1302 17.8718 14.9517 17.8718 14.7304C17.8718 14.2894 17.5132 13.9309 17.0722 13.9309C16.6312 13.9309 16.2727 14.2894 16.2727 14.7304C16.2727 15.1714 16.6312 15.53 17.0722 15.53C17.9542 15.53 18.6698 16.2472 18.6698 17.1276C18.6698 18.008 17.9527 18.7252 17.0722 18.7252Z" fill="white"/>
<path d="M17.0721 13.9312C16.8509 13.9312 16.6724 13.7526 16.6724 13.5314V12.7318C16.6724 12.5106 16.8509 12.332 17.0721 12.332C17.2934 12.332 17.4719 12.5106 17.4719 12.7318V13.5314C17.4719 13.7526 17.2934 13.9312 17.0721 13.9312Z" fill="white"/>
<path d="M17.0721 19.5249C16.8509 19.5249 16.6724 19.3464 16.6724 19.1251V18.3256C16.6724 18.1043 16.8509 17.9258 17.0721 17.9258C17.2934 17.9258 17.4719 18.1043 17.4719 18.3256V19.1251C17.4719 19.3464 17.2934 19.5249 17.0721 19.5249Z" fill="white"/>
<path d="M20.2689 16.3279C20.4897 16.3279 20.6687 16.1489 20.6687 15.9281C20.6687 15.7073 20.4897 15.5283 20.2689 15.5283C20.0481 15.5283 19.8691 15.7073 19.8691 15.9281C19.8691 16.1489 20.0481 16.3279 20.2689 16.3279Z" fill="white"/>
<path d="M13.8754 16.3279C14.0962 16.3279 14.2752 16.1489 14.2752 15.9281C14.2752 15.7073 14.0962 15.5283 13.8754 15.5283C13.6546 15.5283 13.4756 15.7073 13.4756 15.9281C13.4756 16.1489 13.6546 16.3279 13.8754 16.3279Z" fill="white"/>
<path d="M17.0721 21.1227C14.208 21.1227 11.8779 18.7926 11.8779 15.9285C11.8779 13.0644 14.208 10.7344 17.0721 10.7344C19.9362 10.7344 22.2662 13.0644 22.2662 15.9285C22.2662 17.0104 21.9336 18.0495 21.3019 18.9361C21.1737 19.1161 20.9234 19.1573 20.7449 19.0291C20.5649 18.901 20.5237 18.6522 20.6518 18.4722C21.1859 17.723 21.4667 16.8441 21.4667 15.9285C21.4667 13.5054 19.4952 11.5339 17.0721 11.5339C14.649 11.5339 12.6775 13.5054 12.6775 15.9285C12.6775 18.3516 14.649 20.3231 17.0721 20.3231C17.9861 20.3231 18.8665 20.0408 19.6157 19.5083C19.7958 19.3801 20.0445 19.4213 20.1727 19.6014C20.3009 19.7814 20.2597 20.0301 20.0796 20.1583C19.1946 20.7885 18.1539 21.1227 17.0721 21.1227Z" fill="white"/>
<path d="M22.6247 30.084H11.1973C9.98573 30.084 9 29.0982 9 27.8867V5.0303C9 3.81874 9.98573 2.83301 11.1973 2.83301H22.6247C23.8363 2.83301 24.822 3.81874 24.822 5.0303V19.4775C24.822 19.7201 24.6252 19.9169 24.3826 19.9169C24.1399 19.9169 23.9431 19.7201 23.9431 19.4775V5.0303C23.9431 4.30244 23.351 3.71192 22.6247 3.71192H11.1973C10.4694 3.71192 9.87892 4.30397 9.87892 5.0303V27.8867C9.87892 28.6145 10.471 29.2051 11.1973 29.2051H22.6247C23.3526 29.2051 23.9431 28.613 23.9431 27.8867V18.0218C23.9431 17.7792 24.1399 17.5823 24.3826 17.5823C24.6252 17.5823 24.822 17.7792 24.822 18.0218V27.8867C24.822 29.0982 23.8363 30.084 22.6247 30.084Z" fill="#003F8F"/>
<path d="M24.3841 6.34864H9.43946C9.19684 6.34864 9 6.1518 9 5.90918C9 5.66657 9.19684 5.46973 9.43946 5.46973H24.3841C24.6267 5.46973 24.8235 5.66657 24.8235 5.90918C24.8235 6.1518 24.6267 6.34864 24.3841 6.34864Z" fill="#003F8F"/>
<path d="M18.23 28.3262H15.5933C15.3506 28.3262 15.1538 28.1293 15.1538 27.8867C15.1538 27.6441 15.3506 27.4473 15.5933 27.4473H18.23C18.4726 27.4473 18.6695 27.6441 18.6695 27.8867C18.6695 28.1293 18.4726 28.3262 18.23 28.3262Z" fill="#003F8F"/>
<path d="M24.0377 26.5664H9.43946C9.19684 26.5664 9 26.3696 9 26.127C9 25.8843 9.19684 25.6875 9.43946 25.6875H24.0377C24.2803 25.6875 24.4772 25.8843 24.4772 26.127C24.4772 26.3696 24.2803 26.5664 24.0377 26.5664Z" fill="#003F8F"/>
</g>
</g>
<defs>
<clipPath id="clip0_3995_31722">
<rect width="34" height="34" fill="white" transform="translate(0.5)"/>
</clipPath>
<clipPath id="clip1_3995_31722">
<rect width="34" height="34" fill="white" transform="translate(0.5)"/>
</clipPath>
</defs>
</svg>
