<svg width="120" height="90" viewBox="0 0 120 90" fill="none" xmlns="http://www.w3.org/2000/svg">
<mask id="mask0_4143_34644" style="mask-type:alpha" maskUnits="userSpaceOnUse" x="0" y="0" width="120" height="90">
<rect x="0.5" y="0.5" width="119" height="89" fill="#D9D9D9" stroke="black"/>
</mask>
<g mask="url(#mask0_4143_34644)">
<g filter="url(#filter0_di_4143_34644)">
<path d="M-186.136 0H-240V90H120V0H60.288C44.9452 0 30.2057 5.9768 19.196 16.6627L-21.581 56.2404C-41.3682 75.4456 -72.4467 76.6573 -93.6692 59.051L-148.465 13.5919C-159.053 4.80776 -172.378 0 -186.136 0Z" fill="#EBEBEB"/>
<path d="M-186.136 0H-240V90H120V0H60.288C44.9452 0 30.2057 5.9768 19.196 16.6627L-21.581 56.2404C-41.3682 75.4456 -72.4467 76.6573 -93.6692 59.051L-148.465 13.5919C-159.053 4.80776 -172.378 0 -186.136 0Z" stroke="#EBEBEB"/>
</g>
</g>
<defs>
<filter id="filter0_di_4143_34644" x="-242.5" y="-0.5" width="365" height="95" filterUnits="userSpaceOnUse" color-interpolation-filters="sRGB">
<feFlood flood-opacity="0" result="BackgroundImageFix"/>
<feColorMatrix in="SourceAlpha" type="matrix" values="0 0 0 0 0 0 0 0 0 0 0 0 0 0 0 0 0 0 127 0" result="hardAlpha"/>
<feOffset dy="2"/>
<feGaussianBlur stdDeviation="1"/>
<feComposite in2="hardAlpha" operator="out"/>
<feColorMatrix type="matrix" values="0 0 0 0 0 0 0 0 0 0 0 0 0 0 0 0 0 0 0.25 0"/>
<feBlend mode="normal" in2="BackgroundImageFix" result="effect1_dropShadow_4143_34644"/>
<feBlend mode="normal" in="SourceGraphic" in2="effect1_dropShadow_4143_34644" result="shape"/>
<feColorMatrix in="SourceAlpha" type="matrix" values="0 0 0 0 0 0 0 0 0 0 0 0 0 0 0 0 0 0 127 0" result="hardAlpha"/>
<feOffset dx="1" dy="2"/>
<feGaussianBlur stdDeviation="1"/>
<feComposite in2="hardAlpha" operator="arithmetic" k2="-1" k3="1"/>
<feColorMatrix type="matrix" values="0 0 0 0 0.996078 0 0 0 0 0.996078 0 0 0 0 0.996078 0 0 0 1 0"/>
<feBlend mode="normal" in2="shape" result="effect2_innerShadow_4143_34644"/>
</filter>
</defs>
</svg>
