<svg width="35" height="34" viewBox="0 0 35 34" fill="none" xmlns="http://www.w3.org/2000/svg">
<g clip-path="url(#clip0_3995_31742)">
<g clip-path="url(#clip1_3995_31742)">
<path d="M14.7402 29.0614C12.8168 29.0614 11.249 27.4936 11.249 25.5702C11.249 25.1595 11.5796 24.8289 11.9903 24.8289C12.4011 24.8289 12.7316 25.1595 12.7316 25.5702C12.7316 26.6772 13.6332 27.5788 14.7402 27.5788C15.8471 27.5788 16.7487 26.6772 16.7487 25.5702V19.6397C16.7487 19.229 17.0793 18.8984 17.49 18.8984C17.9008 18.8984 18.2313 19.229 18.2313 19.6397V25.5702C18.2313 27.4936 16.6636 29.0614 14.7402 29.0614Z" fill="#003F8F"/>
<path d="M14.7402 29.0611C12.8168 29.0611 11.249 27.4933 11.249 25.5699C11.249 25.1592 11.5796 24.8286 11.9903 24.8286C12.4011 24.8286 12.7316 25.1592 12.7316 25.5699C12.7316 26.6769 13.6332 27.5785 14.7402 27.5785C15.8471 27.5785 16.7487 26.6769 16.7487 25.5699V23.8819C16.7487 23.4712 17.0793 23.1406 17.49 23.1406C17.9008 23.1406 18.2313 23.4712 18.2313 23.8819V25.5699C18.2313 27.4933 16.6636 29.0611 14.7402 29.0611Z" fill="#003F8F" stroke="#17428A" stroke-width="0.85" stroke-miterlimit="10"/>
<path d="M28.5696 18.347C27.7982 18.0915 26.8114 18.0014 25.7596 18.1416C24.287 18.3269 23.0498 18.908 22.4087 19.6142C22.1883 19.8596 21.8026 19.8697 21.5572 19.6493C20.6005 18.7627 19.1379 18.2017 17.505 18.2017C15.8721 18.2017 14.5097 18.7276 13.548 19.5591C13.2976 19.7795 12.9269 19.7595 12.6915 19.519C12.0304 18.8529 10.8383 18.3119 9.43078 18.1366C8.29377 17.9913 7.2369 18.1065 6.44551 18.4071C5.99972 18.5774 5.5339 18.2017 5.61404 17.7309C6.48558 12.9224 11.0837 9.19582 16.7387 8.88527C16.9891 8.87024 17.2446 8.86523 17.5 8.86523C17.7555 8.86523 17.9859 8.87024 18.2263 8.88527C23.8713 9.17578 28.4644 12.8723 29.371 17.6507C29.4611 18.1166 29.0103 18.4922 28.5645 18.347H28.5696Z" fill="#003F8F"/>
<path d="M13.1071 19.6643C13.077 19.2987 13.062 18.928 13.062 18.5524C13.062 14.4301 14.8452 10.7987 17.5499 8.66992" stroke="white" stroke-width="0.5" stroke-miterlimit="10" stroke-linecap="round"/>
<path d="M17.395 8.66504C20.0998 10.7988 21.8829 14.4302 21.8829 18.5475C21.8829 18.9231 21.8679 19.2938 21.8379 19.6594" stroke="white" stroke-width="0.5" stroke-miterlimit="10" stroke-linecap="round"/>
<path d="M18.2313 8.12425V8.88559C17.9909 8.87557 17.7504 8.86556 17.505 8.86556C17.2596 8.86556 16.9941 8.87056 16.7437 8.88559V8.11924C16.7437 7.70851 17.0742 7.37793 17.485 7.37793C17.8957 7.37793 18.2263 7.70851 18.2263 8.11924L18.2313 8.12425Z" fill="#003F8F"/>
<path d="M24.2217 16.7995C23.9813 16.9648 23.7108 17.0549 23.4253 17.0549C23.1398 17.0549 22.8693 16.9648 22.6289 16.7995C19.3081 14.6307 19.1979 13.2382 19.268 10.298V10.268C19.278 9.92236 19.283 9.56172 19.288 9.17103C19.288 8.39466 19.9091 7.75854 20.6755 7.75353C21.5119 7.7335 21.9978 7.57321 22.5338 7.14245L22.5438 7.13244H22.5538C22.8042 6.93709 23.1098 6.83691 23.4253 6.83691C23.7409 6.83691 24.0414 6.93709 24.2868 7.12242H24.2969L24.3069 7.13744C24.8428 7.5682 25.3487 7.7335 26.1802 7.75353C26.9566 7.76355 27.5827 8.39466 27.5827 9.17103C27.5827 9.57174 27.5927 9.93739 27.6027 10.293C27.6728 13.2382 27.5626 14.6357 24.2217 16.8045V16.7995Z" fill="white"/>
<path d="M26.8516 10.3529C26.8416 10.0073 26.8366 9.64662 26.8316 9.25092C26.8316 8.8452 26.501 8.50961 26.0953 8.50961C25.1586 8.48958 24.5175 8.2742 23.8914 7.77331C23.7612 7.67314 23.6009 7.62305 23.4356 7.62305C23.2703 7.62305 23.105 7.67814 22.9698 7.77331C22.3337 8.28421 21.7176 8.48958 20.7709 8.50961C20.3702 8.50961 20.0546 8.83519 20.0546 9.25092C20.0546 9.6366 20.0446 9.99223 20.0396 10.3328V10.3579C19.9745 12.9474 19.9494 14.1295 23.0249 16.1331C23.1451 16.2182 23.2903 16.2683 23.4356 16.2683C23.5809 16.2683 23.7261 16.2182 23.8513 16.1331C26.9468 14.1295 26.9217 12.9424 26.8566 10.3529H26.8516ZM23.4306 15.2114C20.9562 13.5735 20.9712 12.8122 21.0314 10.3829C21.0364 10.1124 21.0414 9.81692 21.0464 9.50136C22.0081 9.44125 22.7394 9.19081 23.4256 8.67991C24.1218 9.19582 24.8581 9.44626 25.8298 9.50136C25.8298 9.8069 25.8398 10.0874 25.8448 10.3479V10.3779C25.905 12.8122 25.92 13.5735 23.4256 15.2114H23.4306Z" fill="#003F8F"/>
<path fill-rule="evenodd" clip-rule="evenodd" d="M24.8081 11.4299L23.3655 12.8724C23.3054 12.9326 23.2303 12.9576 23.1451 12.9576C23.06 12.9576 22.9798 12.9325 22.9147 12.8775L22.0432 12.0109C21.963 11.9308 21.948 11.8406 21.953 11.7805C21.958 11.7104 21.9931 11.6353 22.0482 11.5802C22.1584 11.47 22.3587 11.4299 22.499 11.5752L23.1351 12.2113L24.3472 10.9941C24.5025 10.8539 24.6979 10.894 24.8081 11.0041C24.9082 11.1093 24.9383 11.2897 24.803 11.4299H24.8081Z" fill="#003F8F"/>
</g>
</g>
<defs>
<clipPath id="clip0_3995_31742">
<rect width="34" height="34" fill="white" transform="translate(0.5)"/>
</clipPath>
<clipPath id="clip1_3995_31742">
<rect width="34" height="34" fill="white" transform="translate(0.5)"/>
</clipPath>
</defs>
</svg>
