<svg width="48" height="45" viewBox="0 0 48 45" fill="none" xmlns="http://www.w3.org/2000/svg">
<g clip-path="url(#clip0_4133_32484)">
<path d="M9.70348 11.7969C11.5373 14.9289 16.0752 16.2549 20.4809 14.7598C22.6066 14.0395 24.3469 12.779 25.5364 11.2621C27.0784 9.29232 27.6677 6.88599 26.9132 4.67609C25.5695 0.774676 20.5139 -1.04781 15.6236 0.616436C10.7333 2.28068 7.85309 6.79323 9.19682 10.7001C9.32899 11.0875 9.49971 11.4531 9.70348 11.8023" fill="#78B829"/>
<path d="M42.592 14.3939C38.0982 11.12 32.2827 11.0381 28.0587 13.7718C26.9022 14.5194 25.8669 15.4797 25.0078 16.642C21.4887 21.4274 22.1716 28.0461 26.3185 32.4004C26.8692 32.9788 27.4805 33.519 28.1468 34.0101C33.8687 38.1844 41.7384 37.1749 45.731 31.7566C49.7237 26.3382 48.3139 18.5627 42.592 14.3884" fill="#E3051B"/>
<path d="M7.1481 14.7866C6.59188 14.5301 5.99711 14.3828 5.37481 14.3828C2.40647 14.3828 0.00537109 17.564 0.00537109 21.4872C0.00537109 25.4105 2.41198 28.5862 5.37481 28.5862C5.76581 28.5862 6.15131 28.5261 6.52029 28.4225C8.9324 27.7295 10.7442 24.8921 10.7442 21.4872C10.7442 18.3879 9.2408 15.7579 7.1481 14.7921" fill="#00AAE5"/>
<path d="M21.1527 31.8061C16.9948 28.7778 11.8291 28.7669 9.61527 31.7789C9.51615 31.9098 9.43354 32.0462 9.35093 32.1826C7.5446 35.2165 9.14717 39.8218 13.1233 42.7192C17.2812 45.7476 22.4468 45.7639 24.6662 42.7519C26.3569 40.4493 25.8447 37.0553 23.6639 34.2343C22.9865 33.3558 22.1495 32.5319 21.1637 31.8116" fill="#FFDD00"/>
<g opacity="0.35">
<mask id="mask0_4133_32484" style="mask-type:luminance" maskUnits="userSpaceOnUse" x="5" y="14" width="6" height="15">
<path d="M10.7443 14.7871H5.03345V28.4175H10.7443V14.7871Z" fill="white"/>
</mask>
<g mask="url(#mask0_4133_32484)">
<mask id="mask1_4133_32484" style="mask-type:luminance" maskUnits="userSpaceOnUse" x="5" y="14" width="6" height="15">
<path d="M10.7443 14.7871H5.03345V28.4175H10.7443V14.7871Z" fill="white"/>
</mask>
<g mask="url(#mask1_4133_32484)">
<path d="M10.7443 21.4823C10.7443 18.383 9.24088 15.7529 7.14818 14.7871C5.81546 16.9042 5.03345 19.4361 5.03345 22.1534C5.03345 24.4179 5.57314 26.5459 6.52037 28.4175C8.93799 27.7245 10.7443 24.8871 10.7443 21.4823Z" fill="white"/>
</g>
</g>
</g>
<g opacity="0.35">
<mask id="mask2_4133_32484" style="mask-type:luminance" maskUnits="userSpaceOnUse" x="9" y="8" width="17" height="8">
<path d="M25.5308 8.69727H9.70337V15.3761H25.5308V8.69727Z" fill="white"/>
</mask>
<g mask="url(#mask2_4133_32484)">
<mask id="mask3_4133_32484" style="mask-type:luminance" maskUnits="userSpaceOnUse" x="9" y="8" width="17" height="8">
<path d="M25.5308 8.69727H9.70337V15.3761H25.5308V8.69727Z" fill="white"/>
</mask>
<g mask="url(#mask3_4133_32484)">
<path d="M20.4808 14.7595C22.6065 14.0392 24.3468 12.7787 25.5363 11.2618C23.4051 9.65216 20.7892 8.69727 17.953 8.69727C14.8195 8.69727 11.9448 9.85951 9.70337 11.7966C11.5427 14.9286 16.0751 16.2546 20.4808 14.7595Z" fill="white"/>
</g>
</g>
</g>
<g opacity="0.35">
<mask id="mask4_4133_32484" style="mask-type:luminance" maskUnits="userSpaceOnUse" x="9" y="29" width="15" height="7">
<path d="M23.6529 29.5254H9.34546V35.6094H23.6529V29.5254Z" fill="white"/>
</mask>
<g mask="url(#mask4_4133_32484)">
<mask id="mask5_4133_32484" style="mask-type:luminance" maskUnits="userSpaceOnUse" x="9" y="29" width="15" height="7">
<path d="M23.6529 29.5254H9.34546V35.6094H23.6529V29.5254Z" fill="white"/>
</mask>
<g mask="url(#mask5_4133_32484)">
<path d="M21.1528 31.8061C16.9949 28.7778 11.8293 28.7669 9.61542 31.7789C9.51629 31.9098 9.43368 32.0462 9.35107 32.1826C11.6365 34.3107 14.6544 35.6094 17.9587 35.6094C20.0073 35.6094 21.9403 35.1128 23.6586 34.2288C22.9812 33.3503 22.1441 32.5264 21.1583 31.8061" fill="white"/>
</g>
</g>
</g>
<g opacity="0.35">
<mask id="mask6_4133_32484" style="mask-type:luminance" maskUnits="userSpaceOnUse" x="22" y="13" width="9" height="20">
<path d="M30.8672 13.7725H22.7332V32.4011H30.8672V13.7725Z" fill="white"/>
</mask>
<g mask="url(#mask6_4133_32484)">
<mask id="mask7_4133_32484" style="mask-type:luminance" maskUnits="userSpaceOnUse" x="22" y="13" width="9" height="20">
<path d="M30.873 13.7725H22.739V32.4011H30.873V13.7725Z" fill="white"/>
</mask>
<g mask="url(#mask7_4133_32484)">
<path d="M30.8728 22.1537C30.8728 18.9834 29.8155 16.0751 28.0587 13.7725C26.9022 14.52 25.8614 15.4804 25.0078 16.6481C21.4887 21.428 22.1716 28.0467 26.3185 32.4065C29.1051 29.9402 30.8728 26.2625 30.8728 22.1591" fill="white"/>
</g>
</g>
</g>
</g>
<defs>
<clipPath id="clip0_4133_32484">
<rect width="48" height="45" fill="white"/>
</clipPath>
</defs>
</svg>
